<svg width="19" height="19" viewBox="0 0 19 19" fill="none" xmlns="http://www.w3.org/2000/svg">
<path d="M15.4306 4.8843L15.4306 10.8398C15.4312 10.9482 15.4103 11.0555 15.3691 11.1557C15.328 11.2559 15.2673 11.3469 15.1907 11.4235C15.1141 11.5001 15.0231 11.5608 14.9229 11.602C14.8227 11.6432 14.7153 11.6641 14.607 11.6635C14.4998 11.6689 14.3927 11.6517 14.2925 11.6131C14.1923 11.5745 14.1013 11.5154 14.0254 11.4395C13.9495 11.3636 13.8904 11.2726 13.8518 11.1725C13.8132 11.0723 13.7961 10.9651 13.8015 10.8579L13.7743 6.75785L5.55604 14.9761C5.48476 15.0679 5.39477 15.1435 5.29204 15.1978C5.18932 15.2521 5.07621 15.284 4.96023 15.2913C4.84425 15.2985 4.72805 15.281 4.61936 15.2399C4.51066 15.1988 4.41194 15.1351 4.32977 15.0529C4.2476 14.9707 4.18385 14.872 4.14276 14.7633C4.10167 14.6546 4.08417 14.5384 4.09143 14.4225C4.0987 14.3065 4.13055 14.1934 4.18488 14.0906C4.23922 13.9879 4.31478 13.8979 4.40656 13.8267L12.6248 5.60838L8.44329 5.66268C8.24635 5.6003 8.07398 5.47762 7.95055 5.31196C7.82712 5.1463 7.75886 4.94604 7.75542 4.73948C7.75483 4.63116 7.77573 4.52379 7.81692 4.42359C7.8581 4.3234 7.91875 4.23237 7.99535 4.15577C8.07195 4.07917 8.16298 4.01852 8.26317 3.97734C8.36337 3.93616 8.47073 3.91526 8.57906 3.91584L14.3988 3.85249C14.5401 3.82579 14.6858 3.834 14.8232 3.87641C14.9606 3.91881 15.0856 3.99413 15.1873 4.09582C15.289 4.1975 15.3643 4.32248 15.4067 4.45989C15.4491 4.5973 15.4573 4.74299 15.4306 4.8843Z" fill="#31383E"/>
</svg>
