<svg width="24" height="24" viewBox="0 0 24 24" fill="none" xmlns="http://www.w3.org/2000/svg">
<path d="M18.771 12.909L14.5598 17.1202C14.4836 17.1972 14.3929 17.2583 14.2929 17.3001C14.193 17.3418 14.0857 17.3633 13.9774 17.3633C13.8691 17.3633 13.7618 17.3418 13.6619 17.3001C13.5619 17.2583 13.4712 17.1972 13.395 17.1202C13.3154 17.0482 13.2518 16.9603 13.2082 16.8622C13.1647 16.7641 13.1422 16.6579 13.1422 16.5506C13.1422 16.4432 13.1647 16.3371 13.2082 16.239C13.2518 16.1409 13.3154 16.053 13.395 15.981L16.275 13.0626L4.6526 13.0626C4.5373 13.0771 4.42024 13.0669 4.30918 13.0327C4.19813 12.9985 4.09562 12.941 4.00848 12.8641C3.92133 12.7872 3.85154 12.6927 3.80373 12.5868C3.75592 12.4809 3.7312 12.366 3.7312 12.2498C3.7312 12.1336 3.75592 12.0187 3.80373 11.9128C3.85154 11.8069 3.92133 11.7123 4.00848 11.6355C4.09562 11.5586 4.19813 11.5011 4.30918 11.4669C4.42024 11.4327 4.5373 11.4225 4.6526 11.437L16.275 11.437L13.2798 8.51859C13.1846 8.33522 13.1495 8.12659 13.1794 7.92217C13.2092 7.71775 13.3026 7.52788 13.4462 7.37939C13.5224 7.30237 13.6131 7.24123 13.7131 7.19951C13.813 7.15778 13.9203 7.13629 14.0286 7.13629C14.1369 7.13629 14.2442 7.15778 14.3441 7.19951C14.4441 7.24123 14.5348 7.30237 14.611 7.37939L18.771 11.4498C18.8898 11.5308 18.987 11.6397 19.0542 11.7668C19.1214 11.894 19.1565 12.0356 19.1565 12.1794C19.1565 12.3232 19.1214 12.4648 19.0542 12.592C18.987 12.7191 18.8898 12.8279 18.771 12.909Z" fill="white"/>
</svg>
