<svg width="240" height="240" viewBox="0 0 240 240" fill="none" xmlns="http://www.w3.org/2000/svg">
<path d="M240 120C240 186.274 186.274 240 120 240C53.7258 240 0 186.274 0 120C0 53.7258 53.7258 0 120 0C186.274 0 240 53.7258 240 120Z" fill="#2B99FF"/>
<mask id="path-2-outside-1" maskUnits="userSpaceOnUse" x="58" y="178" width="27" height="27" fill="black">
<rect fill="white" x="58" y="178" width="27" height="27"/>
<path fill-rule="evenodd" clip-rule="evenodd" d="M69.9972 191C71.0843 191.001 72.1519 190.703 73.088 190.138L73.2565 190.03C74.0949 189.491 74.7861 188.743 75.2658 187.856C75.7455 186.97 75.998 185.974 75.9999 184.96C75.9536 183.363 75.3012 181.848 74.181 180.735C73.0608 179.622 71.561 179 69.9998 179C68.4386 179 66.9388 179.622 65.8186 180.735C64.6984 181.848 64.046 183.363 63.9998 184.96C64.006 185.76 64.166 186.55 64.4708 187.286C64.7755 188.023 65.219 188.69 65.7759 189.251C66.3329 189.812 66.9923 190.255 67.7166 190.555C68.4408 190.855 69.2158 191.006 69.9972 191ZM77.0056 191C75.8187 190.999 74.6581 191.35 73.6706 192.008C72.6832 192.667 71.9133 193.604 71.4583 194.7C71.0033 195.796 70.8837 197.003 71.1146 198.167C71.3455 199.331 71.9165 200.401 72.7554 201.241C73.5943 202.08 74.6634 202.652 75.8275 202.884C76.9915 203.116 78.1982 202.998 79.2949 202.544C80.3916 202.09 81.329 201.321 81.9885 200.334C82.6481 199.347 83.0001 198.187 83.0001 197C83.0008 196.212 82.8463 195.432 82.5454 194.704C82.2445 193.976 81.803 193.315 81.2463 192.758C80.6896 192.2 80.0285 191.758 79.3009 191.457C78.5732 191.155 77.7933 191 77.0056 191ZM76.1397 200.192H74.741V195.074H74.2637V194.608H76.1231V197.3L78.421 194.608H80.7466L76.1397 200.192ZM69.384 196.424C69.384 197.414 69.5797 198.394 69.9595 199.306C70.3218 200.19 70.8522 200.993 71.5204 201.668C71.8225 201.974 72.1503 202.252 72.5001 202.5H67.1477H67.1477C62.6476 202.5 59 202.5 59 200.667V200.144C59.0087 199.066 59.2263 198 59.6405 197.007C60.0547 196.014 60.6572 195.114 61.4138 194.358C62.1704 193.601 63.0662 193.004 64.05 192.6C65.0338 192.195 66.0864 191.992 67.1477 192.001H70.823C70.4736 192.476 70.1836 192.994 69.9595 193.541C69.5797 194.453 69.384 195.434 69.384 196.424Z"/>
</mask>
<path fill-rule="evenodd" clip-rule="evenodd" d="M69.9972 191C71.0843 191.001 72.1519 190.703 73.088 190.138L73.2565 190.03C74.0949 189.491 74.7861 188.743 75.2658 187.856C75.7455 186.97 75.998 185.974 75.9999 184.96C75.9536 183.363 75.3012 181.848 74.181 180.735C73.0608 179.622 71.561 179 69.9998 179C68.4386 179 66.9388 179.622 65.8186 180.735C64.6984 181.848 64.046 183.363 63.9998 184.96C64.006 185.76 64.166 186.55 64.4708 187.286C64.7755 188.023 65.219 188.69 65.7759 189.251C66.3329 189.812 66.9923 190.255 67.7166 190.555C68.4408 190.855 69.2158 191.006 69.9972 191ZM77.0056 191C75.8187 190.999 74.6581 191.35 73.6706 192.008C72.6832 192.667 71.9133 193.604 71.4583 194.7C71.0033 195.796 70.8837 197.003 71.1146 198.167C71.3455 199.331 71.9165 200.401 72.7554 201.241C73.5943 202.08 74.6634 202.652 75.8275 202.884C76.9915 203.116 78.1982 202.998 79.2949 202.544C80.3916 202.09 81.329 201.321 81.9885 200.334C82.6481 199.347 83.0001 198.187 83.0001 197C83.0008 196.212 82.8463 195.432 82.5454 194.704C82.2445 193.976 81.803 193.315 81.2463 192.758C80.6896 192.2 80.0285 191.758 79.3009 191.457C78.5732 191.155 77.7933 191 77.0056 191ZM76.1397 200.192H74.741V195.074H74.2637V194.608H76.1231V197.3L78.421 194.608H80.7466L76.1397 200.192ZM69.384 196.424C69.384 197.414 69.5797 198.394 69.9595 199.306C70.3218 200.19 70.8522 200.993 71.5204 201.668C71.8225 201.974 72.1503 202.252 72.5001 202.5H67.1477H67.1477C62.6476 202.5 59 202.5 59 200.667V200.144C59.0087 199.066 59.2263 198 59.6405 197.007C60.0547 196.014 60.6572 195.114 61.4138 194.358C62.1704 193.601 63.0662 193.004 64.05 192.6C65.0338 192.195 66.0864 191.992 67.1477 192.001H70.823C70.4736 192.476 70.1836 192.994 69.9595 193.541C69.5797 194.453 69.384 195.434 69.384 196.424Z" fill="white"/>
<path d="M73.088 190.138L73.6051 190.994L73.616 190.987L73.6268 190.98L73.088 190.138ZM69.9972 191L69.9983 190L69.989 190L69.9972 191ZM73.2565 190.03L73.7953 190.873L73.7976 190.871L73.2565 190.03ZM75.2658 187.856L74.3863 187.38L75.2658 187.856ZM75.9999 184.96L76.9999 184.962L76.9999 184.947L76.9994 184.931L75.9999 184.96ZM65.8186 180.735L65.1138 180.026V180.026L65.8186 180.735ZM63.9998 184.96L63.0002 184.931L62.9996 184.95L62.9998 184.968L63.9998 184.96ZM64.4708 187.286L63.5468 187.669L64.4708 187.286ZM65.7759 189.251L65.0663 189.956L65.0663 189.956L65.7759 189.251ZM67.7166 190.555L67.3338 191.479H67.3338L67.7166 190.555ZM73.6706 192.008L73.1157 191.177L73.1157 191.177L73.6706 192.008ZM77.0056 191L77.0047 192H77.0056L77.0056 191ZM71.1146 198.167L72.0955 197.973L71.1146 198.167ZM72.7554 201.241L73.4628 200.534L72.7554 201.241ZM81.9885 200.334L82.8199 200.89L81.9885 200.334ZM83.0001 197L82.0001 196.999V197H83.0001ZM82.5454 194.704L81.6213 195.086V195.086L82.5454 194.704ZM81.2463 192.758L81.9538 192.051V192.051L81.2463 192.758ZM79.3009 191.457L78.918 192.381L78.918 192.381L79.3009 191.457ZM74.741 200.192H73.741V201.192H74.741V200.192ZM76.1397 200.192V201.192H76.6111L76.9111 200.828L76.1397 200.192ZM74.741 195.074H75.741V194.074H74.741V195.074ZM74.2637 195.074H73.2637V196.074H74.2637V195.074ZM74.2637 194.608V193.608H73.2637V194.608H74.2637ZM76.1231 194.608H77.1231V193.608H76.1231V194.608ZM76.1231 197.3H75.1231V200.012L76.8837 197.949L76.1231 197.3ZM78.421 194.608V193.608H77.9598L77.6604 193.959L78.421 194.608ZM80.7466 194.608L81.518 195.244L82.8681 193.608H80.7466V194.608ZM69.9595 199.306L70.8848 198.927L70.8826 198.921L69.9595 199.306ZM71.5204 201.668L72.232 200.965L72.2313 200.965L71.5204 201.668ZM72.5001 202.5V203.5H75.6408L73.0783 201.684L72.5001 202.5ZM59 200.144L58 200.136V200.144H59ZM59.6405 197.007L60.5634 197.392H60.5634L59.6405 197.007ZM61.4138 194.358L62.1208 195.065H62.1208L61.4138 194.358ZM67.1477 192.001L67.1393 193.001H67.1477V192.001ZM70.823 192.001L71.6288 192.593L72.7988 191.001H70.823V192.001ZM69.9595 193.541L70.8827 193.926L70.8851 193.92L69.9595 193.541ZM72.5709 189.282C71.7901 189.754 70.9017 190.001 69.9983 190L69.996 192C71.267 192.001 72.5136 191.653 73.6051 190.994L72.5709 189.282ZM72.7178 189.188L72.5493 189.295L73.6268 190.98L73.7953 190.873L72.7178 189.188ZM74.3863 187.38C73.9859 188.12 73.4104 188.742 72.7154 189.189L73.7976 190.871C74.7794 190.239 75.5863 189.365 76.1453 188.332L74.3863 187.38ZM74.9999 184.958C74.9983 185.807 74.7868 186.64 74.3863 187.38L76.1453 188.332C76.7042 187.299 76.9977 186.14 76.9999 184.962L74.9999 184.958ZM73.4763 181.445C74.4122 182.374 74.9614 183.645 75.0003 184.989L76.9994 184.931C76.9459 183.082 76.1902 181.321 74.8858 180.026L73.4763 181.445ZM69.9998 180C71.2936 180 72.5411 180.516 73.4763 181.445L74.8858 180.026C73.5806 178.729 71.8284 178 69.9998 178V180ZM66.5233 181.445C67.4586 180.516 68.706 180 69.9998 180V178C68.1712 178 66.419 178.729 65.1138 180.026L66.5233 181.445ZM64.9993 184.989C65.0382 183.645 65.5874 182.374 66.5233 181.445L65.1138 180.026C63.8094 181.321 63.0537 183.082 63.0002 184.931L64.9993 184.989ZM65.3947 186.904C65.1393 186.287 65.0049 185.624 64.9997 184.952L62.9998 184.968C63.007 185.896 63.1927 186.813 63.5468 187.669L65.3947 186.904ZM66.4855 188.546C66.0211 188.079 65.6501 187.521 65.3947 186.904L63.5468 187.669C63.9009 188.524 64.4169 189.302 65.0663 189.956L66.4855 188.546ZM68.0993 189.631C67.4984 189.382 66.9499 189.014 66.4855 188.546L65.0663 189.956C65.7158 190.61 66.4861 191.128 67.3338 191.479L68.0993 189.631ZM69.989 190C69.3422 190.005 68.7001 189.88 68.0993 189.631L67.3338 191.479C68.1816 191.83 69.0894 192.007 70.0054 192L69.989 190ZM74.2255 192.84C75.0484 192.292 76.0156 191.999 77.0047 192L77.0065 190C75.6218 189.999 74.2677 190.408 73.1157 191.177L74.2255 192.84ZM72.3819 195.083C72.7611 194.17 73.4027 193.389 74.2255 192.84L73.1157 191.177C71.9637 191.945 71.0655 193.038 70.5347 194.317L72.3819 195.083ZM72.0955 197.973C71.9031 197.002 72.0028 195.997 72.3819 195.083L70.5347 194.317C70.0039 195.596 69.8644 197.003 70.1337 198.362L72.0955 197.973ZM73.4628 200.534C72.7638 199.834 72.2879 198.943 72.0955 197.973L70.1337 198.362C70.4031 199.72 71.0693 200.968 72.048 201.948L73.4628 200.534ZM76.0229 201.904C75.0528 201.71 74.1619 201.234 73.4628 200.534L72.048 201.948C73.0267 202.927 74.274 203.595 75.632 203.865L76.0229 201.904ZM78.9124 201.62C77.9985 201.998 76.9929 202.097 76.0229 201.904L75.632 203.865C76.9901 204.136 78.3979 203.998 79.6774 203.468L78.9124 201.62ZM81.1571 199.778C80.6075 200.601 79.8263 201.242 78.9124 201.62L79.6774 203.468C80.9568 202.938 82.0505 202.041 82.8199 200.89L81.1571 199.778ZM82.0001 197C82.0001 197.989 81.7067 198.956 81.1571 199.778L82.8199 200.89C83.5894 199.738 84.0001 198.385 84.0001 197H82.0001ZM81.6213 195.086C81.872 195.693 82.0007 196.343 82.0001 196.999L84.0001 197.001C84.001 196.082 83.8207 195.172 83.4695 194.322L81.6213 195.086ZM80.5389 193.464C81.0027 193.929 81.3705 194.48 81.6213 195.086L83.4695 194.322C83.1184 193.473 82.6033 192.701 81.9538 192.051L80.5389 193.464ZM78.918 192.381C79.5243 192.632 80.075 193 80.5389 193.464L81.9538 192.051C81.3042 191.401 80.5328 190.885 79.6838 190.533L78.918 192.381ZM77.0056 192C77.6619 192 78.3117 192.129 78.918 192.381L79.6838 190.533C78.8347 190.181 77.9247 190 77.0056 190L77.0056 192ZM74.741 201.192H76.1397V199.192H74.741V201.192ZM73.741 195.074V200.192H75.741V195.074H73.741ZM74.2637 196.074H74.741V194.074H74.2637V196.074ZM73.2637 194.608V195.074H75.2637V194.608H73.2637ZM76.1231 193.608H74.2637V195.608H76.1231V193.608ZM77.1231 197.3V194.608H75.1231V197.3H77.1231ZM77.6604 193.959L75.3625 196.651L76.8837 197.949L79.1816 195.257L77.6604 193.959ZM80.7466 193.608H78.421V195.608H80.7466V193.608ZM76.9111 200.828L81.518 195.244L79.9753 193.971L75.3684 199.555L76.9111 200.828ZM70.8826 198.921C70.5537 198.132 70.384 197.282 70.384 196.424H68.384C68.384 197.546 68.6057 198.656 69.0364 199.69L70.8826 198.921ZM72.2313 200.965C71.6556 200.383 71.1978 199.69 70.8848 198.927L69.0342 199.685C69.4458 200.69 70.0488 201.602 70.8096 202.371L72.2313 200.965ZM73.0783 201.684C72.7763 201.47 72.4931 201.23 72.232 200.965L70.8088 202.371C71.1519 202.718 71.5243 203.034 71.9219 203.316L73.0783 201.684ZM67.1477 203.5H72.5001V201.5H67.1477V203.5ZM67.1477 203.5H67.1477V201.5H67.1477V203.5ZM58 200.667C58 201.54 58.4702 202.175 59.11 202.575C59.696 202.941 60.454 203.138 61.2327 203.259C62.8015 203.503 64.9297 203.5 67.1477 203.5V201.5C64.8656 201.5 62.9199 201.498 61.5399 201.283C60.8443 201.175 60.409 201.028 60.1705 200.879C59.9858 200.764 60 200.711 60 200.667H58ZM58 200.144V200.667H60V200.144H58ZM58.7176 196.622C58.2534 197.734 58.0098 198.928 58 200.136L60 200.152C60.0076 199.203 60.1992 198.265 60.5634 197.392L58.7176 196.622ZM60.7069 193.65C59.8574 194.499 59.1817 195.509 58.7176 196.622L60.5634 197.392C60.9276 196.519 61.457 195.728 62.1208 195.065L60.7069 193.65ZM63.6698 191.675C62.5631 192.13 61.5564 192.801 60.7069 193.65L62.1208 195.065C62.7844 194.402 63.5693 193.878 64.4302 193.525L63.6698 191.675ZM67.1561 191.001C65.9613 190.991 64.7766 191.22 63.6698 191.675L64.4302 193.525C65.2911 193.171 66.2116 192.993 67.1393 193L67.1561 191.001ZM70.823 191.001H67.1477V193.001H70.823V191.001ZM70.8851 193.92C71.0783 193.448 71.3281 193.002 71.6288 192.593L70.0172 191.408C69.6191 191.95 69.2889 192.539 69.0339 193.163L70.8851 193.92ZM70.384 196.424C70.384 195.565 70.5537 194.716 70.8826 193.926L69.0364 193.157C68.6057 194.191 68.384 195.302 68.384 196.424H70.384Z" fill="#31383E" mask="url(#path-2-outside-1)"/>
<path d="M140.52 80.2885C162.615 61.6482 190.567 89.4087 181.028 101.44C206.66 107.377 193.777 158.241 147.07 139.823C145.589 139.24 144.609 137.773 144.609 136.182V128.253H150.649C152.321 128.253 153.255 126.324 152.219 125.013L136.825 105.538C136.046 104.552 134.562 104.52 133.741 105.472L116.949 124.947C115.831 126.243 116.752 128.253 118.463 128.253H124.037C125.142 128.253 126.037 129.148 126.037 130.253V153.703C126.037 155.912 127.828 157.703 130.037 157.703H130.668C132.424 157.703 133.328 159.806 132.118 161.08L114.65 179.486C113.867 180.312 112.554 180.318 111.762 179.501L93.9443 161.094C92.7159 159.825 93.6151 157.703 95.3813 157.703H99.2743C100.379 157.703 101.274 156.808 101.274 155.703V145C101.274 142.791 99.4848 141 97.2756 141H87.5663C74.7427 141 64.1703 140.56 56.1703 135.725C51.9699 132.648 48.6536 128.253 48.6533 122.099C49.5051 117.299 50.1801 116.247 53.0977 112.339C56.0153 108.43 59.8068 105.256 64.1703 103.069C68.5337 100.882 73.3483 99.7437 78.2304 99.7438C79.2161 99.7438 80.2113 99.7956 81.1546 99.8851C79.2392 92.222 80.2955 84.1192 84.1117 77.2011C87.9278 70.283 94.2218 65.061 101.732 62.582C109.242 60.103 117.412 60.5502 124.606 63.834C131.8 67.1178 137.484 72.9954 140.52 80.2885Z" fill="#31383E" stroke="#31383E" stroke-width="2" stroke-linecap="round" stroke-linejoin="round"/>
<path d="M137.867 80.2885C159.962 61.6482 187.914 89.4087 178.375 101.44C204.006 107.377 191.124 158.241 144.416 139.823C142.936 139.24 141.956 137.773 141.956 136.182V128.253H147.996C149.668 128.253 150.602 126.324 149.565 125.013L134.172 105.538C133.393 104.552 131.909 104.52 131.088 105.472L114.295 124.947C113.178 126.243 114.099 128.253 115.81 128.253H121.384C122.488 128.253 123.384 129.148 123.384 130.253V153.703C123.384 155.912 125.175 157.703 127.384 157.703H128.014C129.771 157.703 130.674 159.806 129.465 161.08L111.997 179.486C111.213 180.312 109.9 180.318 109.109 179.501L91.291 161.094C90.0625 159.825 90.9618 157.703 92.728 157.703H96.621C97.7255 157.703 98.621 156.808 98.621 155.703V145C98.621 142.791 96.8315 141 94.6223 141H84.913C72.0894 141 61.517 140.56 53.517 135.725C49.3166 132.648 46.0002 128.253 46 122.099C46.8518 117.299 47.5268 116.247 50.4443 112.339C53.3619 108.43 57.1535 105.256 61.517 103.069C65.8804 100.882 70.695 99.7437 75.5771 99.7438C76.5628 99.7438 77.558 99.7956 78.5013 99.8851C76.5859 92.222 77.6422 84.1192 81.4584 77.2011C85.2745 70.283 91.5685 65.061 99.0784 62.582C106.588 60.103 114.759 60.5502 121.953 63.834C129.146 67.1178 134.831 72.9954 137.867 80.2885Z" fill="white" stroke="#31383E" stroke-width="2" stroke-linecap="round" stroke-linejoin="round"/>
<mask id="path-6-outside-2" maskUnits="userSpaceOnUse" x="157" y="178" width="28" height="26" fill="black">
<rect fill="white" x="157" y="178" width="28" height="26"/>
<path fill-rule="evenodd" clip-rule="evenodd" d="M182.375 190.624C182.375 189.398 181.384 188.403 180.163 188.403H161.837C160.615 188.403 159.625 189.398 159.625 190.624V193.143C159.625 194.369 160.615 195.363 161.837 195.363H180.163C181.384 195.363 182.375 194.369 182.375 193.143V190.624ZM179.926 190.282C180.231 190.282 180.479 190.531 180.479 190.837V192.93C180.479 193.236 180.231 193.485 179.926 193.485H177.793C177.488 193.485 177.24 193.236 177.24 192.93V190.837C177.24 190.531 177.488 190.282 177.793 190.282H179.926ZM182.375 181.22C182.375 179.994 181.384 179 180.163 179H161.837C160.615 179 159.625 179.994 159.625 181.22V183.74C159.625 184.966 160.615 185.96 161.837 185.96H180.163C181.384 185.96 182.375 184.966 182.375 183.74V181.22ZM179.926 180.879C180.231 180.879 180.479 181.127 180.479 181.434V183.526C180.479 183.833 180.231 184.081 179.926 184.081H177.793C177.488 184.081 177.24 183.833 177.24 183.526V181.434C177.24 181.127 177.488 180.879 177.793 180.879H179.926ZM172.609 198.046C172.139 197.72 171.576 197.545 171 197.545C170.424 197.545 169.861 197.72 169.391 198.046C168.92 198.371 168.564 198.832 168.372 199.364H158.917C158.41 199.364 158 199.771 158 200.273C158 200.775 158.41 201.182 158.917 201.182H168.374C168.566 201.714 168.922 202.174 169.392 202.5C169.862 202.825 170.424 203 171 203C171.576 203 172.138 202.825 172.608 202.5C173.078 202.174 173.434 201.714 173.626 201.182H183.083C183.59 201.182 184 200.775 184 200.273C184 199.771 183.59 199.364 183.083 199.364H173.628C173.436 198.832 173.08 198.371 172.609 198.046Z"/>
</mask>
<path fill-rule="evenodd" clip-rule="evenodd" d="M182.375 190.624C182.375 189.398 181.384 188.403 180.163 188.403H161.837C160.615 188.403 159.625 189.398 159.625 190.624V193.143C159.625 194.369 160.615 195.363 161.837 195.363H180.163C181.384 195.363 182.375 194.369 182.375 193.143V190.624ZM179.926 190.282C180.231 190.282 180.479 190.531 180.479 190.837V192.93C180.479 193.236 180.231 193.485 179.926 193.485H177.793C177.488 193.485 177.24 193.236 177.24 192.93V190.837C177.24 190.531 177.488 190.282 177.793 190.282H179.926ZM182.375 181.22C182.375 179.994 181.384 179 180.163 179H161.837C160.615 179 159.625 179.994 159.625 181.22V183.74C159.625 184.966 160.615 185.96 161.837 185.96H180.163C181.384 185.96 182.375 184.966 182.375 183.74V181.22ZM179.926 180.879C180.231 180.879 180.479 181.127 180.479 181.434V183.526C180.479 183.833 180.231 184.081 179.926 184.081H177.793C177.488 184.081 177.24 183.833 177.24 183.526V181.434C177.24 181.127 177.488 180.879 177.793 180.879H179.926ZM172.609 198.046C172.139 197.72 171.576 197.545 171 197.545C170.424 197.545 169.861 197.72 169.391 198.046C168.92 198.371 168.564 198.832 168.372 199.364H158.917C158.41 199.364 158 199.771 158 200.273C158 200.775 158.41 201.182 158.917 201.182H168.374C168.566 201.714 168.922 202.174 169.392 202.5C169.862 202.825 170.424 203 171 203C171.576 203 172.138 202.825 172.608 202.5C173.078 202.174 173.434 201.714 173.626 201.182H183.083C183.59 201.182 184 200.775 184 200.273C184 199.771 183.59 199.364 183.083 199.364H173.628C173.436 198.832 173.08 198.371 172.609 198.046Z" fill="white"/>
<path fill-rule="evenodd" clip-rule="evenodd" d="M182.375 190.624C182.375 189.398 181.384 188.403 180.163 188.403H161.837C160.615 188.403 159.625 189.398 159.625 190.624V193.143C159.625 194.369 160.615 195.363 161.837 195.363H180.163C181.384 195.363 182.375 194.369 182.375 193.143V190.624ZM179.926 190.282C180.231 190.282 180.479 190.531 180.479 190.837V192.93C180.479 193.236 180.231 193.485 179.926 193.485H177.793C177.488 193.485 177.24 193.236 177.24 192.93V190.837C177.24 190.531 177.488 190.282 177.793 190.282H179.926ZM182.375 181.22C182.375 179.994 181.384 179 180.163 179H161.837C160.615 179 159.625 179.994 159.625 181.22V183.74C159.625 184.966 160.615 185.96 161.837 185.96H180.163C181.384 185.96 182.375 184.966 182.375 183.74V181.22ZM179.926 180.879C180.231 180.879 180.479 181.127 180.479 181.434V183.526C180.479 183.833 180.231 184.081 179.926 184.081H177.793C177.488 184.081 177.24 183.833 177.24 183.526V181.434C177.24 181.127 177.488 180.879 177.793 180.879H179.926ZM172.609 198.046C172.139 197.72 171.576 197.545 171 197.545C170.424 197.545 169.861 197.72 169.391 198.046C168.92 198.371 168.564 198.832 168.372 199.364H158.917C158.41 199.364 158 199.771 158 200.273C158 200.775 158.41 201.182 158.917 201.182H168.374C168.566 201.714 168.922 202.174 169.392 202.5C169.862 202.825 170.424 203 171 203C171.576 203 172.138 202.825 172.608 202.5C173.078 202.174 173.434 201.714 173.626 201.182H183.083C183.59 201.182 184 200.775 184 200.273C184 199.771 183.59 199.364 183.083 199.364H173.628C173.436 198.832 173.08 198.371 172.609 198.046Z" fill="url(#paint0_linear)"/>
<path d="M171 197.545L170.999 198.545H171.001L171 197.545ZM172.609 198.046L172.04 198.868L172.04 198.868L172.609 198.046ZM169.391 198.046L169.96 198.868L169.96 198.868L169.391 198.046ZM168.372 199.364V200.364H169.074L169.313 199.704L168.372 199.364ZM168.374 201.182L169.314 200.842L169.076 200.182H168.374V201.182ZM173.626 201.182V200.182H172.924L172.686 200.842L173.626 201.182ZM173.628 199.364L172.687 199.704L172.926 200.364H173.628V199.364ZM180.163 189.403C180.829 189.403 181.375 189.946 181.375 190.624H183.375C183.375 188.849 181.94 187.403 180.163 187.403V189.403ZM161.837 189.403H180.163V187.403H161.837V189.403ZM160.625 190.624C160.625 189.946 161.171 189.403 161.837 189.403V187.403C160.059 187.403 158.625 188.849 158.625 190.624H160.625ZM160.625 193.143V190.624H158.625V193.143H160.625ZM161.837 194.363C161.171 194.363 160.625 193.821 160.625 193.143H158.625C158.625 194.918 160.059 196.363 161.837 196.363V194.363ZM180.163 194.363H161.837V196.363H180.163V194.363ZM181.375 193.143C181.375 193.821 180.829 194.363 180.163 194.363V196.363C181.94 196.363 183.375 194.918 183.375 193.143H181.375ZM181.375 190.624V193.143H183.375V190.624H181.375ZM181.479 190.837C181.479 189.982 180.787 189.282 179.926 189.282V191.282C179.675 191.282 179.479 191.079 179.479 190.837H181.479ZM181.479 192.93V190.837H179.479V192.93H181.479ZM179.926 194.485C180.787 194.485 181.479 193.785 181.479 192.93H179.479C179.479 192.688 179.675 192.485 179.926 192.485V194.485ZM177.793 194.485H179.926V192.485H177.793V194.485ZM176.24 192.93C176.24 193.785 176.932 194.485 177.793 194.485V192.485C178.044 192.485 178.24 192.688 178.24 192.93H176.24ZM176.24 190.837V192.93H178.24V190.837H176.24ZM177.793 189.282C176.932 189.282 176.24 189.982 176.24 190.837H178.24C178.24 191.079 178.044 191.282 177.793 191.282V189.282ZM179.926 189.282H177.793V191.282H179.926V189.282ZM180.163 180C180.829 180 181.375 180.543 181.375 181.22H183.375C183.375 179.445 181.94 178 180.163 178V180ZM161.837 180H180.163V178H161.837V180ZM160.625 181.22C160.625 180.543 161.171 180 161.837 180V178C160.059 178 158.625 179.445 158.625 181.22H160.625ZM160.625 183.74V181.22H158.625V183.74H160.625ZM161.837 184.96C161.171 184.96 160.625 184.417 160.625 183.74H158.625C158.625 185.515 160.059 186.96 161.837 186.96V184.96ZM180.163 184.96H161.837V186.96H180.163V184.96ZM181.375 183.74C181.375 184.417 180.829 184.96 180.163 184.96V186.96C181.94 186.96 183.375 185.515 183.375 183.74H181.375ZM181.375 181.22V183.74H183.375V181.22H181.375ZM181.479 181.434C181.479 180.579 180.787 179.879 179.926 179.879V181.879C179.675 181.879 179.479 181.676 179.479 181.434H181.479ZM181.479 183.526V181.434H179.479V183.526H181.479ZM179.926 185.081C180.787 185.081 181.479 184.381 181.479 183.526H179.479C179.479 183.284 179.675 183.081 179.926 183.081V185.081ZM177.793 185.081H179.926V183.081H177.793V185.081ZM176.24 183.526C176.24 184.381 176.932 185.081 177.793 185.081V183.081C178.044 183.081 178.24 183.284 178.24 183.526H176.24ZM176.24 181.434V183.526H178.24V181.434H176.24ZM177.793 179.879C176.932 179.879 176.24 180.579 176.24 181.434H178.24C178.24 181.676 178.044 181.879 177.793 181.879V179.879ZM179.926 179.879H177.793V181.879H179.926V179.879ZM171.001 198.545C171.375 198.545 171.738 198.659 172.04 198.868L173.178 197.223C172.539 196.781 171.778 196.545 170.999 196.545L171.001 198.545ZM169.96 198.868C170.262 198.659 170.625 198.545 170.999 198.545L171.001 196.545C170.222 196.545 169.461 196.781 168.822 197.223L169.96 198.868ZM169.313 199.704C169.433 199.37 169.658 199.077 169.96 198.868L168.822 197.223C168.182 197.666 167.695 198.294 167.432 199.024L169.313 199.704ZM158.917 200.364H168.372V198.364H158.917V200.364ZM159 200.273C159 200.331 158.955 200.364 158.917 200.364V198.364C157.866 198.364 157 199.211 157 200.273H159ZM158.917 200.182C158.955 200.182 159 200.215 159 200.273H157C157 201.335 157.866 202.182 158.917 202.182V200.182ZM168.374 200.182H158.917V202.182H168.374V200.182ZM169.961 201.677C169.66 201.469 169.435 201.176 169.314 200.842L167.434 201.522C167.697 202.252 168.184 202.88 168.823 203.322L169.961 201.677ZM171 202C170.626 202 170.263 201.886 169.961 201.677L168.823 203.322C169.462 203.764 170.222 204 171 204V202ZM172.039 201.677C171.737 201.886 171.374 202 171 202V204C171.778 204 172.538 203.764 173.177 203.322L172.039 201.677ZM172.686 200.842C172.565 201.176 172.34 201.469 172.039 201.677L173.177 203.322C173.816 202.88 174.303 202.252 174.566 201.522L172.686 200.842ZM183.083 200.182H173.626V202.182H183.083V200.182ZM183 200.273C183 200.215 183.045 200.182 183.083 200.182V202.182C184.134 202.182 185 201.335 185 200.273H183ZM183.083 200.364C183.045 200.364 183 200.331 183 200.273H185C185 199.211 184.134 198.364 183.083 198.364V200.364ZM173.628 200.364H183.083V198.364H173.628V200.364ZM172.04 198.868C172.342 199.077 172.567 199.37 172.687 199.704L174.568 199.024C174.305 198.294 173.818 197.666 173.178 197.223L172.04 198.868Z" fill="black" mask="url(#path-6-outside-2)"/>
<path d="M154 147C156.337 152.213 159.489 154.905 164.611 157.444C166.743 158.502 169.278 158.778 171 160.5C173.486 162.986 172.479 167.562 171.5 170.5" stroke="#31383E" stroke-linecap="round" stroke-linejoin="round" stroke-dasharray="4 4"/>
<path d="M68.5 146.5C65.2473 153.266 65.7091 160.87 68 167.944C68.1979 168.555 69.5 174.493 69.5 172.5" stroke="#31383E" stroke-linecap="round" stroke-linejoin="round" stroke-dasharray="4 4"/>
<path d="M135.67 39.4908C135.801 39.1684 135.868 38.8913 135.871 38.6596C135.879 38.4167 135.841 38.2071 135.757 38.0306C135.678 37.843 135.559 37.6909 135.399 37.5742C135.255 37.4509 135.088 37.3509 134.899 37.2742L133.898 36.868L132.558 40.1703C132.68 40.2199 132.8 40.2751 132.918 40.3359C133.025 40.3922 133.148 40.4552 133.288 40.525C133.433 40.5836 133.583 40.6446 133.738 40.7078C134.205 40.8973 134.589 40.8781 134.888 40.6501C135.193 40.411 135.453 40.0246 135.67 39.4908ZM137.423 34.4525C137.595 34.03 137.634 33.6636 137.539 33.3534C137.445 33.0431 137.231 32.8203 136.898 32.6849C136.764 32.6308 136.629 32.5822 136.491 32.5391C136.357 32.485 136.233 32.4409 136.117 32.4069C135.99 32.3684 135.869 32.3321 135.753 32.2981L134.656 35L135.54 35.3588C136.007 35.5483 136.386 35.5725 136.676 35.4314C136.967 35.2903 137.216 34.964 137.423 34.4525ZM137.995 40.4152C137.679 41.1935 137.327 41.7889 136.94 42.2014C136.556 42.6028 136.142 42.8748 135.695 43.0174C135.253 43.1488 134.784 43.1721 134.288 43.0871C133.791 43.0021 133.276 42.8513 132.742 42.6347C132.387 42.4903 132.016 42.3335 131.632 42.1644C131.258 41.9999 130.915 41.841 130.601 41.6879C130.232 41.5122 129.866 41.331 129.501 41.1442L134.24 29.4693C134.62 29.5849 134.999 29.706 135.375 29.8327C135.695 29.9368 136.03 30.0533 136.379 30.1821C136.739 30.3154 137.058 30.4384 137.336 30.5513C138.015 30.8266 138.562 31.1202 138.98 31.432C139.397 31.7439 139.698 32.0864 139.884 32.4594C140.08 32.837 140.158 33.2508 140.118 33.7007C140.089 34.1552 139.962 34.6603 139.736 35.2163C139.574 35.6166 139.391 35.9377 139.19 36.1795C138.988 36.4214 138.776 36.6075 138.555 36.7378C138.349 36.8616 138.137 36.9374 137.919 36.9653C137.7 36.9931 137.491 36.9987 137.29 36.9821C137.504 37.0946 137.691 37.2549 137.853 37.463C138.03 37.6644 138.157 37.9102 138.233 38.2003C138.314 38.4792 138.337 38.8058 138.302 39.18C138.282 39.5476 138.18 39.9593 137.995 40.4152Z" fill="white"/>
<path d="M141.901 42.2726C141.686 42.8976 141.626 43.3653 141.72 43.6755C141.83 43.9791 142.135 44.2325 142.635 44.4356C143.102 44.6251 143.553 44.7756 143.987 44.887C144.432 45.0029 144.788 45.0827 145.055 45.1264L144.297 46.9944C144.15 46.9736 143.967 46.9448 143.749 46.908C143.535 46.8602 143.313 46.8022 143.082 46.7342C142.85 46.6662 142.627 46.5948 142.411 46.5202C142.202 46.4612 142.019 46.4001 141.863 46.3369C141.263 46.0932 140.755 45.8288 140.34 45.5437C139.925 45.2586 139.625 44.8972 139.44 44.4595C139.266 44.0263 139.214 43.5001 139.284 42.881C139.369 42.2553 139.602 41.4754 139.981 40.5414C140.292 39.7742 140.631 39.1475 140.997 38.6614C141.378 38.1686 141.783 37.8085 142.212 37.5812C142.652 37.3584 143.115 37.2549 143.601 37.2707C144.091 37.2754 144.609 37.3883 145.153 37.6095C145.787 37.8667 146.27 38.16 146.603 38.4893C146.947 38.823 147.17 39.1985 147.272 39.6158C147.38 40.0219 147.383 40.4765 147.282 40.9796C147.193 41.4872 147.028 42.0356 146.789 42.625L146.221 44.0259L141.901 42.2726ZM144.375 39.4306C144.031 39.2907 143.72 39.3069 143.443 39.4793C143.176 39.6562 142.889 40.0448 142.581 40.6448L144.749 41.5249L144.925 41.0913C145.092 40.6799 145.133 40.3403 145.047 40.0724C144.966 39.7935 144.742 39.5795 144.375 39.4306Z" fill="white"/>
<path d="M150.84 50.6216C149.875 51.9782 148.781 52.4083 147.558 51.9119C147.469 51.8758 147.349 51.8206 147.198 51.7463C147.053 51.6876 146.905 51.6211 146.754 51.5468C146.61 51.4881 146.473 51.4261 146.344 51.3609C146.226 51.3001 146.142 51.2529 146.091 51.2192L146.856 49.3345C147.109 49.4762 147.375 49.6035 147.653 49.7163C148.108 49.9013 148.48 49.7673 148.768 49.3142L148.94 49.0343L148.372 48.8041L149.089 39.3817L151.457 40.343L150.441 47.4876L154.493 41.5751L156.644 42.4484L150.84 50.6216Z" fill="white"/>
<path d="M163.117 49.7381C162.76 50.6165 162.387 51.3132 161.997 51.8282C161.611 52.3321 161.198 52.6954 160.758 52.9182C160.322 53.13 159.849 53.21 159.339 53.1584C158.84 53.1113 158.296 52.9681 157.707 52.7289C157.118 52.4897 156.628 52.2132 156.237 51.8992C155.846 51.5853 155.569 51.2006 155.404 50.7451C155.244 50.2786 155.201 49.7302 155.275 49.1C155.365 48.4631 155.589 47.7055 155.945 46.8271C156.523 45.4038 157.223 44.4771 158.045 44.0467C158.883 43.6097 159.93 43.6462 161.187 44.1562C162.443 44.6662 163.219 45.3699 163.516 46.2672C163.828 47.1579 163.695 48.3149 163.117 49.7381ZM160.747 49.0676C160.946 48.5783 161.088 48.1635 161.175 47.823C161.266 47.4713 161.296 47.1729 161.266 46.9276C161.247 46.6869 161.17 46.4937 161.035 46.3482C160.904 46.1915 160.711 46.0613 160.455 45.9575C160.211 45.8582 159.987 45.8192 159.784 45.8404C159.586 45.8506 159.396 45.9354 159.215 46.0949C159.033 46.2545 158.853 46.492 158.673 46.8075C158.498 47.1119 158.311 47.5087 158.112 47.9979C157.922 48.4649 157.781 48.8609 157.688 49.1857C157.611 49.504 157.584 49.778 157.607 50.0076C157.635 50.2261 157.716 50.4081 157.852 50.5537C157.987 50.6992 158.182 50.8239 158.438 50.9277C158.694 51.0315 158.921 51.0783 159.119 51.0682C159.329 51.0626 159.52 50.9911 159.692 50.8538C159.869 50.7054 160.04 50.4901 160.207 50.208C160.377 49.9147 160.558 49.5346 160.747 49.0676Z" fill="white"/>
<path d="M163.279 54.8548L166.664 46.5156L168.466 47.2468L168.352 47.9582C168.707 47.8173 169.08 47.7424 169.473 47.7332C169.865 47.7241 170.267 47.803 170.678 47.97C171.256 48.2047 171.691 48.4587 171.981 48.732C172.283 49.0098 172.472 49.3261 172.548 49.6808C172.635 50.04 172.629 50.4389 172.528 50.8774C172.428 51.3158 172.263 51.8186 172.033 52.3857L169.934 57.556L167.716 56.6556L169.835 51.4353C170.061 50.8793 170.124 50.4841 170.025 50.2496C169.941 50.0085 169.749 49.8271 169.449 49.7052C169.027 49.5337 168.66 49.5274 168.35 49.6862C168.05 49.8496 167.831 50.0714 167.691 50.3514L165.498 55.7552L163.279 54.8548Z" fill="white"/>
<path d="M173.38 54.3507C173.728 53.4945 174.097 52.8089 174.487 52.2939C174.877 51.7789 175.306 51.409 175.773 51.1841C176.24 50.9591 176.753 50.8759 177.312 50.9345C177.886 50.9864 178.524 51.1546 179.224 51.4389C179.336 51.484 179.439 51.5325 179.534 51.5842C179.635 51.6248 179.729 51.6632 179.818 51.6993L181.118 48.497L183.336 49.3974L178.597 61.0723L176.796 60.3412L176.907 59.5897C176.536 59.7371 176.147 59.8187 175.739 59.8344C175.335 59.8391 174.917 59.7534 174.483 59.5774C174.016 59.3878 173.635 59.1619 173.34 58.8997C173.05 58.6264 172.851 58.2866 172.744 57.8805C172.637 57.4744 172.634 56.9875 172.735 56.4198C172.84 55.841 173.055 55.1512 173.38 54.3507ZM175.839 57.913C176.028 57.9897 176.208 58.024 176.38 58.016C176.567 58.0013 176.741 57.9554 176.902 57.8783C177.063 57.8011 177.2 57.7015 177.315 57.5795C177.445 57.4509 177.539 57.3144 177.597 57.1698L179.033 53.634C178.915 53.5732 178.792 53.5102 178.663 53.4449C178.545 53.3842 178.425 53.329 178.302 53.2793C178.013 53.162 177.747 53.0993 177.505 53.0914C177.277 53.0769 177.054 53.1482 176.835 53.3053C176.631 53.4558 176.427 53.7032 176.223 54.0476C176.023 54.3808 175.805 54.8365 175.571 55.4147C175.399 55.8372 175.276 56.1887 175.201 56.4691C175.137 56.754 175.118 56.9923 175.144 57.1841C175.174 57.3648 175.245 57.51 175.356 57.6197C175.478 57.734 175.639 57.8317 175.839 57.913Z" fill="white"/>
<path d="M188.461 53.8284L184.542 63.4852L182.257 62.5577L186.176 52.9009L183.775 51.926L184.594 49.908L191.682 52.7851L190.863 54.8032L188.461 53.8284Z" fill="white"/>
<path d="M196.068 59.0333C196.334 58.3773 196.446 57.8464 196.403 57.4406C196.377 57.0282 196.124 56.725 195.646 56.5309C195.29 56.3865 195.011 56.2926 194.808 56.2492C194.688 56.2264 194.592 56.2069 194.521 56.191L192.998 59.9436L194.049 60.3701C194.438 60.5281 194.811 60.4854 195.169 60.2421C195.538 60.0033 195.838 59.6004 196.068 59.0333ZM198.433 59.8576C198.136 60.5914 197.807 61.1769 197.449 61.6141C197.09 62.0513 196.692 62.3623 196.254 62.5473C195.816 62.7322 195.337 62.7967 194.816 62.7405C194.306 62.6889 193.75 62.5413 193.15 62.2975L192.199 61.9117L190.568 65.9312L188.283 65.0037L193.022 53.3288C193.353 53.4375 193.703 53.5473 194.073 53.6584C194.382 53.758 194.717 53.8745 195.077 54.0078C195.453 54.1345 195.813 54.2678 196.158 54.4077C196.914 54.7146 197.501 55.0563 197.918 55.4327C198.35 55.8026 198.644 56.213 198.797 56.6639C198.967 57.1082 199.008 57.5976 198.92 58.1319C198.848 58.6597 198.686 59.2349 198.433 59.8576Z" fill="white"/>
<path fill-rule="evenodd" clip-rule="evenodd" d="M134.871 38.6361L134.872 38.6272C134.876 38.5055 134.855 38.4613 134.854 38.4597L134.845 38.44L134.836 38.42C134.825 38.3943 134.818 38.3887 134.809 38.3821L134.778 38.3594L134.749 38.3345C134.692 38.2861 134.62 38.2403 134.523 38.2009L134.449 38.1708L133.84 39.67L134.114 39.7814C134.212 39.8212 134.274 39.8327 134.304 39.8359C134.419 39.7318 134.579 39.5198 134.743 39.1149C134.849 38.8554 134.87 38.7069 134.871 38.6451L134.871 38.6361ZM134.888 40.6503C134.589 40.8783 134.205 40.8975 133.738 40.7079L133.288 40.5252C133.148 40.4554 133.025 40.3923 132.918 40.3361C132.8 40.2753 132.68 40.2201 132.558 40.1705L133.898 36.8682L134.899 37.2743C135.088 37.3511 135.254 37.4511 135.399 37.5744C135.559 37.6911 135.678 37.8432 135.757 38.0308C135.841 38.2072 135.879 38.4169 135.871 38.6598C135.868 38.8915 135.801 39.1686 135.67 39.491C135.453 40.0247 135.193 40.4112 134.888 40.6503ZM136.329 33.5389L135.959 34.4492C136.099 34.5024 136.19 34.5182 136.238 34.5213C136.241 34.5215 136.243 34.5216 136.246 34.5217C136.256 34.5116 136.269 34.4963 136.286 34.4744C136.342 34.4014 136.416 34.2763 136.497 34.0766C136.617 33.7815 136.588 33.6613 136.582 33.6442C136.582 33.6437 136.582 33.6432 136.582 33.6427C136.574 33.6367 136.555 33.6254 136.521 33.6117C136.458 33.5859 136.394 33.5616 136.329 33.5389ZM135.583 35.376C136.03 35.5499 136.395 35.5684 136.676 35.4316C136.967 35.2904 137.216 34.9641 137.423 34.4527C137.595 34.0301 137.634 33.6638 137.539 33.3536C137.445 33.0433 137.231 32.8205 136.898 32.6851C136.764 32.631 136.628 32.5824 136.491 32.5393C136.357 32.4852 136.233 32.4411 136.117 32.4071C135.99 32.3685 135.869 32.3323 135.753 32.2983L134.656 35.0002L135.54 35.359C135.555 35.3648 135.569 35.3704 135.583 35.376ZM134.24 29.4695L129.501 41.1444C129.866 41.3312 130.232 41.5124 130.601 41.6881C130.915 41.8412 131.258 42.0001 131.632 42.1646C132.016 42.3337 132.387 42.4905 132.742 42.6349C133.276 42.8515 133.791 43.0023 134.288 43.0873C134.784 43.1723 135.253 43.149 135.695 43.0176C136.142 42.875 136.556 42.603 136.94 42.2016C137.327 41.7891 137.679 41.1937 137.995 40.4154C138.18 39.9595 138.282 39.5477 138.302 39.1802C138.337 38.806 138.314 38.4794 138.233 38.2004C138.21 38.1101 138.181 38.024 138.147 37.9423C138.108 37.8465 138.062 37.7565 138.009 37.6725C137.962 37.5981 137.91 37.5283 137.853 37.4632C137.691 37.2551 137.504 37.0948 137.29 36.9823C137.491 36.9989 137.7 36.9933 137.919 36.9654C138.136 36.9377 138.348 36.8624 138.553 36.7395C138.553 36.739 138.554 36.7385 138.555 36.738C138.776 36.6077 138.988 36.4216 139.19 36.1797C139.391 35.9378 139.573 35.6168 139.736 35.2165C139.962 34.6605 140.089 34.1553 140.118 33.7009C140.158 33.251 140.08 32.8372 139.884 32.4596C139.698 32.0865 139.397 31.7441 138.98 31.4322C138.562 31.1203 138.015 30.8268 137.336 30.5515C137.058 30.4386 136.739 30.3156 136.379 30.1823C136.03 30.0535 135.695 29.937 135.374 29.8329C134.999 29.7062 134.62 29.585 134.24 29.4695ZM135.689 28.8835C135.305 28.7542 134.919 28.6306 134.531 28.5126L133.657 28.2472L128.23 41.6167L129.045 42.0343C129.417 42.2248 129.791 42.4096 130.167 42.5888C130.493 42.7479 130.847 42.9115 131.229 43.0798C131.621 43.2523 132.001 43.4131 132.366 43.5615C132.958 43.8014 133.542 43.9742 134.119 44.073C134.753 44.1814 135.378 44.1552 135.98 43.976L135.99 43.9732L136 43.9702C136.632 43.768 137.186 43.3922 137.663 42.892L137.668 42.8864C137.997 42.5368 138.285 42.109 138.541 41.6193C138.425 42.0208 138.341 42.3969 138.293 42.7456L138.291 42.7572L138.29 42.7688C138.208 43.4996 138.259 44.2024 138.512 44.8321L138.515 44.8405L138.518 44.8489C138.782 45.4734 139.211 45.9818 139.774 46.3683C140.263 46.7039 140.838 47.0001 141.487 47.2637C141.677 47.3409 141.887 47.4107 142.111 47.4748C142.334 47.5514 142.563 47.6244 142.799 47.6938C143.05 47.7674 143.293 47.8309 143.53 47.884L143.557 47.8899L143.583 47.8943C143.806 47.9319 143.998 47.9622 144.157 47.9847L144.93 48.0941L146.154 45.0783L146.771 45.3288L147.716 43.0012C147.757 42.8999 147.796 42.7991 147.834 42.6989L147.393 48.4895C147.377 48.4804 147.36 48.4712 147.344 48.462L146.355 47.909L144.856 51.6029L145.54 52.0542C145.639 52.1193 145.764 52.187 145.885 52.2498L145.892 52.2532C146.037 52.3267 146.188 52.3956 146.345 52.46C146.493 52.5323 146.641 52.5988 146.788 52.6593C146.935 52.731 147.068 52.7926 147.182 52.8386C147.999 53.1705 148.846 53.2132 149.661 52.8925C150.45 52.5827 151.105 51.9749 151.655 51.2015L155.006 46.4825C154.639 47.3922 154.389 48.2223 154.285 48.96L154.283 48.9714L154.282 48.9827C154.195 49.7209 154.237 50.4271 154.458 51.0703L154.461 51.078L154.464 51.0856C154.693 51.7196 155.082 52.2542 155.611 52.6788C156.094 53.0676 156.674 53.3893 157.331 53.6557C157.986 53.9217 158.625 54.0952 159.242 54.1539C159.924 54.2223 160.583 54.115 161.195 53.8178L161.202 53.8143L161.209 53.8106C161.816 53.5034 162.339 53.0265 162.791 52.4363L162.794 52.4324C163.255 51.8232 163.668 51.04 164.044 50.1144C164.657 48.6019 164.888 47.1704 164.462 45.9454C164.038 44.6695 162.966 43.7994 161.563 43.2298C160.156 42.6591 158.778 42.5367 157.583 43.1602L157.581 43.1609C157.451 43.2291 157.325 43.3051 157.203 43.3886L158.191 41.9973L154.123 40.3459L152.033 43.3954L152.557 39.7105L148.195 37.9401L148.117 38.9775C147.939 38.5254 147.661 38.1241 147.303 37.7754C146.844 37.3224 146.232 36.9683 145.529 36.6831C144.895 36.4254 144.256 36.2788 143.622 36.2711C142.97 36.2517 142.344 36.3935 141.76 36.6892L141.752 36.6934L141.744 36.6978C141.159 37.0077 140.65 37.475 140.206 38.0495L140.197 38.0604C139.844 38.5306 139.527 39.0905 139.241 39.7277C139.27 39.5688 139.29 39.411 139.299 39.2545C139.34 38.8011 139.317 38.3537 139.197 37.9336C139.166 37.8155 139.127 37.7001 139.082 37.5878C139.414 37.389 139.703 37.1249 139.957 36.8203C140.245 36.4757 140.475 36.0557 140.663 35.5926C140.915 34.9712 141.076 34.3629 141.115 33.7771C141.168 33.1569 141.06 32.5578 140.775 32.0064C140.505 31.4659 140.088 31.0119 139.578 30.6312C139.071 30.2521 138.441 29.9205 137.712 29.6249C137.423 29.5072 137.093 29.3804 136.726 29.2444L136.725 29.244C136.367 29.1119 136.021 28.9916 135.689 28.8835ZM143.601 37.2709C143.115 37.2551 142.652 37.3585 142.212 37.5814C141.783 37.8087 141.378 38.1688 140.997 38.6615C140.631 39.1477 140.292 39.7744 139.981 40.5416C139.602 41.4756 139.369 42.2554 139.284 42.8812C139.214 43.5003 139.266 44.0265 139.44 44.4597C139.625 44.8974 139.925 45.2588 140.34 45.5439C140.755 45.829 141.263 46.0934 141.863 46.3371C142.019 46.4003 142.202 46.4614 142.411 46.5204C142.626 46.595 142.85 46.6664 143.081 46.7344C143.313 46.8024 143.535 46.8604 143.749 46.9082C143.967 46.945 144.15 46.9738 144.297 46.9946L145.055 45.1266C144.804 45.0855 144.474 45.0124 144.065 44.9074C144.039 44.9008 144.013 44.8941 143.987 44.8872C143.553 44.7758 143.102 44.6253 142.635 44.4358C142.135 44.2327 141.83 43.9793 141.72 43.6757C141.685 43.5598 141.671 43.4219 141.679 43.2619C141.692 42.994 141.766 42.6642 141.901 42.2728L146.22 44.0261L146.789 42.6251C147.028 42.0358 147.193 41.4874 147.282 40.9798C147.383 40.4767 147.38 40.0221 147.272 39.6159C147.17 39.1987 146.947 38.8232 146.603 38.4894C146.27 38.1602 145.787 37.8669 145.153 37.6097C144.609 37.3885 144.091 37.2756 143.601 37.2709ZM145.047 40.0726C144.966 39.7937 144.742 39.5797 144.375 39.4308C144.031 39.2909 143.72 39.3071 143.443 39.4795C143.338 39.5488 143.231 39.6505 143.12 39.7847C142.948 39.9932 142.768 40.2799 142.581 40.645L144.749 41.5251L144.925 41.0915C145.001 40.9056 145.05 40.7344 145.074 40.5778C145.103 40.3878 145.094 40.2194 145.047 40.0726ZM150.441 47.4878L151.457 40.3432L149.089 39.3819L148.372 48.8043L148.939 49.0344L148.768 49.3143C148.59 49.5941 148.381 49.7522 148.139 49.7887C148.021 49.8065 147.896 49.7955 147.764 49.7558C147.727 49.7449 147.69 49.7318 147.652 49.7165C147.374 49.6036 147.109 49.4764 146.856 49.3347L146.091 51.2194C146.142 51.2531 146.226 51.3003 146.344 51.3611C146.473 51.4263 146.609 51.4883 146.754 51.547C146.905 51.6213 147.053 51.6878 147.198 51.7464C147.349 51.8207 147.469 51.876 147.558 51.9121C148.781 52.4085 149.875 51.9784 150.84 50.6218L156.644 42.4486L154.493 41.5753L150.441 47.4878ZM163.516 46.2674C163.219 45.3701 162.443 44.6664 161.187 44.1564C159.93 43.6464 158.883 43.6099 158.045 44.0469C157.223 44.4772 156.523 45.404 155.945 46.8273C155.589 47.7057 155.365 48.4633 155.275 49.1001C155.201 49.7304 155.244 50.2788 155.404 50.7453C155.569 51.2008 155.846 51.5854 156.237 51.8994C156.628 52.2134 157.118 52.4899 157.707 52.7291C158.296 52.9683 158.84 53.1115 159.339 53.1586C159.849 53.2102 160.322 53.1301 160.758 52.9184C161.198 52.6956 161.611 52.3322 161.997 51.8284C162.387 51.3134 162.76 50.6167 163.117 49.7383C163.695 48.315 163.828 47.1581 163.516 46.2674ZM159.784 45.8406C159.987 45.8194 160.211 45.8584 160.455 45.9577C160.711 46.0615 160.904 46.1917 161.035 46.3484C161.17 46.4939 161.247 46.687 161.266 46.9278C161.296 47.1731 161.266 47.4715 161.175 47.8231C161.088 48.1636 160.946 48.5785 160.747 49.0678C160.558 49.5347 160.377 49.9149 160.207 50.2082C160.04 50.4903 159.869 50.7056 159.692 50.854C159.52 50.9913 159.329 51.0627 159.119 51.0684C158.921 51.0785 158.694 51.0317 158.438 50.9279C158.182 50.8241 157.987 50.6994 157.852 50.5539C157.716 50.4083 157.635 50.2263 157.607 50.0078C157.584 49.7781 157.611 49.5042 157.688 49.1859C157.781 48.8611 157.922 48.4651 158.112 47.9981C158.311 47.5089 158.497 47.1121 158.673 46.8077C158.853 46.4922 159.033 46.2546 159.215 46.0951C159.396 45.9356 159.586 45.8508 159.784 45.8406ZM158.655 49.4413C158.603 49.662 158.595 49.8052 158.6 49.8873C158.627 49.9085 158.69 49.9509 158.814 50.0013C158.984 50.0702 159.061 50.07 159.068 50.0697L159.07 50.0696C159.133 50.0113 159.227 49.8998 159.344 49.7028C159.482 49.465 159.642 49.1324 159.821 48.6917C160.01 48.226 160.134 47.8573 160.205 47.5772L160.206 47.5728C160.279 47.2906 160.283 47.1261 160.273 47.049L160.271 47.0275L160.269 47.0058C160.269 46.9994 160.268 46.994 160.267 46.9893C160.265 46.987 160.222 46.942 160.079 46.8843C160.012 46.8571 159.964 46.8446 159.932 46.8391C159.917 46.8364 159.906 46.8354 159.899 46.8351C159.892 46.8348 159.888 46.8352 159.888 46.8352C159.885 46.8381 159.88 46.8417 159.875 46.8459C159.808 46.9054 159.691 47.0401 159.542 47.3029L159.539 47.3069C159.395 47.5573 159.228 47.9085 159.039 48.3742C158.861 48.812 158.735 49.1656 158.655 49.4413ZM161.977 55.4055L166.114 45.2131L169.579 46.6196L169.561 46.7328C170.068 46.7365 170.568 46.8463 171.054 47.0436C171.687 47.3006 172.246 47.61 172.662 48.0002C173.09 48.3953 173.396 48.8827 173.523 49.4576C173.65 49.9928 173.63 50.5475 173.503 51.1005C173.388 51.606 173.203 52.1616 172.959 52.762L172.697 53.4071C173 52.7436 173.329 52.1667 173.69 51.6901C174.153 51.0793 174.698 50.592 175.339 50.2833C175.985 49.9721 176.684 49.8646 177.409 49.9394C178.004 49.994 178.627 50.1481 179.272 50.3854L180.567 47.1945L192.985 52.2348L192.974 52.2611L193.333 52.3787C193.656 52.4846 193.998 52.592 194.361 52.7009L194.37 52.7037L194.379 52.7067C194.7 52.8101 195.044 52.9297 195.41 53.065C195.799 53.1963 196.174 53.335 196.534 53.4813C197.349 53.8118 198.046 54.2043 198.578 54.6815C199.11 55.1394 199.516 55.6848 199.738 56.3246C199.971 56.9466 200.017 57.6069 199.909 58.2801C199.823 58.9049 199.634 59.5577 199.36 60.2338C199.038 61.0267 198.664 61.7094 198.222 62.2487C197.779 62.7874 197.256 63.2096 196.643 63.4686C196.034 63.726 195.383 63.8071 194.711 63.7353C194.087 63.6717 193.439 63.4943 192.774 63.2243L192.75 63.2145L191.118 67.234L186.98 65.5544L190.9 55.8976L189.012 55.1312L185.092 64.788L180.954 63.1084L184.874 53.4516L183.067 52.7184L179.148 62.3752L175.692 60.9726L175.712 60.8348C175.17 60.8355 174.632 60.7172 174.107 60.5041C173.562 60.283 173.076 60.0029 172.676 59.6474L172.665 59.6379L172.655 59.6282C172.221 59.2197 171.929 58.7129 171.777 58.1358C171.622 57.5472 171.632 56.9054 171.75 56.2449L171.751 56.2408C171.841 55.7431 171.998 55.1961 172.212 54.6042L170.485 58.8589L166.413 57.2063L168.908 51.0594C168.987 50.8646 169.031 50.7218 169.053 50.6238C168.941 50.5806 168.872 50.5724 168.84 50.5719C168.824 50.5716 168.815 50.573 168.81 50.5744C168.699 50.6383 168.638 50.7048 168.599 50.7729L166.048 57.0581L161.977 55.4055ZM167.691 50.3516C167.831 50.0715 168.05 49.8498 168.35 49.6864C168.66 49.5276 169.027 49.5339 169.449 49.7054C169.749 49.8272 169.941 50.0087 170.025 50.2498C170.124 50.4843 170.06 50.8795 169.835 51.4355L167.716 56.6558L169.934 57.5562L172.033 52.3859C172.263 51.8188 172.428 51.316 172.528 50.8775C172.629 50.4391 172.635 50.0402 172.548 49.681C172.472 49.3263 172.283 49.01 171.981 48.7322C171.691 48.4589 171.256 48.2048 170.678 47.9702C170.267 47.8032 169.865 47.7242 169.473 47.7334C169.448 47.734 169.424 47.7348 169.4 47.7358C169.034 47.7521 168.685 47.8262 168.352 47.9583L168.466 47.247L166.664 46.5158L163.279 54.855L165.498 55.7554L167.691 50.3516ZM175.861 59.8279C176.224 59.8019 176.573 59.7225 176.907 59.5899L176.796 60.3414L178.597 61.0725L183.336 49.3976L181.118 48.4972L179.818 51.6995L179.534 51.5844C179.439 51.5327 179.335 51.4842 179.224 51.4391C179.113 51.394 179.004 51.3518 178.896 51.3126C178.323 51.1043 177.795 50.9784 177.312 50.9347C176.753 50.8761 176.24 50.9593 175.773 51.1842C175.306 51.4092 174.877 51.7791 174.487 52.2941C174.097 52.8091 173.728 53.4947 173.38 54.3509C173.055 55.1514 172.84 55.8411 172.734 56.42C172.634 56.9877 172.637 57.4746 172.744 57.8807C172.851 58.2868 173.05 58.6266 173.34 58.8999C173.635 59.1621 174.016 59.388 174.483 59.5776C174.917 59.7536 175.335 59.8393 175.739 59.8346C175.78 59.833 175.82 59.8308 175.861 59.8279ZM186.176 52.9011L182.257 62.5579L184.542 63.4854L188.461 53.8285L190.863 54.8034L191.682 52.7853L184.594 49.9081L183.775 51.9262L186.176 52.9011ZM192.199 61.9119L193.15 62.2977C193.75 62.5414 194.305 62.6891 194.816 62.7407C195.337 62.7969 195.816 62.7324 196.254 62.5475C196.691 62.3625 197.09 62.0514 197.448 61.6143C197.807 61.1771 198.136 60.5916 198.433 59.8578C198.686 59.2351 198.848 58.6599 198.92 58.1321C199.008 57.5978 198.967 57.1084 198.797 56.6641C198.644 56.2132 198.35 55.8028 197.918 55.4329C197.501 55.0564 196.914 54.7148 196.158 54.4079C195.813 54.2679 195.453 54.1346 195.077 54.0079C194.717 53.8746 194.382 53.7582 194.073 53.6586C193.703 53.5475 193.353 53.4376 193.022 53.329L188.283 65.0039L190.568 65.9314L192.199 61.9119ZM176.598 56.8823L176.611 56.869C176.636 56.8441 176.651 56.825 176.66 56.8127C176.668 56.8006 176.671 56.7944 176.671 56.7939L177.747 54.1422C177.629 54.1066 177.538 54.0932 177.472 54.0911L177.462 54.0908C177.454 54.0945 177.442 54.1015 177.424 54.1135C177.369 54.1562 177.249 54.2787 177.083 54.5584L177.08 54.5624C176.918 54.833 176.723 55.2358 176.497 55.791C176.338 56.1823 176.233 56.4848 176.173 56.7075C176.149 56.8146 176.139 56.8943 176.135 56.9506C176.157 56.9617 176.183 56.9738 176.215 56.9866C176.274 57.0107 176.309 57.016 176.324 57.0171C176.384 57.0102 176.43 56.9956 176.469 56.9769C176.526 56.9496 176.561 56.9217 176.585 56.8961L176.598 56.8823ZM176.38 58.0162C176.208 58.0242 176.028 57.9899 175.839 57.9132C175.639 57.8319 175.478 57.7342 175.356 57.6199C175.245 57.5101 175.174 57.3649 175.144 57.1843C175.118 56.9925 175.137 56.7542 175.201 56.4693C175.276 56.1889 175.399 55.8374 175.571 55.4149C175.805 54.8367 176.023 54.381 176.223 54.0478C176.427 53.7034 176.631 53.456 176.835 53.3055C177.054 53.1484 177.277 53.0771 177.504 53.0916C177.747 53.0995 178.013 53.1622 178.302 53.2795C178.425 53.3291 178.545 53.3844 178.663 53.4451C178.791 53.5104 178.915 53.5734 179.033 53.6342L177.597 57.17C177.539 57.3146 177.444 57.4511 177.315 57.5797C177.2 57.7017 177.063 57.8013 176.902 57.8784C176.741 57.9556 176.567 58.0015 176.38 58.0162ZM195.407 57.5292C195.386 57.5136 195.344 57.4877 195.27 57.4577C195.214 57.435 195.161 57.4141 195.112 57.3951L194.301 59.3933L194.425 59.4437C194.483 59.4673 194.505 59.4634 194.507 59.4632C194.51 59.4629 194.541 59.4598 194.607 59.4154L194.616 59.409L194.626 59.4028C194.767 59.3115 194.959 59.1068 195.141 58.6574C195.385 58.0566 195.426 57.7082 195.409 57.545L195.407 57.5292ZM192.998 59.9438L194.521 56.1912C194.592 56.2071 194.688 56.2265 194.808 56.2494C195.011 56.2928 195.29 56.3867 195.646 56.5311C196.124 56.7252 196.377 57.0284 196.403 57.4408C196.446 57.8466 196.334 58.3775 196.068 59.0335C195.838 59.6006 195.538 60.0035 195.169 60.2423C194.811 60.4856 194.438 60.5283 194.049 60.3703L192.998 59.9438Z" fill="#31383E"/>
<defs>
<linearGradient id="paint0_linear" x1="171" y1="197.545" x2="171" y2="203" gradientUnits="userSpaceOnUse">
<stop stop-color="white"/>
<stop offset="1" stop-color="white" stop-opacity="0"/>
</linearGradient>
</defs>
</svg>
