<svg width="240" height="240" viewBox="0 0 240 240" fill="none" xmlns="http://www.w3.org/2000/svg">
<path d="M240 120C240 186.274 186.274 240 120 240C53.7258 240 0 186.274 0 120C0 53.7258 53.7258 0 120 0C186.274 0 240 53.7258 240 120Z" fill="#2B99FF"/>
<mask id="path-2-outside-1" maskUnits="userSpaceOnUse" x="58" y="178" width="27" height="27" fill="black">
<rect fill="white" x="58" y="178" width="27" height="27"/>
<path fill-rule="evenodd" clip-rule="evenodd" d="M69.9972 191C71.0843 191.001 72.1519 190.703 73.088 190.138L73.2565 190.03C74.0949 189.491 74.7861 188.743 75.2658 187.856C75.7455 186.97 75.998 185.974 75.9999 184.96C75.9536 183.363 75.3012 181.848 74.181 180.735C73.0608 179.622 71.561 179 69.9998 179C68.4386 179 66.9388 179.622 65.8186 180.735C64.6984 181.848 64.046 183.363 63.9998 184.96C64.006 185.76 64.166 186.55 64.4708 187.286C64.7755 188.023 65.219 188.69 65.7759 189.251C66.3329 189.812 66.9923 190.255 67.7166 190.555C68.4408 190.855 69.2158 191.006 69.9972 191ZM77.0056 191C75.8187 190.999 74.6581 191.35 73.6706 192.008C72.6832 192.667 71.9133 193.604 71.4583 194.7C71.0033 195.796 70.8837 197.003 71.1146 198.167C71.3455 199.331 71.9165 200.401 72.7554 201.241C73.5943 202.08 74.6634 202.652 75.8275 202.884C76.9915 203.116 78.1982 202.998 79.2949 202.544C80.3916 202.09 81.329 201.321 81.9885 200.334C82.6481 199.347 83.0001 198.187 83.0001 197C83.0008 196.212 82.8463 195.432 82.5454 194.704C82.2445 193.976 81.803 193.315 81.2463 192.758C80.6896 192.2 80.0285 191.758 79.3009 191.457C78.5732 191.155 77.7933 191 77.0056 191ZM76.1397 200.192H74.741V195.074H74.2637V194.608H76.1231V197.3L78.421 194.608H80.7466L76.1397 200.192ZM69.384 196.424C69.384 197.414 69.5797 198.394 69.9595 199.306C70.3218 200.19 70.8522 200.993 71.5204 201.668C71.8225 201.974 72.1503 202.252 72.5001 202.5H67.1477H67.1477C62.6476 202.5 59 202.5 59 200.667V200.144C59.0087 199.066 59.2263 198 59.6405 197.007C60.0547 196.014 60.6572 195.114 61.4138 194.358C62.1704 193.601 63.0662 193.004 64.05 192.6C65.0338 192.195 66.0864 191.992 67.1477 192.001H70.823C70.4736 192.476 70.1836 192.994 69.9595 193.541C69.5797 194.453 69.384 195.434 69.384 196.424Z"/>
</mask>
<path fill-rule="evenodd" clip-rule="evenodd" d="M69.9972 191C71.0843 191.001 72.1519 190.703 73.088 190.138L73.2565 190.03C74.0949 189.491 74.7861 188.743 75.2658 187.856C75.7455 186.97 75.998 185.974 75.9999 184.96C75.9536 183.363 75.3012 181.848 74.181 180.735C73.0608 179.622 71.561 179 69.9998 179C68.4386 179 66.9388 179.622 65.8186 180.735C64.6984 181.848 64.046 183.363 63.9998 184.96C64.006 185.76 64.166 186.55 64.4708 187.286C64.7755 188.023 65.219 188.69 65.7759 189.251C66.3329 189.812 66.9923 190.255 67.7166 190.555C68.4408 190.855 69.2158 191.006 69.9972 191ZM77.0056 191C75.8187 190.999 74.6581 191.35 73.6706 192.008C72.6832 192.667 71.9133 193.604 71.4583 194.7C71.0033 195.796 70.8837 197.003 71.1146 198.167C71.3455 199.331 71.9165 200.401 72.7554 201.241C73.5943 202.08 74.6634 202.652 75.8275 202.884C76.9915 203.116 78.1982 202.998 79.2949 202.544C80.3916 202.09 81.329 201.321 81.9885 200.334C82.6481 199.347 83.0001 198.187 83.0001 197C83.0008 196.212 82.8463 195.432 82.5454 194.704C82.2445 193.976 81.803 193.315 81.2463 192.758C80.6896 192.2 80.0285 191.758 79.3009 191.457C78.5732 191.155 77.7933 191 77.0056 191ZM76.1397 200.192H74.741V195.074H74.2637V194.608H76.1231V197.3L78.421 194.608H80.7466L76.1397 200.192ZM69.384 196.424C69.384 197.414 69.5797 198.394 69.9595 199.306C70.3218 200.19 70.8522 200.993 71.5204 201.668C71.8225 201.974 72.1503 202.252 72.5001 202.5H67.1477H67.1477C62.6476 202.5 59 202.5 59 200.667V200.144C59.0087 199.066 59.2263 198 59.6405 197.007C60.0547 196.014 60.6572 195.114 61.4138 194.358C62.1704 193.601 63.0662 193.004 64.05 192.6C65.0338 192.195 66.0864 191.992 67.1477 192.001H70.823C70.4736 192.476 70.1836 192.994 69.9595 193.541C69.5797 194.453 69.384 195.434 69.384 196.424Z" fill="white"/>
<path d="M73.088 190.138L73.6051 190.994L73.616 190.987L73.6268 190.98L73.088 190.138ZM69.9972 191L69.9983 190L69.989 190L69.9972 191ZM73.2565 190.03L73.7953 190.873L73.7976 190.871L73.2565 190.03ZM75.2658 187.856L74.3863 187.38L75.2658 187.856ZM75.9999 184.96L76.9999 184.962L76.9999 184.947L76.9994 184.931L75.9999 184.96ZM65.8186 180.735L65.1138 180.026V180.026L65.8186 180.735ZM63.9998 184.96L63.0002 184.931L62.9996 184.95L62.9998 184.968L63.9998 184.96ZM64.4708 187.286L63.5468 187.669L64.4708 187.286ZM65.7759 189.251L65.0663 189.956L65.0663 189.956L65.7759 189.251ZM67.7166 190.555L67.3338 191.479H67.3338L67.7166 190.555ZM73.6706 192.008L73.1157 191.177L73.1157 191.177L73.6706 192.008ZM77.0056 191L77.0047 192H77.0056L77.0056 191ZM71.1146 198.167L72.0955 197.973L71.1146 198.167ZM72.7554 201.241L73.4628 200.534L72.7554 201.241ZM81.9885 200.334L82.8199 200.89L81.9885 200.334ZM83.0001 197L82.0001 196.999V197H83.0001ZM82.5454 194.704L81.6213 195.086V195.086L82.5454 194.704ZM81.2463 192.758L81.9538 192.051V192.051L81.2463 192.758ZM79.3009 191.457L78.918 192.381L78.918 192.381L79.3009 191.457ZM74.741 200.192H73.741V201.192H74.741V200.192ZM76.1397 200.192V201.192H76.6111L76.9111 200.828L76.1397 200.192ZM74.741 195.074H75.741V194.074H74.741V195.074ZM74.2637 195.074H73.2637V196.074H74.2637V195.074ZM74.2637 194.608V193.608H73.2637V194.608H74.2637ZM76.1231 194.608H77.1231V193.608H76.1231V194.608ZM76.1231 197.3H75.1231V200.012L76.8837 197.949L76.1231 197.3ZM78.421 194.608V193.608H77.9598L77.6604 193.959L78.421 194.608ZM80.7466 194.608L81.518 195.244L82.8681 193.608H80.7466V194.608ZM69.9595 199.306L70.8848 198.927L70.8826 198.921L69.9595 199.306ZM71.5204 201.668L72.232 200.965L72.2313 200.965L71.5204 201.668ZM72.5001 202.5V203.5H75.6408L73.0783 201.684L72.5001 202.5ZM59 200.144L58 200.136V200.144H59ZM59.6405 197.007L60.5634 197.392H60.5634L59.6405 197.007ZM61.4138 194.358L62.1208 195.065H62.1208L61.4138 194.358ZM67.1477 192.001L67.1393 193.001H67.1477V192.001ZM70.823 192.001L71.6288 192.593L72.7988 191.001H70.823V192.001ZM69.9595 193.541L70.8827 193.926L70.8851 193.92L69.9595 193.541ZM72.5709 189.282C71.7901 189.754 70.9017 190.001 69.9983 190L69.996 192C71.267 192.001 72.5136 191.653 73.6051 190.994L72.5709 189.282ZM72.7178 189.188L72.5493 189.295L73.6268 190.98L73.7953 190.873L72.7178 189.188ZM74.3863 187.38C73.9859 188.12 73.4104 188.742 72.7154 189.189L73.7976 190.871C74.7794 190.239 75.5863 189.365 76.1453 188.332L74.3863 187.38ZM74.9999 184.958C74.9983 185.807 74.7868 186.64 74.3863 187.38L76.1453 188.332C76.7042 187.299 76.9977 186.14 76.9999 184.962L74.9999 184.958ZM73.4763 181.445C74.4122 182.374 74.9614 183.645 75.0003 184.989L76.9994 184.931C76.9459 183.082 76.1902 181.321 74.8858 180.026L73.4763 181.445ZM69.9998 180C71.2936 180 72.5411 180.516 73.4763 181.445L74.8858 180.026C73.5806 178.729 71.8284 178 69.9998 178V180ZM66.5233 181.445C67.4586 180.516 68.706 180 69.9998 180V178C68.1712 178 66.419 178.729 65.1138 180.026L66.5233 181.445ZM64.9993 184.989C65.0382 183.645 65.5874 182.374 66.5233 181.445L65.1138 180.026C63.8094 181.321 63.0537 183.082 63.0002 184.931L64.9993 184.989ZM65.3947 186.904C65.1393 186.287 65.0049 185.624 64.9997 184.952L62.9998 184.968C63.007 185.896 63.1927 186.813 63.5468 187.669L65.3947 186.904ZM66.4855 188.546C66.0211 188.079 65.6501 187.521 65.3947 186.904L63.5468 187.669C63.9009 188.524 64.4169 189.302 65.0663 189.956L66.4855 188.546ZM68.0993 189.631C67.4984 189.382 66.9499 189.014 66.4855 188.546L65.0663 189.956C65.7158 190.61 66.4861 191.128 67.3338 191.479L68.0993 189.631ZM69.989 190C69.3422 190.005 68.7001 189.88 68.0993 189.631L67.3338 191.479C68.1816 191.83 69.0894 192.007 70.0054 192L69.989 190ZM74.2255 192.84C75.0484 192.292 76.0156 191.999 77.0047 192L77.0065 190C75.6218 189.999 74.2677 190.408 73.1157 191.177L74.2255 192.84ZM72.3819 195.083C72.7611 194.17 73.4027 193.389 74.2255 192.84L73.1157 191.177C71.9637 191.945 71.0655 193.038 70.5347 194.317L72.3819 195.083ZM72.0955 197.973C71.9031 197.002 72.0028 195.997 72.3819 195.083L70.5347 194.317C70.0039 195.596 69.8644 197.003 70.1337 198.362L72.0955 197.973ZM73.4628 200.534C72.7638 199.834 72.2879 198.943 72.0955 197.973L70.1337 198.362C70.4031 199.72 71.0693 200.968 72.048 201.948L73.4628 200.534ZM76.0229 201.904C75.0528 201.71 74.1619 201.234 73.4628 200.534L72.048 201.948C73.0267 202.927 74.274 203.595 75.632 203.865L76.0229 201.904ZM78.9124 201.62C77.9985 201.998 76.9929 202.097 76.0229 201.904L75.632 203.865C76.9901 204.136 78.3979 203.998 79.6774 203.468L78.9124 201.62ZM81.1571 199.778C80.6075 200.601 79.8263 201.242 78.9124 201.62L79.6774 203.468C80.9568 202.938 82.0505 202.041 82.8199 200.89L81.1571 199.778ZM82.0001 197C82.0001 197.989 81.7067 198.956 81.1571 199.778L82.8199 200.89C83.5894 199.738 84.0001 198.385 84.0001 197H82.0001ZM81.6213 195.086C81.872 195.693 82.0007 196.343 82.0001 196.999L84.0001 197.001C84.001 196.082 83.8207 195.172 83.4695 194.322L81.6213 195.086ZM80.5389 193.464C81.0027 193.929 81.3705 194.48 81.6213 195.086L83.4695 194.322C83.1184 193.473 82.6033 192.701 81.9538 192.051L80.5389 193.464ZM78.918 192.381C79.5243 192.632 80.075 193 80.5389 193.464L81.9538 192.051C81.3042 191.401 80.5328 190.885 79.6838 190.533L78.918 192.381ZM77.0056 192C77.6619 192 78.3117 192.129 78.918 192.381L79.6838 190.533C78.8347 190.181 77.9247 190 77.0056 190L77.0056 192ZM74.741 201.192H76.1397V199.192H74.741V201.192ZM73.741 195.074V200.192H75.741V195.074H73.741ZM74.2637 196.074H74.741V194.074H74.2637V196.074ZM73.2637 194.608V195.074H75.2637V194.608H73.2637ZM76.1231 193.608H74.2637V195.608H76.1231V193.608ZM77.1231 197.3V194.608H75.1231V197.3H77.1231ZM77.6604 193.959L75.3625 196.651L76.8837 197.949L79.1816 195.257L77.6604 193.959ZM80.7466 193.608H78.421V195.608H80.7466V193.608ZM76.9111 200.828L81.518 195.244L79.9753 193.971L75.3684 199.555L76.9111 200.828ZM70.8826 198.921C70.5537 198.132 70.384 197.282 70.384 196.424H68.384C68.384 197.546 68.6057 198.656 69.0364 199.69L70.8826 198.921ZM72.2313 200.965C71.6556 200.383 71.1978 199.69 70.8848 198.927L69.0342 199.685C69.4458 200.69 70.0488 201.602 70.8096 202.371L72.2313 200.965ZM73.0783 201.684C72.7763 201.47 72.4931 201.23 72.232 200.965L70.8088 202.371C71.1519 202.718 71.5243 203.034 71.9219 203.316L73.0783 201.684ZM67.1477 203.5H72.5001V201.5H67.1477V203.5ZM67.1477 203.5H67.1477V201.5H67.1477V203.5ZM58 200.667C58 201.54 58.4702 202.175 59.11 202.575C59.696 202.941 60.454 203.138 61.2327 203.259C62.8015 203.503 64.9297 203.5 67.1477 203.5V201.5C64.8656 201.5 62.9199 201.498 61.5399 201.283C60.8443 201.175 60.409 201.028 60.1705 200.879C59.9858 200.764 60 200.711 60 200.667H58ZM58 200.144V200.667H60V200.144H58ZM58.7176 196.622C58.2534 197.734 58.0098 198.928 58 200.136L60 200.152C60.0076 199.203 60.1992 198.265 60.5634 197.392L58.7176 196.622ZM60.7069 193.65C59.8574 194.499 59.1817 195.509 58.7176 196.622L60.5634 197.392C60.9276 196.519 61.457 195.728 62.1208 195.065L60.7069 193.65ZM63.6698 191.675C62.5631 192.13 61.5564 192.801 60.7069 193.65L62.1208 195.065C62.7844 194.402 63.5693 193.878 64.4302 193.525L63.6698 191.675ZM67.1561 191.001C65.9613 190.991 64.7766 191.22 63.6698 191.675L64.4302 193.525C65.2911 193.171 66.2116 192.993 67.1393 193L67.1561 191.001ZM70.823 191.001H67.1477V193.001H70.823V191.001ZM70.8851 193.92C71.0783 193.448 71.3281 193.002 71.6288 192.593L70.0172 191.408C69.6191 191.95 69.2889 192.539 69.0339 193.163L70.8851 193.92ZM70.384 196.424C70.384 195.565 70.5537 194.716 70.8826 193.926L69.0364 193.157C68.6057 194.191 68.384 195.302 68.384 196.424H70.384Z" fill="#31383E" mask="url(#path-2-outside-1)"/>
<mask id="path-4-outside-2" maskUnits="userSpaceOnUse" x="82.2944" y="20.7013" width="120.122" height="50.118" fill="black">
<rect fill="white" x="82.2944" y="20.7013" width="120.122" height="50.118"/>
<path d="M93.4405 30.6452C93.7524 29.7901 93.9878 29.0663 94.1465 28.4739C94.326 27.8042 94.4323 27.2529 94.4654 26.8201C94.502 26.3744 94.4741 26.0149 94.3817 25.7417C94.3021 25.4719 94.1697 25.2708 93.9843 25.1383C93.8153 24.9964 93.6149 24.8943 93.383 24.8322C93.2027 24.7839 93.0014 24.7369 92.779 24.6911C92.5729 24.6359 92.3716 24.5888 92.1749 24.5499C91.9397 24.5007 91.7108 24.4532 91.4884 24.4074L87.6431 34.9721C87.8328 35.0368 88.0354 35.1049 88.2509 35.1764C88.4278 35.2376 88.6175 35.3022 88.8201 35.3703C89.0391 35.429 89.2516 35.4859 89.4576 35.5411C89.7538 35.6205 90.0549 35.6046 90.3608 35.4933C90.6796 35.3854 90.9989 35.1466 91.3189 34.7768C91.6551 34.3976 91.9954 33.8745 92.3398 33.2076C92.7005 32.5312 93.0674 31.6771 93.4405 30.6452ZM95.2154 30.9758C94.7001 32.3837 94.2023 33.5203 93.722 34.3855C93.2452 35.2378 92.7493 35.8779 92.2343 36.3059C91.7322 36.7373 91.196 36.987 90.6256 37.055C90.0716 37.1136 89.4597 37.0532 88.79 36.8737C88.4165 36.7737 88.0318 36.6637 87.636 36.5438C87.2497 36.4403 86.8925 36.3308 86.5645 36.2153C86.1851 36.086 85.8249 35.9619 85.4841 35.843L90.286 22.6358C90.6406 22.7032 91.0017 22.7724 91.3692 22.8432C91.6852 22.9003 92.0235 22.9771 92.3841 23.0738C92.7611 23.161 93.117 23.2494 93.4518 23.3391C94.0056 23.4875 94.4907 23.6865 94.9069 23.9361C95.3266 24.1728 95.6444 24.5064 95.8604 24.937C96.0926 25.3581 96.2096 25.9002 96.2114 26.5632C96.2295 27.2169 96.1057 28.0395 95.84 29.0312C95.7606 29.3274 95.6649 29.6331 95.5529 29.9481C95.4537 30.2667 95.3412 30.6092 95.2154 30.9758Z"/>
<path d="M96.8136 34.1579C97.1591 33.229 97.5328 32.4526 97.9347 31.8287C98.3365 31.2047 98.7811 30.7303 99.2685 30.4054C99.7593 30.0676 100.303 29.8681 100.899 29.807C101.495 29.7459 102.16 29.8136 102.894 30.0103C103.075 30.0587 103.271 30.125 103.483 30.2095C103.708 30.2973 103.924 30.3899 104.133 30.4872C104.355 30.588 104.561 30.6917 104.754 30.7984C104.946 30.9052 105.112 31.005 105.253 31.0979L102.828 37.6745C102.822 37.7002 102.796 37.7693 102.752 37.8818C102.712 37.9814 102.667 38.1213 102.619 38.3016C102.488 38.791 102.673 39.103 103.176 39.2376L102.743 40.4674L102.376 40.3691C101.963 40.2586 101.635 40.0671 101.391 39.7946C101.159 39.5255 101.041 39.1693 101.035 38.7261C100.674 39.0435 100.246 39.274 99.7524 39.4177C99.2618 39.5485 98.6817 39.5242 98.012 39.3448C97.1105 39.1032 96.5523 38.6362 96.3376 37.9437C96.1228 37.2512 96.1621 36.3575 96.4554 35.2628C96.5521 34.9022 96.6715 34.5339 96.8136 34.1579ZM98.8097 38.0677C99.1446 38.1575 99.4499 38.1771 99.7256 38.1268C100.005 38.0636 100.254 37.9578 100.473 37.8095C100.705 37.6646 100.899 37.4819 101.055 37.2614C101.211 37.0408 101.336 36.8052 101.431 36.5545L103.216 31.6701C103.094 31.6098 102.951 31.5508 102.787 31.4931C102.623 31.4353 102.425 31.3754 102.193 31.3133C100.403 30.8336 99.0386 32.3453 98.0999 35.8484C97.9274 36.4924 97.8898 36.993 97.9873 37.3504C98.0848 37.7079 98.3589 37.9469 98.8097 38.0677Z"/>
<path d="M109.928 33.5928L107.98 38.9305C107.939 39.0301 107.895 39.1426 107.848 39.2679C107.817 39.3838 107.798 39.4547 107.791 39.4804C107.767 39.5706 107.752 39.677 107.747 39.7999C107.745 39.9098 107.764 40.0185 107.804 40.1259C107.845 40.2333 107.908 40.333 107.993 40.425C108.096 40.5076 108.237 40.573 108.417 40.6213C108.688 40.6938 108.937 40.74 109.167 40.7601C109.409 40.7835 109.606 40.7949 109.758 40.7943L109.28 42.1155C109.141 42.1196 108.903 42.1043 108.567 42.0696C108.232 42.0348 107.89 41.9708 107.542 41.8777C106.808 41.681 106.34 41.3416 106.138 40.8595C105.939 40.3646 105.924 39.8015 106.093 39.1705C106.118 39.0803 106.155 38.9661 106.206 38.8279C106.26 38.6768 106.309 38.545 106.353 38.4326L108.286 33.1528L107.03 32.8163L107.534 31.3985L108.79 31.735L109.623 29.4737L111.265 29.9137L110.432 32.175L112.673 32.7754L112.169 34.1933L109.928 33.5928Z"/>
<path d="M112.642 38.3991C112.988 37.4702 113.361 36.6938 113.763 36.0699C114.165 35.4459 114.609 34.9715 115.097 34.6466C115.588 34.3088 116.131 34.1093 116.727 34.0482C117.323 33.9871 117.989 34.0548 118.723 34.2515C118.903 34.2999 119.099 34.3662 119.311 34.4507C119.536 34.5385 119.753 34.6311 119.961 34.7284C120.183 34.8292 120.39 34.9329 120.582 35.0396C120.774 35.1464 120.941 35.2462 121.082 35.3391L118.657 41.9156C118.65 41.9414 118.624 42.0105 118.581 42.123C118.54 42.2226 118.496 42.3625 118.447 42.5428C118.316 43.0322 118.502 43.3442 119.004 43.4788L118.571 44.7086L118.204 44.6103C117.792 44.4998 117.464 44.3083 117.219 44.0358C116.987 43.7667 116.869 43.4105 116.863 42.9673C116.502 43.2847 116.075 43.5152 115.581 43.6589C115.09 43.7897 114.51 43.7654 113.84 43.586C112.939 43.3444 112.381 42.8774 112.166 42.1849C111.951 41.4924 111.99 40.5987 112.284 39.504C112.38 39.1434 112.5 38.7751 112.642 38.3991ZM114.638 42.3089C114.973 42.3986 115.278 42.4183 115.554 42.368C115.833 42.3048 116.082 42.199 116.302 42.0507C116.534 41.9058 116.728 41.7231 116.883 41.5026C117.039 41.282 117.164 41.0464 117.259 40.7957L119.044 35.9113C118.922 35.851 118.779 35.792 118.615 35.7343C118.451 35.6765 118.253 35.6166 118.022 35.5545C116.231 35.0748 114.867 36.5865 113.928 40.0896C113.756 40.7335 113.718 41.2342 113.816 41.5916C113.913 41.949 114.187 42.1881 114.638 42.3089Z"/>
<path d="M133.443 48.6935L137.737 36.8409L132.94 43.6929L131.336 43.2633L131.96 35.2932L127.666 47.1457L126.121 46.7316L130.923 33.5244L133.647 34.2543L132.933 41.4757L137.182 35.2015L139.809 35.9055L135.007 49.1127L133.443 48.6935Z"/>
<path d="M142.278 38.4304L142.898 36.7332L144.733 37.2249L144.113 38.9222L142.278 38.4304ZM138.193 49.9662L141.612 40.5296L143.254 40.9696L139.835 50.4062L138.193 49.9662Z"/>
<path d="M144.211 46.7545C144.557 45.8257 144.922 45.054 145.308 44.4395C145.706 43.8284 146.149 43.3604 146.637 43.0355C147.137 42.714 147.683 42.5292 148.276 42.4809C148.882 42.4361 149.564 42.5155 150.324 42.7191C150.814 42.8503 151.272 43.0213 151.698 43.2322C152.138 43.4466 152.537 43.6571 152.896 43.8637L149.819 52.2533C149.463 53.2209 149.118 53.9703 148.782 54.5015C148.446 55.0327 148.084 55.4051 147.696 55.6185C147.307 55.8318 146.869 55.9215 146.382 55.8874C145.907 55.8568 145.347 55.7552 144.703 55.5827C144.407 55.5033 144.055 55.3745 143.647 55.1962C143.236 55.0308 142.878 54.8728 142.573 54.7221L143.092 53.3288C143.226 53.3925 143.379 53.4678 143.549 53.5548C143.732 53.6452 143.923 53.7309 144.122 53.8118C144.321 53.8928 144.522 53.9673 144.724 54.0354C144.936 54.1198 145.126 54.1845 145.294 54.2294C145.616 54.3156 145.901 54.3576 146.15 54.3553C146.409 54.3694 146.639 54.307 146.842 54.1681C147.058 54.0326 147.264 53.8048 147.46 53.4847C147.653 53.1775 147.851 52.7474 148.054 52.1945L148.314 51.4567C147.945 51.7027 147.533 51.8753 147.078 51.9744C146.627 52.0606 146.112 52.026 145.532 51.8707C144.644 51.6326 144.066 51.1879 143.798 50.5365C143.548 49.8758 143.577 48.9658 143.888 47.8067C143.933 47.6393 143.978 47.4719 144.023 47.3044C144.071 47.1241 144.134 46.9408 144.211 46.7545ZM146.33 50.5937C146.716 50.6972 147.065 50.7079 147.377 50.6259C147.702 50.5472 147.987 50.4097 148.233 50.2133C148.492 50.0204 148.711 49.7961 148.89 49.5403C149.072 49.2717 149.212 49.0056 149.311 48.7421L150.872 44.4603C150.737 44.3966 150.569 44.3307 150.366 44.2626C150.167 44.1816 149.919 44.1014 149.623 44.0221C149.159 43.8978 148.749 43.8845 148.391 43.9819C148.037 44.0666 147.711 44.2551 147.412 44.5476C147.112 44.8401 146.836 45.2285 146.582 45.7126C146.331 46.1838 146.084 46.7456 145.84 47.3981C145.783 47.5621 145.727 47.7196 145.672 47.8707C145.634 48.0124 145.596 48.154 145.558 48.2957C145.379 48.9654 145.343 49.4871 145.45 49.8609C145.573 50.2252 145.866 50.4694 146.33 50.5937Z"/>
<path d="M160.002 47.238C159.845 47.1545 159.661 47.0706 159.449 46.9862C159.253 46.8923 159.065 46.8212 158.885 46.7729C158.563 46.6866 158.262 46.7026 157.982 46.8208C157.705 46.9261 157.453 47.0933 157.226 47.3223C156.999 47.5514 156.796 47.8212 156.616 48.1319C156.449 48.4461 156.309 48.7607 156.197 49.0758L154.305 54.2835L152.663 53.8435L156.082 44.4068L157.434 44.7691L157.152 45.9772C157.513 45.6599 157.893 45.4237 158.294 45.2687C158.711 45.1043 159.151 45.0843 159.614 45.2085C159.846 45.2706 160.03 45.3335 160.164 45.3972C160.312 45.4644 160.453 45.5299 160.588 45.5936L160.002 47.238Z"/>
<path d="M160.353 51.1833C160.699 50.2544 161.073 49.478 161.474 48.8541C161.876 48.2302 162.321 47.7558 162.808 47.4308C163.299 47.093 163.843 46.8936 164.439 46.8324C165.035 46.7713 165.7 46.8391 166.434 47.0358C166.614 47.0841 166.811 47.1505 167.023 47.2349C167.248 47.3228 167.464 47.4154 167.673 47.5127C167.894 47.6134 168.101 47.7172 168.293 47.8239C168.486 47.9306 168.652 48.0304 168.793 48.1234L166.368 54.6999C166.361 54.7256 166.336 54.7948 166.292 54.9072C166.251 55.0068 166.207 55.1467 166.159 55.3271C166.028 55.8165 166.213 56.1284 166.715 56.263L166.282 57.4929L165.915 57.3945C165.503 57.2841 165.175 57.0926 164.931 56.82C164.699 56.5509 164.58 56.1948 164.575 55.7516C164.214 56.0689 163.786 56.2995 163.292 56.4432C162.802 56.574 162.222 56.5497 161.552 56.3702C160.65 56.1287 160.092 55.6616 159.877 54.9691C159.663 54.2766 159.702 53.383 159.995 52.2883C160.092 51.9277 160.211 51.5593 160.353 51.1833ZM162.35 55.0932C162.684 55.1829 162.99 55.2026 163.265 55.1522C163.545 55.089 163.794 54.9832 164.013 54.8349C164.245 54.6901 164.439 54.5073 164.595 54.2868C164.75 54.0663 164.876 53.8306 164.97 53.58L166.755 48.6955C166.634 48.6353 166.491 48.5763 166.327 48.5185C166.163 48.4608 165.965 48.4008 165.733 48.3387C163.943 47.859 162.578 49.3708 161.64 52.8738C161.467 53.5178 161.43 54.0185 161.527 54.3759C161.625 54.7333 161.899 54.9724 162.35 55.0932Z"/>
<path d="M173.467 50.6182L171.52 55.956C171.479 56.0555 171.435 56.168 171.388 56.2933C171.357 56.4093 171.338 56.4801 171.331 56.5058C171.307 56.596 171.292 56.7025 171.287 56.8253C171.285 56.9352 171.304 57.0439 171.344 57.1513C171.384 57.2587 171.447 57.3584 171.533 57.4504C171.635 57.533 171.777 57.5984 171.957 57.6468C172.227 57.7192 172.477 57.7655 172.707 57.7855C172.949 57.809 173.146 57.8204 173.298 57.8197L172.82 59.1409C172.68 59.1451 172.443 59.1298 172.107 59.095C171.771 59.0602 171.43 58.9963 171.082 58.9031C170.348 58.7064 169.88 58.367 169.678 57.8849C169.479 57.39 169.464 56.827 169.633 56.1959C169.657 56.1058 169.695 55.9916 169.746 55.8534C169.8 55.7023 169.849 55.5705 169.893 55.458L171.825 50.1782L170.57 49.8418L171.074 48.4239L172.33 48.7604L173.163 46.4991L174.805 46.9391L173.972 49.2004L176.213 49.8009L175.708 51.2187L173.467 50.6182Z"/>
<path d="M179.009 48.2726L179.63 46.5754L181.465 47.0671L180.844 48.7644L179.009 48.2726ZM174.924 59.8084L178.343 50.3718L179.985 50.8118L176.566 60.2484L174.924 59.8084Z"/>
<path d="M188.81 56.9862C188.237 59.1241 187.486 60.6138 186.557 61.4553C185.631 62.2838 184.44 62.5031 182.985 62.1132C182.47 61.9751 182.022 61.793 181.64 61.5666C181.276 61.3308 180.991 61.0269 180.787 60.6547C180.587 60.2697 180.477 59.8054 180.457 59.2617C180.45 58.7214 180.548 58.0714 180.751 57.3115C181.31 55.2251 182.04 53.7917 182.939 53.0112C183.855 52.2213 185.047 52.023 186.515 52.4164C188.704 53.0031 189.469 54.5263 188.81 56.9862ZM186.704 57.892C186.877 57.4 187.016 56.9609 187.119 56.5745C187.354 55.6987 187.389 55.0525 187.225 54.6357C187.064 54.2061 186.668 53.9067 186.037 53.7376C185.65 53.6341 185.304 53.6105 185 53.6668C184.695 53.7231 184.412 53.8753 184.153 54.1232C183.909 54.3616 183.672 54.7053 183.441 55.1542C183.211 55.6032 182.972 56.1603 182.724 56.8256C182.582 57.2016 182.468 57.5506 182.382 57.8726C182.147 58.7484 182.113 59.4157 182.28 59.8745C182.451 60.3205 182.845 60.6263 183.463 60.7919C184.184 60.9852 184.791 60.8579 185.284 60.4102C185.793 59.953 186.266 59.1136 186.704 57.892Z"/>
<path d="M189.508 63.716L192.926 54.2793L194.279 54.6417L193.998 55.7673C194.385 55.4569 194.807 55.2457 195.265 55.1337C195.726 55.0089 196.253 55.0258 196.846 55.1845C197.85 55.4537 198.474 55.883 198.716 56.4725C198.962 57.0491 198.966 57.7817 198.728 58.6704C198.693 58.7992 198.65 58.9327 198.6 59.0709C198.562 59.2126 198.517 59.3525 198.466 59.4907L196.288 65.5329L194.646 65.0929L196.824 59.0508C196.865 58.9512 196.91 58.8323 196.961 58.6941C197.016 58.543 197.055 58.4223 197.079 58.3322C197.196 57.8943 197.195 57.5142 197.074 57.192C196.957 56.8569 196.615 56.6134 196.048 56.4616C195.687 56.365 195.349 56.3641 195.034 56.4591C194.732 56.5575 194.456 56.7113 194.206 56.9206C193.97 57.1333 193.764 57.3886 193.587 57.6864C193.411 57.9842 193.27 58.2778 193.165 58.5671L191.15 64.156L189.508 63.716Z"/>
</mask>
<path d="M93.4405 30.6452C93.7524 29.7901 93.9878 29.0663 94.1465 28.4739C94.326 27.8042 94.4323 27.2529 94.4654 26.8201C94.502 26.3744 94.4741 26.0149 94.3817 25.7417C94.3021 25.4719 94.1697 25.2708 93.9843 25.1383C93.8153 24.9964 93.6149 24.8943 93.383 24.8322C93.2027 24.7839 93.0014 24.7369 92.779 24.6911C92.5729 24.6359 92.3716 24.5888 92.1749 24.5499C91.9397 24.5007 91.7108 24.4532 91.4884 24.4074L87.6431 34.9721C87.8328 35.0368 88.0354 35.1049 88.2509 35.1764C88.4278 35.2376 88.6175 35.3022 88.8201 35.3703C89.0391 35.429 89.2516 35.4859 89.4576 35.5411C89.7538 35.6205 90.0549 35.6046 90.3608 35.4933C90.6796 35.3854 90.9989 35.1466 91.3189 34.7768C91.6551 34.3976 91.9954 33.8745 92.3398 33.2076C92.7005 32.5312 93.0674 31.6771 93.4405 30.6452ZM95.2154 30.9758C94.7001 32.3837 94.2023 33.5203 93.722 34.3855C93.2452 35.2378 92.7493 35.8779 92.2343 36.3059C91.7322 36.7373 91.196 36.987 90.6256 37.055C90.0716 37.1136 89.4597 37.0532 88.79 36.8737C88.4165 36.7737 88.0318 36.6637 87.636 36.5438C87.2497 36.4403 86.8925 36.3308 86.5645 36.2153C86.1851 36.086 85.8249 35.9619 85.4841 35.843L90.286 22.6358C90.6406 22.7032 91.0017 22.7724 91.3692 22.8432C91.6852 22.9003 92.0235 22.9771 92.3841 23.0738C92.7611 23.161 93.117 23.2494 93.4518 23.3391C94.0056 23.4875 94.4907 23.6865 94.9069 23.9361C95.3266 24.1728 95.6444 24.5064 95.8604 24.937C96.0926 25.3581 96.2096 25.9002 96.2114 26.5632C96.2295 27.2169 96.1057 28.0395 95.84 29.0312C95.7606 29.3274 95.6649 29.6331 95.5529 29.9481C95.4537 30.2667 95.3412 30.6092 95.2154 30.9758Z" fill="white"/>
<path d="M96.8136 34.1579C97.1591 33.229 97.5328 32.4526 97.9347 31.8287C98.3365 31.2047 98.7811 30.7303 99.2685 30.4054C99.7593 30.0676 100.303 29.8681 100.899 29.807C101.495 29.7459 102.16 29.8136 102.894 30.0103C103.075 30.0587 103.271 30.125 103.483 30.2095C103.708 30.2973 103.924 30.3899 104.133 30.4872C104.355 30.588 104.561 30.6917 104.754 30.7984C104.946 30.9052 105.112 31.005 105.253 31.0979L102.828 37.6745C102.822 37.7002 102.796 37.7693 102.752 37.8818C102.712 37.9814 102.667 38.1213 102.619 38.3016C102.488 38.791 102.673 39.103 103.176 39.2376L102.743 40.4674L102.376 40.3691C101.963 40.2586 101.635 40.0671 101.391 39.7946C101.159 39.5255 101.041 39.1693 101.035 38.7261C100.674 39.0435 100.246 39.274 99.7524 39.4177C99.2618 39.5485 98.6817 39.5242 98.012 39.3448C97.1105 39.1032 96.5523 38.6362 96.3376 37.9437C96.1228 37.2512 96.1621 36.3575 96.4554 35.2628C96.5521 34.9022 96.6715 34.5339 96.8136 34.1579ZM98.8097 38.0677C99.1446 38.1575 99.4499 38.1771 99.7256 38.1268C100.005 38.0636 100.254 37.9578 100.473 37.8095C100.705 37.6646 100.899 37.4819 101.055 37.2614C101.211 37.0408 101.336 36.8052 101.431 36.5545L103.216 31.6701C103.094 31.6098 102.951 31.5508 102.787 31.4931C102.623 31.4353 102.425 31.3754 102.193 31.3133C100.403 30.8336 99.0386 32.3453 98.0999 35.8484C97.9274 36.4924 97.8898 36.993 97.9873 37.3504C98.0848 37.7079 98.3589 37.9469 98.8097 38.0677Z" fill="white"/>
<path d="M109.928 33.5928L107.98 38.9305C107.939 39.0301 107.895 39.1426 107.848 39.2679C107.817 39.3838 107.798 39.4547 107.791 39.4804C107.767 39.5706 107.752 39.677 107.747 39.7999C107.745 39.9098 107.764 40.0185 107.804 40.1259C107.845 40.2333 107.908 40.333 107.993 40.425C108.096 40.5076 108.237 40.573 108.417 40.6213C108.688 40.6938 108.937 40.74 109.167 40.7601C109.409 40.7835 109.606 40.7949 109.758 40.7943L109.28 42.1155C109.141 42.1196 108.903 42.1043 108.567 42.0696C108.232 42.0348 107.89 41.9708 107.542 41.8777C106.808 41.681 106.34 41.3416 106.138 40.8595C105.939 40.3646 105.924 39.8015 106.093 39.1705C106.118 39.0803 106.155 38.9661 106.206 38.8279C106.26 38.6768 106.309 38.545 106.353 38.4326L108.286 33.1528L107.03 32.8163L107.534 31.3985L108.79 31.735L109.623 29.4737L111.265 29.9137L110.432 32.175L112.673 32.7754L112.169 34.1933L109.928 33.5928Z" fill="white"/>
<path d="M112.642 38.3991C112.988 37.4702 113.361 36.6938 113.763 36.0699C114.165 35.4459 114.609 34.9715 115.097 34.6466C115.588 34.3088 116.131 34.1093 116.727 34.0482C117.323 33.9871 117.989 34.0548 118.723 34.2515C118.903 34.2999 119.099 34.3662 119.311 34.4507C119.536 34.5385 119.753 34.6311 119.961 34.7284C120.183 34.8292 120.39 34.9329 120.582 35.0396C120.774 35.1464 120.941 35.2462 121.082 35.3391L118.657 41.9156C118.65 41.9414 118.624 42.0105 118.581 42.123C118.54 42.2226 118.496 42.3625 118.447 42.5428C118.316 43.0322 118.502 43.3442 119.004 43.4788L118.571 44.7086L118.204 44.6103C117.792 44.4998 117.464 44.3083 117.219 44.0358C116.987 43.7667 116.869 43.4105 116.863 42.9673C116.502 43.2847 116.075 43.5152 115.581 43.6589C115.09 43.7897 114.51 43.7654 113.84 43.586C112.939 43.3444 112.381 42.8774 112.166 42.1849C111.951 41.4924 111.99 40.5987 112.284 39.504C112.38 39.1434 112.5 38.7751 112.642 38.3991ZM114.638 42.3089C114.973 42.3986 115.278 42.4183 115.554 42.368C115.833 42.3048 116.082 42.199 116.302 42.0507C116.534 41.9058 116.728 41.7231 116.883 41.5026C117.039 41.282 117.164 41.0464 117.259 40.7957L119.044 35.9113C118.922 35.851 118.779 35.792 118.615 35.7343C118.451 35.6765 118.253 35.6166 118.022 35.5545C116.231 35.0748 114.867 36.5865 113.928 40.0896C113.756 40.7335 113.718 41.2342 113.816 41.5916C113.913 41.949 114.187 42.1881 114.638 42.3089Z" fill="white"/>
<path d="M133.443 48.6935L137.737 36.8409L132.94 43.6929L131.336 43.2633L131.96 35.2932L127.666 47.1457L126.121 46.7316L130.923 33.5244L133.647 34.2543L132.933 41.4757L137.182 35.2015L139.809 35.9055L135.007 49.1127L133.443 48.6935Z" fill="white"/>
<path d="M142.278 38.4304L142.898 36.7332L144.733 37.2249L144.113 38.9222L142.278 38.4304ZM138.193 49.9662L141.612 40.5296L143.254 40.9696L139.835 50.4062L138.193 49.9662Z" fill="white"/>
<path d="M144.211 46.7545C144.557 45.8257 144.922 45.054 145.308 44.4395C145.706 43.8284 146.149 43.3604 146.637 43.0355C147.137 42.714 147.683 42.5292 148.276 42.4809C148.882 42.4361 149.564 42.5155 150.324 42.7191C150.814 42.8503 151.272 43.0213 151.698 43.2322C152.138 43.4466 152.537 43.6571 152.896 43.8637L149.819 52.2533C149.463 53.2209 149.118 53.9703 148.782 54.5015C148.446 55.0327 148.084 55.4051 147.696 55.6185C147.307 55.8318 146.869 55.9215 146.382 55.8874C145.907 55.8568 145.347 55.7552 144.703 55.5827C144.407 55.5033 144.055 55.3745 143.647 55.1962C143.236 55.0308 142.878 54.8728 142.573 54.7221L143.092 53.3288C143.226 53.3925 143.379 53.4678 143.549 53.5548C143.732 53.6452 143.923 53.7309 144.122 53.8118C144.321 53.8928 144.522 53.9673 144.724 54.0354C144.936 54.1198 145.126 54.1845 145.294 54.2294C145.616 54.3156 145.901 54.3576 146.15 54.3553C146.409 54.3694 146.639 54.307 146.842 54.1681C147.058 54.0326 147.264 53.8048 147.46 53.4847C147.653 53.1775 147.851 52.7474 148.054 52.1945L148.314 51.4567C147.945 51.7027 147.533 51.8753 147.078 51.9744C146.627 52.0606 146.112 52.026 145.532 51.8707C144.644 51.6326 144.066 51.1879 143.798 50.5365C143.548 49.8758 143.577 48.9658 143.888 47.8067C143.933 47.6393 143.978 47.4719 144.023 47.3044C144.071 47.1241 144.134 46.9408 144.211 46.7545ZM146.33 50.5937C146.716 50.6972 147.065 50.7079 147.377 50.6259C147.702 50.5472 147.987 50.4097 148.233 50.2133C148.492 50.0204 148.711 49.7961 148.89 49.5403C149.072 49.2717 149.212 49.0056 149.311 48.7421L150.872 44.4603C150.737 44.3966 150.569 44.3307 150.366 44.2626C150.167 44.1816 149.919 44.1014 149.623 44.0221C149.159 43.8978 148.749 43.8845 148.391 43.9819C148.037 44.0666 147.711 44.2551 147.412 44.5476C147.112 44.8401 146.836 45.2285 146.582 45.7126C146.331 46.1838 146.084 46.7456 145.84 47.3981C145.783 47.5621 145.727 47.7196 145.672 47.8707C145.634 48.0124 145.596 48.154 145.558 48.2957C145.379 48.9654 145.343 49.4871 145.45 49.8609C145.573 50.2252 145.866 50.4694 146.33 50.5937Z" fill="white"/>
<path d="M160.002 47.238C159.845 47.1545 159.661 47.0706 159.449 46.9862C159.253 46.8923 159.065 46.8212 158.885 46.7729C158.563 46.6866 158.262 46.7026 157.982 46.8208C157.705 46.9261 157.453 47.0933 157.226 47.3223C156.999 47.5514 156.796 47.8212 156.616 48.1319C156.449 48.4461 156.309 48.7607 156.197 49.0758L154.305 54.2835L152.663 53.8435L156.082 44.4068L157.434 44.7691L157.152 45.9772C157.513 45.6599 157.893 45.4237 158.294 45.2687C158.711 45.1043 159.151 45.0843 159.614 45.2085C159.846 45.2706 160.03 45.3335 160.164 45.3972C160.312 45.4644 160.453 45.5299 160.588 45.5936L160.002 47.238Z" fill="white"/>
<path d="M160.353 51.1833C160.699 50.2544 161.073 49.478 161.474 48.8541C161.876 48.2302 162.321 47.7558 162.808 47.4308C163.299 47.093 163.843 46.8936 164.439 46.8324C165.035 46.7713 165.7 46.8391 166.434 47.0358C166.614 47.0841 166.811 47.1505 167.023 47.2349C167.248 47.3228 167.464 47.4154 167.673 47.5127C167.894 47.6134 168.101 47.7172 168.293 47.8239C168.486 47.9306 168.652 48.0304 168.793 48.1234L166.368 54.6999C166.361 54.7256 166.336 54.7948 166.292 54.9072C166.251 55.0068 166.207 55.1467 166.159 55.3271C166.028 55.8165 166.213 56.1284 166.715 56.263L166.282 57.4929L165.915 57.3945C165.503 57.2841 165.175 57.0926 164.931 56.82C164.699 56.5509 164.58 56.1948 164.575 55.7516C164.214 56.0689 163.786 56.2995 163.292 56.4432C162.802 56.574 162.222 56.5497 161.552 56.3702C160.65 56.1287 160.092 55.6616 159.877 54.9691C159.663 54.2766 159.702 53.383 159.995 52.2883C160.092 51.9277 160.211 51.5593 160.353 51.1833ZM162.35 55.0932C162.684 55.1829 162.99 55.2026 163.265 55.1522C163.545 55.089 163.794 54.9832 164.013 54.8349C164.245 54.6901 164.439 54.5073 164.595 54.2868C164.75 54.0663 164.876 53.8306 164.97 53.58L166.755 48.6955C166.634 48.6353 166.491 48.5763 166.327 48.5185C166.163 48.4608 165.965 48.4008 165.733 48.3387C163.943 47.859 162.578 49.3708 161.64 52.8738C161.467 53.5178 161.43 54.0185 161.527 54.3759C161.625 54.7333 161.899 54.9724 162.35 55.0932Z" fill="white"/>
<path d="M173.467 50.6182L171.52 55.956C171.479 56.0555 171.435 56.168 171.388 56.2933C171.357 56.4093 171.338 56.4801 171.331 56.5058C171.307 56.596 171.292 56.7025 171.287 56.8253C171.285 56.9352 171.304 57.0439 171.344 57.1513C171.384 57.2587 171.447 57.3584 171.533 57.4504C171.635 57.533 171.777 57.5984 171.957 57.6468C172.227 57.7192 172.477 57.7655 172.707 57.7855C172.949 57.809 173.146 57.8204 173.298 57.8197L172.82 59.1409C172.68 59.1451 172.443 59.1298 172.107 59.095C171.771 59.0602 171.43 58.9963 171.082 58.9031C170.348 58.7064 169.88 58.367 169.678 57.8849C169.479 57.39 169.464 56.827 169.633 56.1959C169.657 56.1058 169.695 55.9916 169.746 55.8534C169.8 55.7023 169.849 55.5705 169.893 55.458L171.825 50.1782L170.57 49.8418L171.074 48.4239L172.33 48.7604L173.163 46.4991L174.805 46.9391L173.972 49.2004L176.213 49.8009L175.708 51.2187L173.467 50.6182Z" fill="white"/>
<path d="M179.009 48.2726L179.63 46.5754L181.465 47.0671L180.844 48.7644L179.009 48.2726ZM174.924 59.8084L178.343 50.3718L179.985 50.8118L176.566 60.2484L174.924 59.8084Z" fill="white"/>
<path d="M188.81 56.9862C188.237 59.1241 187.486 60.6138 186.557 61.4553C185.631 62.2838 184.44 62.5031 182.985 62.1132C182.47 61.9751 182.022 61.793 181.64 61.5666C181.276 61.3308 180.991 61.0269 180.787 60.6547C180.587 60.2697 180.477 59.8054 180.457 59.2617C180.45 58.7214 180.548 58.0714 180.751 57.3115C181.31 55.2251 182.04 53.7917 182.939 53.0112C183.855 52.2213 185.047 52.023 186.515 52.4164C188.704 53.0031 189.469 54.5263 188.81 56.9862ZM186.704 57.892C186.877 57.4 187.016 56.9609 187.119 56.5745C187.354 55.6987 187.389 55.0525 187.225 54.6357C187.064 54.2061 186.668 53.9067 186.037 53.7376C185.65 53.6341 185.304 53.6105 185 53.6668C184.695 53.7231 184.412 53.8753 184.153 54.1232C183.909 54.3616 183.672 54.7053 183.441 55.1542C183.211 55.6032 182.972 56.1603 182.724 56.8256C182.582 57.2016 182.468 57.5506 182.382 57.8726C182.147 58.7484 182.113 59.4157 182.28 59.8745C182.451 60.3205 182.845 60.6263 183.463 60.7919C184.184 60.9852 184.791 60.8579 185.284 60.4102C185.793 59.953 186.266 59.1136 186.704 57.892Z" fill="white"/>
<path d="M189.508 63.716L192.926 54.2793L194.279 54.6417L193.998 55.7673C194.385 55.4569 194.807 55.2457 195.265 55.1337C195.726 55.0089 196.253 55.0258 196.846 55.1845C197.85 55.4537 198.474 55.883 198.716 56.4725C198.962 57.0491 198.966 57.7817 198.728 58.6704C198.693 58.7992 198.65 58.9327 198.6 59.0709C198.562 59.2126 198.517 59.3525 198.466 59.4907L196.288 65.5329L194.646 65.0929L196.824 59.0508C196.865 58.9512 196.91 58.8323 196.961 58.6941C197.016 58.543 197.055 58.4223 197.079 58.3322C197.196 57.8943 197.195 57.5142 197.074 57.192C196.957 56.8569 196.615 56.6134 196.048 56.4616C195.687 56.365 195.349 56.3641 195.034 56.4591C194.732 56.5575 194.456 56.7113 194.206 56.9206C193.97 57.1333 193.764 57.3886 193.587 57.6864C193.411 57.9842 193.27 58.2778 193.165 58.5671L191.15 64.156L189.508 63.716Z" fill="white"/>
<path d="M93.4405 30.6452C93.7524 29.7901 93.9878 29.0663 94.1465 28.4739C94.326 27.8042 94.4323 27.2529 94.4654 26.8201C94.502 26.3744 94.4741 26.0149 94.3817 25.7417C94.3021 25.4719 94.1697 25.2708 93.9843 25.1383C93.8153 24.9964 93.6149 24.8943 93.383 24.8322C93.2027 24.7839 93.0014 24.7369 92.779 24.6911C92.5729 24.6359 92.3716 24.5888 92.1749 24.5499C91.9397 24.5007 91.7108 24.4532 91.4884 24.4074L87.6431 34.9721C87.8328 35.0368 88.0354 35.1049 88.2509 35.1764C88.4278 35.2376 88.6175 35.3022 88.8201 35.3703C89.0391 35.429 89.2516 35.4859 89.4576 35.5411C89.7538 35.6205 90.0549 35.6046 90.3608 35.4933C90.6796 35.3854 90.9989 35.1466 91.3189 34.7768C91.6551 34.3976 91.9954 33.8745 92.3398 33.2076C92.7005 32.5312 93.0674 31.6771 93.4405 30.6452ZM95.2154 30.9758C94.7001 32.3837 94.2023 33.5203 93.722 34.3855C93.2452 35.2378 92.7493 35.8779 92.2343 36.3059C91.7322 36.7373 91.196 36.987 90.6256 37.055C90.0716 37.1136 89.4597 37.0532 88.79 36.8737C88.4165 36.7737 88.0318 36.6637 87.636 36.5438C87.2497 36.4403 86.8925 36.3308 86.5645 36.2153C86.1851 36.086 85.8249 35.9619 85.4841 35.843L90.286 22.6358C90.6406 22.7032 91.0017 22.7724 91.3692 22.8432C91.6852 22.9003 92.0235 22.9771 92.3841 23.0738C92.7611 23.161 93.117 23.2494 93.4518 23.3391C94.0056 23.4875 94.4907 23.6865 94.9069 23.9361C95.3266 24.1728 95.6444 24.5064 95.8604 24.937C96.0926 25.3581 96.2096 25.9002 96.2114 26.5632C96.2295 27.2169 96.1057 28.0395 95.84 29.0312C95.7606 29.3274 95.6649 29.6331 95.5529 29.9481C95.4537 30.2667 95.3412 30.6092 95.2154 30.9758Z" stroke="#31383E" stroke-width="2" mask="url(#path-4-outside-2)"/>
<path d="M96.8136 34.1579C97.1591 33.229 97.5328 32.4526 97.9347 31.8287C98.3365 31.2047 98.7811 30.7303 99.2685 30.4054C99.7593 30.0676 100.303 29.8681 100.899 29.807C101.495 29.7459 102.16 29.8136 102.894 30.0103C103.075 30.0587 103.271 30.125 103.483 30.2095C103.708 30.2973 103.924 30.3899 104.133 30.4872C104.355 30.588 104.561 30.6917 104.754 30.7984C104.946 30.9052 105.112 31.005 105.253 31.0979L102.828 37.6745C102.822 37.7002 102.796 37.7693 102.752 37.8818C102.712 37.9814 102.667 38.1213 102.619 38.3016C102.488 38.791 102.673 39.103 103.176 39.2376L102.743 40.4674L102.376 40.3691C101.963 40.2586 101.635 40.0671 101.391 39.7946C101.159 39.5255 101.041 39.1693 101.035 38.7261C100.674 39.0435 100.246 39.274 99.7524 39.4177C99.2618 39.5485 98.6817 39.5242 98.012 39.3448C97.1105 39.1032 96.5523 38.6362 96.3376 37.9437C96.1228 37.2512 96.1621 36.3575 96.4554 35.2628C96.5521 34.9022 96.6715 34.5339 96.8136 34.1579ZM98.8097 38.0677C99.1446 38.1575 99.4499 38.1771 99.7256 38.1268C100.005 38.0636 100.254 37.9578 100.473 37.8095C100.705 37.6646 100.899 37.4819 101.055 37.2614C101.211 37.0408 101.336 36.8052 101.431 36.5545L103.216 31.6701C103.094 31.6098 102.951 31.5508 102.787 31.4931C102.623 31.4353 102.425 31.3754 102.193 31.3133C100.403 30.8336 99.0386 32.3453 98.0999 35.8484C97.9274 36.4924 97.8898 36.993 97.9873 37.3504C98.0848 37.7079 98.3589 37.9469 98.8097 38.0677Z" stroke="#31383E" stroke-width="2" mask="url(#path-4-outside-2)"/>
<path d="M109.928 33.5928L107.98 38.9305C107.939 39.0301 107.895 39.1426 107.848 39.2679C107.817 39.3838 107.798 39.4547 107.791 39.4804C107.767 39.5706 107.752 39.677 107.747 39.7999C107.745 39.9098 107.764 40.0185 107.804 40.1259C107.845 40.2333 107.908 40.333 107.993 40.425C108.096 40.5076 108.237 40.573 108.417 40.6213C108.688 40.6938 108.937 40.74 109.167 40.7601C109.409 40.7835 109.606 40.7949 109.758 40.7943L109.28 42.1155C109.141 42.1196 108.903 42.1043 108.567 42.0696C108.232 42.0348 107.89 41.9708 107.542 41.8777C106.808 41.681 106.34 41.3416 106.138 40.8595C105.939 40.3646 105.924 39.8015 106.093 39.1705C106.118 39.0803 106.155 38.9661 106.206 38.8279C106.26 38.6768 106.309 38.545 106.353 38.4326L108.286 33.1528L107.03 32.8163L107.534 31.3985L108.79 31.735L109.623 29.4737L111.265 29.9137L110.432 32.175L112.673 32.7754L112.169 34.1933L109.928 33.5928Z" stroke="#31383E" stroke-width="2" mask="url(#path-4-outside-2)"/>
<path d="M112.642 38.3991C112.988 37.4702 113.361 36.6938 113.763 36.0699C114.165 35.4459 114.609 34.9715 115.097 34.6466C115.588 34.3088 116.131 34.1093 116.727 34.0482C117.323 33.9871 117.989 34.0548 118.723 34.2515C118.903 34.2999 119.099 34.3662 119.311 34.4507C119.536 34.5385 119.753 34.6311 119.961 34.7284C120.183 34.8292 120.39 34.9329 120.582 35.0396C120.774 35.1464 120.941 35.2462 121.082 35.3391L118.657 41.9156C118.65 41.9414 118.624 42.0105 118.581 42.123C118.54 42.2226 118.496 42.3625 118.447 42.5428C118.316 43.0322 118.502 43.3442 119.004 43.4788L118.571 44.7086L118.204 44.6103C117.792 44.4998 117.464 44.3083 117.219 44.0358C116.987 43.7667 116.869 43.4105 116.863 42.9673C116.502 43.2847 116.075 43.5152 115.581 43.6589C115.09 43.7897 114.51 43.7654 113.84 43.586C112.939 43.3444 112.381 42.8774 112.166 42.1849C111.951 41.4924 111.99 40.5987 112.284 39.504C112.38 39.1434 112.5 38.7751 112.642 38.3991ZM114.638 42.3089C114.973 42.3986 115.278 42.4183 115.554 42.368C115.833 42.3048 116.082 42.199 116.302 42.0507C116.534 41.9058 116.728 41.7231 116.883 41.5026C117.039 41.282 117.164 41.0464 117.259 40.7957L119.044 35.9113C118.922 35.851 118.779 35.792 118.615 35.7343C118.451 35.6765 118.253 35.6166 118.022 35.5545C116.231 35.0748 114.867 36.5865 113.928 40.0896C113.756 40.7335 113.718 41.2342 113.816 41.5916C113.913 41.949 114.187 42.1881 114.638 42.3089Z" stroke="#31383E" stroke-width="2" mask="url(#path-4-outside-2)"/>
<path d="M133.443 48.6935L137.737 36.8409L132.94 43.6929L131.336 43.2633L131.96 35.2932L127.666 47.1457L126.121 46.7316L130.923 33.5244L133.647 34.2543L132.933 41.4757L137.182 35.2015L139.809 35.9055L135.007 49.1127L133.443 48.6935Z" stroke="#31383E" stroke-width="2" mask="url(#path-4-outside-2)"/>
<path d="M142.278 38.4304L142.898 36.7332L144.733 37.2249L144.113 38.9222L142.278 38.4304ZM138.193 49.9662L141.612 40.5296L143.254 40.9696L139.835 50.4062L138.193 49.9662Z" stroke="#31383E" stroke-width="2" mask="url(#path-4-outside-2)"/>
<path d="M144.211 46.7545C144.557 45.8257 144.922 45.054 145.308 44.4395C145.706 43.8284 146.149 43.3604 146.637 43.0355C147.137 42.714 147.683 42.5292 148.276 42.4809C148.882 42.4361 149.564 42.5155 150.324 42.7191C150.814 42.8503 151.272 43.0213 151.698 43.2322C152.138 43.4466 152.537 43.6571 152.896 43.8637L149.819 52.2533C149.463 53.2209 149.118 53.9703 148.782 54.5015C148.446 55.0327 148.084 55.4051 147.696 55.6185C147.307 55.8318 146.869 55.9215 146.382 55.8874C145.907 55.8568 145.347 55.7552 144.703 55.5827C144.407 55.5033 144.055 55.3745 143.647 55.1962C143.236 55.0308 142.878 54.8728 142.573 54.7221L143.092 53.3288C143.226 53.3925 143.379 53.4678 143.549 53.5548C143.732 53.6452 143.923 53.7309 144.122 53.8118C144.321 53.8928 144.522 53.9673 144.724 54.0354C144.936 54.1198 145.126 54.1845 145.294 54.2294C145.616 54.3156 145.901 54.3576 146.15 54.3553C146.409 54.3694 146.639 54.307 146.842 54.1681C147.058 54.0326 147.264 53.8048 147.46 53.4847C147.653 53.1775 147.851 52.7474 148.054 52.1945L148.314 51.4567C147.945 51.7027 147.533 51.8753 147.078 51.9744C146.627 52.0606 146.112 52.026 145.532 51.8707C144.644 51.6326 144.066 51.1879 143.798 50.5365C143.548 49.8758 143.577 48.9658 143.888 47.8067C143.933 47.6393 143.978 47.4719 144.023 47.3044C144.071 47.1241 144.134 46.9408 144.211 46.7545ZM146.33 50.5937C146.716 50.6972 147.065 50.7079 147.377 50.6259C147.702 50.5472 147.987 50.4097 148.233 50.2133C148.492 50.0204 148.711 49.7961 148.89 49.5403C149.072 49.2717 149.212 49.0056 149.311 48.7421L150.872 44.4603C150.737 44.3966 150.569 44.3307 150.366 44.2626C150.167 44.1816 149.919 44.1014 149.623 44.0221C149.159 43.8978 148.749 43.8845 148.391 43.9819C148.037 44.0666 147.711 44.2551 147.412 44.5476C147.112 44.8401 146.836 45.2285 146.582 45.7126C146.331 46.1838 146.084 46.7456 145.84 47.3981C145.783 47.5621 145.727 47.7196 145.672 47.8707C145.634 48.0124 145.596 48.154 145.558 48.2957C145.379 48.9654 145.343 49.4871 145.45 49.8609C145.573 50.2252 145.866 50.4694 146.33 50.5937Z" stroke="#31383E" stroke-width="2" mask="url(#path-4-outside-2)"/>
<path d="M160.002 47.238C159.845 47.1545 159.661 47.0706 159.449 46.9862C159.253 46.8923 159.065 46.8212 158.885 46.7729C158.563 46.6866 158.262 46.7026 157.982 46.8208C157.705 46.9261 157.453 47.0933 157.226 47.3223C156.999 47.5514 156.796 47.8212 156.616 48.1319C156.449 48.4461 156.309 48.7607 156.197 49.0758L154.305 54.2835L152.663 53.8435L156.082 44.4068L157.434 44.7691L157.152 45.9772C157.513 45.6599 157.893 45.4237 158.294 45.2687C158.711 45.1043 159.151 45.0843 159.614 45.2085C159.846 45.2706 160.03 45.3335 160.164 45.3972C160.312 45.4644 160.453 45.5299 160.588 45.5936L160.002 47.238Z" stroke="#31383E" stroke-width="2" mask="url(#path-4-outside-2)"/>
<path d="M160.353 51.1833C160.699 50.2544 161.073 49.478 161.474 48.8541C161.876 48.2302 162.321 47.7558 162.808 47.4308C163.299 47.093 163.843 46.8936 164.439 46.8324C165.035 46.7713 165.7 46.8391 166.434 47.0358C166.614 47.0841 166.811 47.1505 167.023 47.2349C167.248 47.3228 167.464 47.4154 167.673 47.5127C167.894 47.6134 168.101 47.7172 168.293 47.8239C168.486 47.9306 168.652 48.0304 168.793 48.1234L166.368 54.6999C166.361 54.7256 166.336 54.7948 166.292 54.9072C166.251 55.0068 166.207 55.1467 166.159 55.3271C166.028 55.8165 166.213 56.1284 166.715 56.263L166.282 57.4929L165.915 57.3945C165.503 57.2841 165.175 57.0926 164.931 56.82C164.699 56.5509 164.58 56.1948 164.575 55.7516C164.214 56.0689 163.786 56.2995 163.292 56.4432C162.802 56.574 162.222 56.5497 161.552 56.3702C160.65 56.1287 160.092 55.6616 159.877 54.9691C159.663 54.2766 159.702 53.383 159.995 52.2883C160.092 51.9277 160.211 51.5593 160.353 51.1833ZM162.35 55.0932C162.684 55.1829 162.99 55.2026 163.265 55.1522C163.545 55.089 163.794 54.9832 164.013 54.8349C164.245 54.6901 164.439 54.5073 164.595 54.2868C164.75 54.0663 164.876 53.8306 164.97 53.58L166.755 48.6955C166.634 48.6353 166.491 48.5763 166.327 48.5185C166.163 48.4608 165.965 48.4008 165.733 48.3387C163.943 47.859 162.578 49.3708 161.64 52.8738C161.467 53.5178 161.43 54.0185 161.527 54.3759C161.625 54.7333 161.899 54.9724 162.35 55.0932Z" stroke="#31383E" stroke-width="2" mask="url(#path-4-outside-2)"/>
<path d="M173.467 50.6182L171.52 55.956C171.479 56.0555 171.435 56.168 171.388 56.2933C171.357 56.4093 171.338 56.4801 171.331 56.5058C171.307 56.596 171.292 56.7025 171.287 56.8253C171.285 56.9352 171.304 57.0439 171.344 57.1513C171.384 57.2587 171.447 57.3584 171.533 57.4504C171.635 57.533 171.777 57.5984 171.957 57.6468C172.227 57.7192 172.477 57.7655 172.707 57.7855C172.949 57.809 173.146 57.8204 173.298 57.8197L172.82 59.1409C172.68 59.1451 172.443 59.1298 172.107 59.095C171.771 59.0602 171.43 58.9963 171.082 58.9031C170.348 58.7064 169.88 58.367 169.678 57.8849C169.479 57.39 169.464 56.827 169.633 56.1959C169.657 56.1058 169.695 55.9916 169.746 55.8534C169.8 55.7023 169.849 55.5705 169.893 55.458L171.825 50.1782L170.57 49.8418L171.074 48.4239L172.33 48.7604L173.163 46.4991L174.805 46.9391L173.972 49.2004L176.213 49.8009L175.708 51.2187L173.467 50.6182Z" stroke="#31383E" stroke-width="2" mask="url(#path-4-outside-2)"/>
<path d="M179.009 48.2726L179.63 46.5754L181.465 47.0671L180.844 48.7644L179.009 48.2726ZM174.924 59.8084L178.343 50.3718L179.985 50.8118L176.566 60.2484L174.924 59.8084Z" stroke="#31383E" stroke-width="2" mask="url(#path-4-outside-2)"/>
<path d="M188.81 56.9862C188.237 59.1241 187.486 60.6138 186.557 61.4553C185.631 62.2838 184.44 62.5031 182.985 62.1132C182.47 61.9751 182.022 61.793 181.64 61.5666C181.276 61.3308 180.991 61.0269 180.787 60.6547C180.587 60.2697 180.477 59.8054 180.457 59.2617C180.45 58.7214 180.548 58.0714 180.751 57.3115C181.31 55.2251 182.04 53.7917 182.939 53.0112C183.855 52.2213 185.047 52.023 186.515 52.4164C188.704 53.0031 189.469 54.5263 188.81 56.9862ZM186.704 57.892C186.877 57.4 187.016 56.9609 187.119 56.5745C187.354 55.6987 187.389 55.0525 187.225 54.6357C187.064 54.2061 186.668 53.9067 186.037 53.7376C185.65 53.6341 185.304 53.6105 185 53.6668C184.695 53.7231 184.412 53.8753 184.153 54.1232C183.909 54.3616 183.672 54.7053 183.441 55.1542C183.211 55.6032 182.972 56.1603 182.724 56.8256C182.582 57.2016 182.468 57.5506 182.382 57.8726C182.147 58.7484 182.113 59.4157 182.28 59.8745C182.451 60.3205 182.845 60.6263 183.463 60.7919C184.184 60.9852 184.791 60.8579 185.284 60.4102C185.793 59.953 186.266 59.1136 186.704 57.892Z" stroke="#31383E" stroke-width="2" mask="url(#path-4-outside-2)"/>
<path d="M189.508 63.716L192.926 54.2793L194.279 54.6417L193.998 55.7673C194.385 55.4569 194.807 55.2457 195.265 55.1337C195.726 55.0089 196.253 55.0258 196.846 55.1845C197.85 55.4537 198.474 55.883 198.716 56.4725C198.962 57.0491 198.966 57.7817 198.728 58.6704C198.693 58.7992 198.65 58.9327 198.6 59.0709C198.562 59.2126 198.517 59.3525 198.466 59.4907L196.288 65.5329L194.646 65.0929L196.824 59.0508C196.865 58.9512 196.91 58.8323 196.961 58.6941C197.016 58.543 197.055 58.4223 197.079 58.3322C197.196 57.8943 197.195 57.5142 197.074 57.192C196.957 56.8569 196.615 56.6134 196.048 56.4616C195.687 56.365 195.349 56.3641 195.034 56.4591C194.732 56.5575 194.456 56.7113 194.206 56.9206C193.97 57.1333 193.764 57.3886 193.587 57.6864C193.411 57.9842 193.27 58.2778 193.165 58.5671L191.15 64.156L189.508 63.716Z" stroke="#31383E" stroke-width="2" mask="url(#path-4-outside-2)"/>
<path d="M140.52 80.2885C162.615 61.6482 190.567 89.4087 181.028 101.44C206.66 107.377 193.777 158.241 147.07 139.823C145.589 139.24 144.609 137.773 144.609 136.182V128.253H150.649C152.321 128.253 153.255 126.324 152.219 125.013L136.825 105.538C136.046 104.552 134.562 104.52 133.741 105.472L116.949 124.947C115.831 126.243 116.752 128.253 118.463 128.253H124.037C125.142 128.253 126.037 129.148 126.037 130.253V153.703C126.037 155.912 127.828 157.703 130.037 157.703H130.668C132.424 157.703 133.328 159.806 132.118 161.08L114.65 179.486C113.867 180.312 112.554 180.318 111.762 179.501L93.9443 161.094C92.7159 159.825 93.6151 157.703 95.3813 157.703H99.2743C100.379 157.703 101.274 156.808 101.274 155.703V145C101.274 142.791 99.4848 141 97.2756 141H87.5663C74.7427 141 64.1703 140.56 56.1703 135.725C51.9699 132.648 48.6536 128.253 48.6533 122.099C49.5051 117.299 50.1801 116.247 53.0977 112.339C56.0153 108.43 59.8068 105.256 64.1703 103.069C68.5337 100.882 73.3483 99.7437 78.2304 99.7438C79.2161 99.7438 80.2113 99.7956 81.1546 99.8851C79.2392 92.222 80.2955 84.1192 84.1117 77.2011C87.9278 70.283 94.2218 65.061 101.732 62.582C109.242 60.103 117.412 60.5502 124.606 63.834C131.8 67.1178 137.484 72.9954 140.52 80.2885Z" fill="#31383E" stroke="#31383E" stroke-width="2" stroke-linecap="round" stroke-linejoin="round"/>
<path d="M137.867 80.2885C159.962 61.6482 187.914 89.4087 178.375 101.44C204.006 107.377 191.124 158.241 144.416 139.823C142.936 139.24 141.956 137.773 141.956 136.182V128.253H147.996C149.668 128.253 150.602 126.324 149.565 125.013L134.172 105.538C133.393 104.552 131.909 104.52 131.088 105.472L114.295 124.947C113.178 126.243 114.099 128.253 115.81 128.253H121.384C122.488 128.253 123.384 129.148 123.384 130.253V153.703C123.384 155.912 125.175 157.703 127.384 157.703H128.014C129.771 157.703 130.674 159.806 129.465 161.08L111.997 179.486C111.213 180.312 109.9 180.318 109.109 179.501L91.291 161.094C90.0625 159.825 90.9618 157.703 92.728 157.703H96.621C97.7255 157.703 98.621 156.808 98.621 155.703V145C98.621 142.791 96.8315 141 94.6223 141H84.913C72.0894 141 61.517 140.56 53.517 135.725C49.3166 132.648 46.0002 128.253 46 122.099C46.8518 117.299 47.5268 116.247 50.4443 112.339C53.3619 108.43 57.1535 105.256 61.517 103.069C65.8804 100.882 70.695 99.7437 75.5771 99.7438C76.5628 99.7438 77.558 99.7956 78.5013 99.8851C76.5859 92.222 77.6422 84.1192 81.4584 77.2011C85.2745 70.283 91.5685 65.061 99.0784 62.582C106.588 60.103 114.759 60.5502 121.953 63.834C129.146 67.1178 134.831 72.9954 137.867 80.2885Z" fill="white" stroke="#31383E" stroke-width="2" stroke-linecap="round" stroke-linejoin="round"/>
<mask id="path-7-outside-3" maskUnits="userSpaceOnUse" x="157" y="178" width="28" height="26" fill="black">
<rect fill="white" x="157" y="178" width="28" height="26"/>
<path fill-rule="evenodd" clip-rule="evenodd" d="M182.375 190.624C182.375 189.398 181.384 188.403 180.163 188.403H161.837C160.615 188.403 159.625 189.398 159.625 190.624V193.143C159.625 194.369 160.615 195.363 161.837 195.363H180.163C181.384 195.363 182.375 194.369 182.375 193.143V190.624ZM179.926 190.282C180.231 190.282 180.479 190.531 180.479 190.837V192.93C180.479 193.236 180.231 193.485 179.926 193.485H177.793C177.488 193.485 177.24 193.236 177.24 192.93V190.837C177.24 190.531 177.488 190.282 177.793 190.282H179.926ZM182.375 181.22C182.375 179.994 181.384 179 180.163 179H161.837C160.615 179 159.625 179.994 159.625 181.22V183.74C159.625 184.966 160.615 185.96 161.837 185.96H180.163C181.384 185.96 182.375 184.966 182.375 183.74V181.22ZM179.926 180.879C180.231 180.879 180.479 181.127 180.479 181.434V183.526C180.479 183.833 180.231 184.081 179.926 184.081H177.793C177.488 184.081 177.24 183.833 177.24 183.526V181.434C177.24 181.127 177.488 180.879 177.793 180.879H179.926ZM172.609 198.046C172.139 197.72 171.576 197.545 171 197.545C170.424 197.545 169.861 197.72 169.391 198.046C168.92 198.371 168.564 198.832 168.372 199.364H158.917C158.41 199.364 158 199.771 158 200.273C158 200.775 158.41 201.182 158.917 201.182H168.374C168.566 201.714 168.922 202.174 169.392 202.5C169.862 202.825 170.424 203 171 203C171.576 203 172.138 202.825 172.608 202.5C173.078 202.174 173.434 201.714 173.626 201.182H183.083C183.59 201.182 184 200.775 184 200.273C184 199.771 183.59 199.364 183.083 199.364H173.628C173.436 198.832 173.08 198.371 172.609 198.046Z"/>
</mask>
<path fill-rule="evenodd" clip-rule="evenodd" d="M182.375 190.624C182.375 189.398 181.384 188.403 180.163 188.403H161.837C160.615 188.403 159.625 189.398 159.625 190.624V193.143C159.625 194.369 160.615 195.363 161.837 195.363H180.163C181.384 195.363 182.375 194.369 182.375 193.143V190.624ZM179.926 190.282C180.231 190.282 180.479 190.531 180.479 190.837V192.93C180.479 193.236 180.231 193.485 179.926 193.485H177.793C177.488 193.485 177.24 193.236 177.24 192.93V190.837C177.24 190.531 177.488 190.282 177.793 190.282H179.926ZM182.375 181.22C182.375 179.994 181.384 179 180.163 179H161.837C160.615 179 159.625 179.994 159.625 181.22V183.74C159.625 184.966 160.615 185.96 161.837 185.96H180.163C181.384 185.96 182.375 184.966 182.375 183.74V181.22ZM179.926 180.879C180.231 180.879 180.479 181.127 180.479 181.434V183.526C180.479 183.833 180.231 184.081 179.926 184.081H177.793C177.488 184.081 177.24 183.833 177.24 183.526V181.434C177.24 181.127 177.488 180.879 177.793 180.879H179.926ZM172.609 198.046C172.139 197.72 171.576 197.545 171 197.545C170.424 197.545 169.861 197.72 169.391 198.046C168.92 198.371 168.564 198.832 168.372 199.364H158.917C158.41 199.364 158 199.771 158 200.273C158 200.775 158.41 201.182 158.917 201.182H168.374C168.566 201.714 168.922 202.174 169.392 202.5C169.862 202.825 170.424 203 171 203C171.576 203 172.138 202.825 172.608 202.5C173.078 202.174 173.434 201.714 173.626 201.182H183.083C183.59 201.182 184 200.775 184 200.273C184 199.771 183.59 199.364 183.083 199.364H173.628C173.436 198.832 173.08 198.371 172.609 198.046Z" fill="white"/>
<path fill-rule="evenodd" clip-rule="evenodd" d="M182.375 190.624C182.375 189.398 181.384 188.403 180.163 188.403H161.837C160.615 188.403 159.625 189.398 159.625 190.624V193.143C159.625 194.369 160.615 195.363 161.837 195.363H180.163C181.384 195.363 182.375 194.369 182.375 193.143V190.624ZM179.926 190.282C180.231 190.282 180.479 190.531 180.479 190.837V192.93C180.479 193.236 180.231 193.485 179.926 193.485H177.793C177.488 193.485 177.24 193.236 177.24 192.93V190.837C177.24 190.531 177.488 190.282 177.793 190.282H179.926ZM182.375 181.22C182.375 179.994 181.384 179 180.163 179H161.837C160.615 179 159.625 179.994 159.625 181.22V183.74C159.625 184.966 160.615 185.96 161.837 185.96H180.163C181.384 185.96 182.375 184.966 182.375 183.74V181.22ZM179.926 180.879C180.231 180.879 180.479 181.127 180.479 181.434V183.526C180.479 183.833 180.231 184.081 179.926 184.081H177.793C177.488 184.081 177.24 183.833 177.24 183.526V181.434C177.24 181.127 177.488 180.879 177.793 180.879H179.926ZM172.609 198.046C172.139 197.72 171.576 197.545 171 197.545C170.424 197.545 169.861 197.72 169.391 198.046C168.92 198.371 168.564 198.832 168.372 199.364H158.917C158.41 199.364 158 199.771 158 200.273C158 200.775 158.41 201.182 158.917 201.182H168.374C168.566 201.714 168.922 202.174 169.392 202.5C169.862 202.825 170.424 203 171 203C171.576 203 172.138 202.825 172.608 202.5C173.078 202.174 173.434 201.714 173.626 201.182H183.083C183.59 201.182 184 200.775 184 200.273C184 199.771 183.59 199.364 183.083 199.364H173.628C173.436 198.832 173.08 198.371 172.609 198.046Z" fill="url(#paint0_linear)"/>
<path d="M171 197.545L170.999 198.545H171.001L171 197.545ZM172.609 198.046L172.04 198.868L172.04 198.868L172.609 198.046ZM169.391 198.046L169.96 198.868L169.96 198.868L169.391 198.046ZM168.372 199.364V200.364H169.074L169.313 199.704L168.372 199.364ZM168.374 201.182L169.314 200.842L169.076 200.182H168.374V201.182ZM173.626 201.182V200.182H172.924L172.686 200.842L173.626 201.182ZM173.628 199.364L172.687 199.704L172.926 200.364H173.628V199.364ZM180.163 189.403C180.829 189.403 181.375 189.946 181.375 190.624H183.375C183.375 188.849 181.94 187.403 180.163 187.403V189.403ZM161.837 189.403H180.163V187.403H161.837V189.403ZM160.625 190.624C160.625 189.946 161.171 189.403 161.837 189.403V187.403C160.059 187.403 158.625 188.849 158.625 190.624H160.625ZM160.625 193.143V190.624H158.625V193.143H160.625ZM161.837 194.363C161.171 194.363 160.625 193.821 160.625 193.143H158.625C158.625 194.918 160.059 196.363 161.837 196.363V194.363ZM180.163 194.363H161.837V196.363H180.163V194.363ZM181.375 193.143C181.375 193.821 180.829 194.363 180.163 194.363V196.363C181.94 196.363 183.375 194.918 183.375 193.143H181.375ZM181.375 190.624V193.143H183.375V190.624H181.375ZM181.479 190.837C181.479 189.982 180.787 189.282 179.926 189.282V191.282C179.675 191.282 179.479 191.079 179.479 190.837H181.479ZM181.479 192.93V190.837H179.479V192.93H181.479ZM179.926 194.485C180.787 194.485 181.479 193.785 181.479 192.93H179.479C179.479 192.688 179.675 192.485 179.926 192.485V194.485ZM177.793 194.485H179.926V192.485H177.793V194.485ZM176.24 192.93C176.24 193.785 176.932 194.485 177.793 194.485V192.485C178.044 192.485 178.24 192.688 178.24 192.93H176.24ZM176.24 190.837V192.93H178.24V190.837H176.24ZM177.793 189.282C176.932 189.282 176.24 189.982 176.24 190.837H178.24C178.24 191.079 178.044 191.282 177.793 191.282V189.282ZM179.926 189.282H177.793V191.282H179.926V189.282ZM180.163 180C180.829 180 181.375 180.543 181.375 181.22H183.375C183.375 179.445 181.94 178 180.163 178V180ZM161.837 180H180.163V178H161.837V180ZM160.625 181.22C160.625 180.543 161.171 180 161.837 180V178C160.059 178 158.625 179.445 158.625 181.22H160.625ZM160.625 183.74V181.22H158.625V183.74H160.625ZM161.837 184.96C161.171 184.96 160.625 184.417 160.625 183.74H158.625C158.625 185.515 160.059 186.96 161.837 186.96V184.96ZM180.163 184.96H161.837V186.96H180.163V184.96ZM181.375 183.74C181.375 184.417 180.829 184.96 180.163 184.96V186.96C181.94 186.96 183.375 185.515 183.375 183.74H181.375ZM181.375 181.22V183.74H183.375V181.22H181.375ZM181.479 181.434C181.479 180.579 180.787 179.879 179.926 179.879V181.879C179.675 181.879 179.479 181.676 179.479 181.434H181.479ZM181.479 183.526V181.434H179.479V183.526H181.479ZM179.926 185.081C180.787 185.081 181.479 184.381 181.479 183.526H179.479C179.479 183.284 179.675 183.081 179.926 183.081V185.081ZM177.793 185.081H179.926V183.081H177.793V185.081ZM176.24 183.526C176.24 184.381 176.932 185.081 177.793 185.081V183.081C178.044 183.081 178.24 183.284 178.24 183.526H176.24ZM176.24 181.434V183.526H178.24V181.434H176.24ZM177.793 179.879C176.932 179.879 176.24 180.579 176.24 181.434H178.24C178.24 181.676 178.044 181.879 177.793 181.879V179.879ZM179.926 179.879H177.793V181.879H179.926V179.879ZM171.001 198.545C171.375 198.545 171.738 198.659 172.04 198.868L173.178 197.223C172.539 196.781 171.778 196.545 170.999 196.545L171.001 198.545ZM169.96 198.868C170.262 198.659 170.625 198.545 170.999 198.545L171.001 196.545C170.222 196.545 169.461 196.781 168.822 197.223L169.96 198.868ZM169.313 199.704C169.433 199.37 169.658 199.077 169.96 198.868L168.822 197.223C168.182 197.666 167.695 198.294 167.432 199.024L169.313 199.704ZM158.917 200.364H168.372V198.364H158.917V200.364ZM159 200.273C159 200.331 158.955 200.364 158.917 200.364V198.364C157.866 198.364 157 199.211 157 200.273H159ZM158.917 200.182C158.955 200.182 159 200.215 159 200.273H157C157 201.335 157.866 202.182 158.917 202.182V200.182ZM168.374 200.182H158.917V202.182H168.374V200.182ZM169.961 201.677C169.66 201.469 169.435 201.176 169.314 200.842L167.434 201.522C167.697 202.252 168.184 202.88 168.823 203.322L169.961 201.677ZM171 202C170.626 202 170.263 201.886 169.961 201.677L168.823 203.322C169.462 203.764 170.222 204 171 204V202ZM172.039 201.677C171.737 201.886 171.374 202 171 202V204C171.778 204 172.538 203.764 173.177 203.322L172.039 201.677ZM172.686 200.842C172.565 201.176 172.34 201.469 172.039 201.677L173.177 203.322C173.816 202.88 174.303 202.252 174.566 201.522L172.686 200.842ZM183.083 200.182H173.626V202.182H183.083V200.182ZM183 200.273C183 200.215 183.045 200.182 183.083 200.182V202.182C184.134 202.182 185 201.335 185 200.273H183ZM183.083 200.364C183.045 200.364 183 200.331 183 200.273H185C185 199.211 184.134 198.364 183.083 198.364V200.364ZM173.628 200.364H183.083V198.364H173.628V200.364ZM172.04 198.868C172.342 199.077 172.567 199.37 172.687 199.704L174.568 199.024C174.305 198.294 173.818 197.666 173.178 197.223L172.04 198.868Z" fill="black" mask="url(#path-7-outside-3)"/>
<path d="M154 147C156.337 152.213 159.489 154.905 164.611 157.444C166.743 158.502 169.278 158.778 171 160.5C173.486 162.986 172.479 167.562 171.5 170.5" stroke="#31383E" stroke-linecap="round" stroke-linejoin="round" stroke-dasharray="4 4"/>
<path d="M68.5 146.5C65.2473 153.266 65.7091 160.87 68 167.944C68.1979 168.555 69.5 174.493 69.5 172.5" stroke="#31383E" stroke-linecap="round" stroke-linejoin="round" stroke-dasharray="4 4"/>
<defs>
<linearGradient id="paint0_linear" x1="171" y1="197.545" x2="171" y2="203" gradientUnits="userSpaceOnUse">
<stop stop-color="white"/>
<stop offset="1" stop-color="white" stop-opacity="0"/>
</linearGradient>
</defs>
</svg>
