<svg width="1160" height="160" viewBox="0 0 1160 160" fill="none" xmlns="http://www.w3.org/2000/svg">
<rect width="1160" height="160" rx="4" fill="#2DD482"/>
<mask id="mask0" mask-type="alpha" maskUnits="userSpaceOnUse" x="0" y="0" width="1160" height="160">
<rect width="1160" height="160" rx="4" fill="url(#paint0_linear)"/>
</mask>
<g mask="url(#mask0)">
<path d="M197.012 137.334C194.338 136.62 191.524 136.622 188.851 137.341C189.38 136.212 189.808 135.039 190.13 133.835C191.536 128.602 190.936 123.032 188.448 118.218C185.961 113.404 181.764 109.693 176.681 107.813C171.599 105.934 165.997 106.02 160.976 108.057C155.954 110.093 151.874 113.933 149.537 118.821C147.251 117.212 144.64 116.121 141.888 115.626C139.136 115.131 136.31 115.244 133.606 115.956C130.902 116.669 128.387 117.963 126.236 119.75C124.085 121.537 122.351 123.772 121.155 126.299C119.959 128.826 119.33 131.585 119.311 134.38C119.293 137.176 119.886 139.943 121.05 142.485C122.213 145.028 123.918 147.285 126.045 149.1C128.172 150.914 130.67 152.242 133.365 152.989L188.834 167.852C192.844 168.831 197.077 168.2 200.628 166.097C204.178 163.993 206.765 160.583 207.833 156.597C208.901 152.61 208.366 148.364 206.343 144.767C204.32 141.17 200.969 138.507 197.007 137.35L197.012 137.334Z" fill="#31383E" stroke="#31383E" stroke-width="2" stroke-miterlimit="10"/>
<path d="M196.012 137.334C193.338 136.62 190.524 136.622 187.851 137.341C188.38 136.212 188.808 135.039 189.13 133.835C190.536 128.602 189.936 123.032 187.448 118.218C184.961 113.404 180.764 109.693 175.681 107.813C170.599 105.934 164.997 106.02 159.976 108.057C154.954 110.093 150.874 113.933 148.537 118.821C146.251 117.212 143.64 116.121 140.888 115.626C138.136 115.131 135.31 115.244 132.606 115.956C129.902 116.669 127.387 117.963 125.236 119.75C123.085 121.537 121.351 123.772 120.155 126.299C118.959 128.826 118.33 131.585 118.311 134.38C118.293 137.176 118.886 139.943 120.05 142.485C121.213 145.028 122.918 147.285 125.045 149.1C127.172 150.914 129.67 152.242 132.365 152.989L187.834 167.852C191.844 168.831 196.077 168.2 199.628 166.097C203.178 163.993 205.765 160.583 206.833 156.597C207.901 152.61 207.366 148.364 205.343 144.767C203.32 141.17 199.969 138.507 196.007 137.35L196.012 137.334Z" fill="#FEEE60" stroke="#2E353A" stroke-width="2" stroke-miterlimit="10"/>
<circle cx="70.2977" cy="0.215534" r="15" transform="rotate(34.0512 70.2977 0.215534)" fill="#8D67FD" stroke="#31383E" stroke-width="2"/>
<circle cx="1160.22" cy="59.2155" r="15" transform="rotate(34.0512 1160.22 59.2155)" fill="#FF727B" stroke="#31383E" stroke-width="2"/>
<path d="M121 30.1893C195.651 1.65141 188.461 81.5837 241.776 72.3294C295.09 63.0752 239.925 124.154 258.066 127.116C276.208 130.077 304.385 121.512 341 136" stroke="#31383E" stroke-width="2" stroke-linecap="round" stroke-linejoin="round"/>
<path d="M930 107C930 107 937.023 62.6754 981.715 76.165C1026.41 89.6547 1008.53 43.4029 1051.95 46.6144C1095.36 49.8259 1072.38 13.8562 1096 20.9219" stroke="#31383E" stroke-width="2" stroke-linecap="round" stroke-linejoin="round"/>
<path d="M1103.43 157.21L1086.52 106.735L1024.96 142.277L1049.74 188.213L1103.43 157.21Z" fill="#263238" stroke="#263238" stroke-width="2" stroke-linecap="round" stroke-linejoin="round"/>
<path d="M1022.21 121.553L1051.97 173.554L1101.17 152.399L1072.79 95.2272L1022.21 121.553Z" fill="white" stroke="#263238" stroke-width="2" stroke-linecap="round" stroke-linejoin="round"/>
<path d="M1011.98 138.955L1049.74 188.213L1103.43 157.21L1072.1 111.003L1043.28 127.643L1037.15 123.069L1011.98 138.955Z" fill="#2B99FF" stroke="#263238" stroke-width="2" stroke-linecap="round" stroke-linejoin="round"/>
</g>
<path d="M438.219 68.6172L441.664 50.4062H446.92L441.242 76H435.934L431.768 58.8789L427.602 76H422.293L416.615 50.4062H421.871L425.334 68.582L429.553 50.4062H434.018L438.219 68.6172ZM457.643 76.3516C454.854 76.3516 452.58 75.4961 450.822 73.7852C449.076 72.0742 448.203 69.7949 448.203 66.9473V66.4551C448.203 64.5449 448.572 62.8398 449.311 61.3398C450.049 59.8281 451.092 58.668 452.439 57.8594C453.799 57.0391 455.346 56.6289 457.08 56.6289C459.682 56.6289 461.727 57.4492 463.215 59.0898C464.715 60.7305 465.465 63.0566 465.465 66.0684V68.1426H453.354C453.518 69.3848 454.01 70.3809 454.83 71.1309C455.662 71.8809 456.711 72.2559 457.977 72.2559C459.934 72.2559 461.463 71.5469 462.564 70.1289L465.061 72.9238C464.299 74.002 463.268 74.8457 461.967 75.4551C460.666 76.0527 459.225 76.3516 457.643 76.3516ZM457.062 60.7422C456.055 60.7422 455.234 61.082 454.602 61.7617C453.98 62.4414 453.582 63.4141 453.406 64.6797H460.473V64.2754C460.449 63.1504 460.145 62.2832 459.559 61.6738C458.973 61.0527 458.141 60.7422 457.062 60.7422ZM473.727 76H468.629V49H473.727V76ZM485.838 72.2559C486.775 72.2559 487.537 71.998 488.123 71.4824C488.709 70.9668 489.014 70.2812 489.037 69.4258H493.801C493.789 70.7148 493.438 71.8984 492.746 72.9766C492.055 74.043 491.105 74.875 489.898 75.4727C488.703 76.0586 487.379 76.3516 485.926 76.3516C483.207 76.3516 481.062 75.4902 479.492 73.7676C477.922 72.0332 477.137 69.6426 477.137 66.5957V66.2617C477.137 63.332 477.916 60.9941 479.475 59.248C481.033 57.502 483.172 56.6289 485.891 56.6289C488.27 56.6289 490.174 57.3086 491.604 58.668C493.045 60.0156 493.777 61.8145 493.801 64.0645H489.037C489.014 63.0801 488.709 62.2832 488.123 61.6738C487.537 61.0527 486.764 60.7422 485.803 60.7422C484.619 60.7422 483.723 61.1758 483.113 62.043C482.516 62.8984 482.217 64.293 482.217 66.2266V66.7539C482.217 68.7109 482.516 70.1172 483.113 70.9727C483.711 71.8281 484.619 72.2559 485.838 72.2559ZM495.91 66.3145C495.91 64.4277 496.273 62.7461 497 61.2695C497.727 59.793 498.77 58.6504 500.129 57.8418C501.5 57.0332 503.088 56.6289 504.893 56.6289C507.459 56.6289 509.551 57.4141 511.168 58.9844C512.797 60.5547 513.705 62.6875 513.893 65.3828L513.928 66.6836C513.928 69.6016 513.113 71.9453 511.484 73.7148C509.855 75.4727 507.67 76.3516 504.928 76.3516C502.186 76.3516 499.994 75.4727 498.354 73.7148C496.725 71.957 495.91 69.5664 495.91 66.543V66.3145ZM500.99 66.6836C500.99 68.4883 501.33 69.8711 502.01 70.832C502.689 71.7812 503.662 72.2559 504.928 72.2559C506.158 72.2559 507.119 71.7871 507.811 70.8496C508.502 69.9004 508.848 68.3887 508.848 66.3145C508.848 64.5449 508.502 63.1738 507.811 62.2012C507.119 61.2285 506.146 60.7422 504.893 60.7422C503.65 60.7422 502.689 61.2285 502.01 62.2012C501.33 63.1621 500.99 64.6562 500.99 66.6836ZM521.82 56.9805L521.979 59.1074C523.326 57.4551 525.148 56.6289 527.445 56.6289C529.895 56.6289 531.576 57.5957 532.49 59.5293C533.826 57.5957 535.73 56.6289 538.203 56.6289C540.266 56.6289 541.801 57.2324 542.809 58.4395C543.816 59.6348 544.32 61.4395 544.32 63.8535V76H539.223V63.8711C539.223 62.793 539.012 62.0078 538.59 61.5156C538.168 61.0117 537.424 60.7598 536.357 60.7598C534.834 60.7598 533.779 61.4863 533.193 62.9395L533.211 76H528.131V63.8887C528.131 62.7871 527.914 61.9902 527.48 61.498C527.047 61.0059 526.309 60.7598 525.266 60.7598C523.824 60.7598 522.781 61.3574 522.137 62.5527V76H517.057V56.9805H521.82ZM556.994 76.3516C554.205 76.3516 551.932 75.4961 550.174 73.7852C548.428 72.0742 547.555 69.7949 547.555 66.9473V66.4551C547.555 64.5449 547.924 62.8398 548.662 61.3398C549.4 59.8281 550.443 58.668 551.791 57.8594C553.15 57.0391 554.697 56.6289 556.432 56.6289C559.033 56.6289 561.078 57.4492 562.566 59.0898C564.066 60.7305 564.816 63.0566 564.816 66.0684V68.1426H552.705C552.869 69.3848 553.361 70.3809 554.182 71.1309C555.014 71.8809 556.062 72.2559 557.328 72.2559C559.285 72.2559 560.814 71.5469 561.916 70.1289L564.412 72.9238C563.65 74.002 562.619 74.8457 561.318 75.4551C560.018 76.0527 558.576 76.3516 556.994 76.3516ZM556.414 60.7422C555.406 60.7422 554.586 61.082 553.953 61.7617C553.332 62.4414 552.934 63.4141 552.758 64.6797H559.824V64.2754C559.801 63.1504 559.496 62.2832 558.91 61.6738C558.324 61.0527 557.492 60.7422 556.414 60.7422ZM595.227 54.6777H587.387V76H582.113V54.6777H574.379V50.4062H595.227V54.6777ZM593.469 66.3145C593.469 64.4277 593.832 62.7461 594.559 61.2695C595.285 59.793 596.328 58.6504 597.688 57.8418C599.059 57.0332 600.646 56.6289 602.451 56.6289C605.018 56.6289 607.109 57.4141 608.727 58.9844C610.355 60.5547 611.264 62.6875 611.451 65.3828L611.486 66.6836C611.486 69.6016 610.672 71.9453 609.043 73.7148C607.414 75.4727 605.229 76.3516 602.486 76.3516C599.744 76.3516 597.553 75.4727 595.912 73.7148C594.283 71.957 593.469 69.5664 593.469 66.543V66.3145ZM598.549 66.6836C598.549 68.4883 598.889 69.8711 599.568 70.832C600.248 71.7812 601.221 72.2559 602.486 72.2559C603.717 72.2559 604.678 71.7871 605.369 70.8496C606.061 69.9004 606.406 68.3887 606.406 66.3145C606.406 64.5449 606.061 63.1738 605.369 62.2012C604.678 61.2285 603.705 60.7422 602.451 60.7422C601.209 60.7422 600.248 61.2285 599.568 62.2012C598.889 63.1621 598.549 64.6562 598.549 66.6836ZM634.232 50.4062H639.506V68.125C639.506 69.7539 639.143 71.1953 638.416 72.4492C637.701 73.6914 636.688 74.6523 635.375 75.332C634.062 76.0117 632.58 76.3516 630.928 76.3516C628.221 76.3516 626.111 75.666 624.6 74.2949C623.088 72.9121 622.332 70.9609 622.332 68.4414H627.641C627.641 69.6953 627.904 70.6211 628.432 71.2188C628.959 71.8164 629.791 72.1152 630.928 72.1152C631.936 72.1152 632.738 71.7695 633.336 71.0781C633.934 70.3867 634.232 69.4023 634.232 68.125V50.4062ZM642.898 66.3145C642.898 64.4277 643.262 62.7461 643.988 61.2695C644.715 59.793 645.758 58.6504 647.117 57.8418C648.488 57.0332 650.076 56.6289 651.881 56.6289C654.447 56.6289 656.539 57.4141 658.156 58.9844C659.785 60.5547 660.693 62.6875 660.881 65.3828L660.916 66.6836C660.916 69.6016 660.102 71.9453 658.473 73.7148C656.844 75.4727 654.658 76.3516 651.916 76.3516C649.174 76.3516 646.982 75.4727 645.342 73.7148C643.713 71.957 642.898 69.5664 642.898 66.543V66.3145ZM647.979 66.6836C647.979 68.4883 648.318 69.8711 648.998 70.832C649.678 71.7812 650.65 72.2559 651.916 72.2559C653.146 72.2559 654.107 71.7871 654.799 70.8496C655.49 69.9004 655.836 68.3887 655.836 66.3145C655.836 64.5449 655.49 63.1738 654.799 62.2012C654.107 61.2285 653.135 60.7422 651.881 60.7422C650.639 60.7422 649.678 61.2285 648.998 62.2012C648.318 63.1621 647.979 64.6562 647.979 66.6836ZM669.406 76H664.309V56.9805H669.406V76ZM664.01 52.0586C664.01 51.2969 664.262 50.6699 664.766 50.1777C665.281 49.6855 665.979 49.4395 666.857 49.4395C667.725 49.4395 668.416 49.6855 668.932 50.1777C669.447 50.6699 669.705 51.2969 669.705 52.0586C669.705 52.832 669.441 53.4648 668.914 53.957C668.398 54.4492 667.713 54.6953 666.857 54.6953C666.002 54.6953 665.311 54.4492 664.783 53.957C664.268 53.4648 664.01 52.832 664.01 52.0586ZM678.283 56.9805L678.441 59.1777C679.801 57.4785 681.623 56.6289 683.908 56.6289C685.924 56.6289 687.424 57.2207 688.408 58.4043C689.393 59.5879 689.896 61.3574 689.92 63.7129V76H684.84V63.8359C684.84 62.7578 684.605 61.9785 684.137 61.498C683.668 61.0059 682.889 60.7598 681.799 60.7598C680.369 60.7598 679.297 61.3691 678.582 62.5879V76H673.502V56.9805H678.283ZM722.457 50.4062V67.2637C722.457 70.0645 721.578 72.2793 719.82 73.9082C718.074 75.5371 715.684 76.3516 712.648 76.3516C709.66 76.3516 707.287 75.5605 705.529 73.9785C703.771 72.3965 702.875 70.2227 702.84 67.457V50.4062H708.113V67.2988C708.113 68.9746 708.512 70.1992 709.309 70.9727C710.117 71.7344 711.23 72.1152 712.648 72.1152C715.613 72.1152 717.119 70.5566 717.166 67.4395V50.4062H722.457ZM736.748 70.7441C736.748 70.123 736.438 69.6367 735.816 69.2852C735.207 68.9219 734.223 68.5996 732.863 68.3184C728.34 67.3691 726.078 65.4473 726.078 62.5527C726.078 60.8652 726.775 59.459 728.17 58.334C729.576 57.1973 731.41 56.6289 733.672 56.6289C736.086 56.6289 738.014 57.1973 739.455 58.334C740.908 59.4707 741.635 60.9473 741.635 62.7637H736.555C736.555 62.0371 736.32 61.4395 735.852 60.9707C735.383 60.4902 734.65 60.25 733.654 60.25C732.799 60.25 732.137 60.4434 731.668 60.8301C731.199 61.2168 730.965 61.709 730.965 62.3066C730.965 62.8691 731.229 63.3262 731.756 63.6777C732.295 64.0176 733.197 64.3164 734.463 64.5742C735.729 64.8203 736.795 65.1016 737.662 65.418C740.346 66.4023 741.688 68.1074 741.688 70.5332C741.688 72.2676 740.943 73.6738 739.455 74.752C737.967 75.8184 736.045 76.3516 733.689 76.3516C732.096 76.3516 730.678 76.0703 729.436 75.5078C728.205 74.9336 727.238 74.1543 726.535 73.1699C725.832 72.1738 725.48 71.1016 725.48 69.9531H730.297C730.344 70.8555 730.678 71.5469 731.299 72.0273C731.92 72.5078 732.752 72.748 733.795 72.748C734.768 72.748 735.5 72.5664 735.992 72.2031C736.496 71.8281 736.748 71.3418 736.748 70.7441Z" fill="white"/>
<path d="M385.847 105.203H387.543V114.265C387.543 115.489 387.174 116.447 386.436 117.139C385.703 117.83 384.725 118.176 383.5 118.176C382.229 118.176 381.238 117.851 380.529 117.2C379.82 116.55 379.466 115.639 379.466 114.467H381.153C381.153 115.199 381.353 115.771 381.751 116.181C382.155 116.591 382.738 116.796 383.5 116.796C384.197 116.796 384.76 116.576 385.188 116.137C385.621 115.697 385.841 115.082 385.847 114.291V105.203ZM389.731 113.157C389.731 112.226 389.913 111.388 390.276 110.644C390.646 109.899 391.155 109.325 391.806 108.921C392.462 108.517 393.209 108.314 394.047 108.314C395.342 108.314 396.388 108.763 397.185 109.659C397.987 110.556 398.389 111.748 398.389 113.236V113.351C398.389 114.276 398.21 115.108 397.853 115.847C397.501 116.579 396.994 117.15 396.332 117.561C395.676 117.971 394.92 118.176 394.064 118.176C392.775 118.176 391.729 117.728 390.927 116.831C390.13 115.935 389.731 114.748 389.731 113.271V113.157ZM391.366 113.351C391.366 114.405 391.609 115.252 392.096 115.891C392.588 116.529 393.244 116.849 394.064 116.849C394.891 116.849 395.547 116.526 396.033 115.882C396.52 115.231 396.763 114.323 396.763 113.157C396.763 112.114 396.514 111.271 396.016 110.626C395.523 109.976 394.867 109.65 394.047 109.65C393.244 109.65 392.597 109.97 392.104 110.608C391.612 111.247 391.366 112.161 391.366 113.351ZM402.194 118H400.568V108.49H402.194V118ZM400.437 105.968C400.437 105.704 400.516 105.481 400.674 105.3C400.838 105.118 401.078 105.027 401.395 105.027C401.711 105.027 401.951 105.118 402.115 105.3C402.279 105.481 402.361 105.704 402.361 105.968C402.361 106.231 402.279 106.451 402.115 106.627C401.951 106.803 401.711 106.891 401.395 106.891C401.078 106.891 400.838 106.803 400.674 106.627C400.516 106.451 400.437 106.231 400.437 105.968ZM406.343 108.49L406.396 109.686C407.122 108.771 408.071 108.314 409.243 108.314C411.253 108.314 412.267 109.448 412.284 111.716V118H410.658V111.707C410.652 111.021 410.494 110.515 410.184 110.187C409.879 109.858 409.401 109.694 408.751 109.694C408.224 109.694 407.761 109.835 407.362 110.116C406.964 110.397 406.653 110.767 406.431 111.224V118H404.805V108.49H406.343ZM428.465 105.203V113.904C428.459 115.111 428.078 116.099 427.322 116.866C426.572 117.634 425.553 118.064 424.264 118.158L423.815 118.176C422.415 118.176 421.299 117.798 420.467 117.042C419.635 116.286 419.213 115.246 419.201 113.922V105.203H420.871V113.869C420.871 114.795 421.126 115.516 421.636 116.031C422.146 116.541 422.872 116.796 423.815 116.796C424.771 116.796 425.5 116.541 426.004 116.031C426.514 115.521 426.769 114.804 426.769 113.878V105.203H428.465ZM436.41 115.478C436.41 115.038 436.243 114.698 435.909 114.458C435.581 114.212 435.004 114.001 434.178 113.825C433.357 113.649 432.704 113.438 432.218 113.192C431.737 112.946 431.38 112.653 431.146 112.313C430.917 111.974 430.803 111.569 430.803 111.101C430.803 110.321 431.131 109.662 431.787 109.123C432.449 108.584 433.293 108.314 434.318 108.314C435.396 108.314 436.27 108.593 436.938 109.149C437.611 109.706 437.948 110.418 437.948 111.285H436.313C436.313 110.84 436.123 110.456 435.742 110.134C435.367 109.812 434.893 109.65 434.318 109.65C433.727 109.65 433.264 109.779 432.93 110.037C432.596 110.295 432.429 110.632 432.429 111.048C432.429 111.44 432.584 111.736 432.895 111.936C433.205 112.135 433.765 112.325 434.573 112.507C435.388 112.688 436.047 112.905 436.551 113.157C437.055 113.409 437.427 113.714 437.667 114.071C437.913 114.423 438.036 114.854 438.036 115.363C438.036 116.213 437.696 116.896 437.017 117.411C436.337 117.921 435.455 118.176 434.371 118.176C433.609 118.176 432.936 118.041 432.35 117.771C431.764 117.502 431.304 117.127 430.97 116.646C430.642 116.16 430.478 115.636 430.478 115.073H432.104C432.133 115.618 432.35 116.052 432.754 116.374C433.164 116.69 433.703 116.849 434.371 116.849C434.986 116.849 435.479 116.726 435.848 116.479C436.223 116.228 436.41 115.894 436.41 115.478ZM453.364 106.592H449.251V118H447.572V106.592H443.468V105.203H453.364V106.592ZM453.698 113.157C453.698 112.226 453.88 111.388 454.243 110.644C454.612 109.899 455.122 109.325 455.772 108.921C456.429 108.517 457.176 108.314 458.014 108.314C459.309 108.314 460.354 108.763 461.151 109.659C461.954 110.556 462.355 111.748 462.355 113.236V113.351C462.355 114.276 462.177 115.108 461.819 115.847C461.468 116.579 460.961 117.15 460.299 117.561C459.643 117.971 458.887 118.176 458.031 118.176C456.742 118.176 455.696 117.728 454.894 116.831C454.097 115.935 453.698 114.748 453.698 113.271V113.157ZM455.333 113.351C455.333 114.405 455.576 115.252 456.062 115.891C456.555 116.529 457.211 116.849 458.031 116.849C458.857 116.849 459.514 116.526 460 115.882C460.486 115.231 460.729 114.323 460.729 113.157C460.729 112.114 460.48 111.271 459.982 110.626C459.49 109.976 458.834 109.65 458.014 109.65C457.211 109.65 456.563 109.97 456.071 110.608C455.579 111.247 455.333 112.161 455.333 113.351ZM469.114 118V105.203H473.298C474.687 105.203 475.729 105.49 476.427 106.064C477.13 106.639 477.481 107.488 477.481 108.613C477.481 109.211 477.312 109.741 476.972 110.204C476.632 110.661 476.169 111.016 475.583 111.268C476.274 111.461 476.819 111.83 477.218 112.375C477.622 112.914 477.824 113.559 477.824 114.309C477.824 115.457 477.452 116.359 476.708 117.016C475.964 117.672 474.912 118 473.553 118H469.114ZM470.802 112.015V116.62H473.588C474.373 116.62 474.991 116.418 475.442 116.014C475.899 115.604 476.128 115.041 476.128 114.326C476.128 112.785 475.29 112.015 473.614 112.015H470.802ZM470.802 110.661H473.351C474.089 110.661 474.678 110.477 475.117 110.107C475.562 109.738 475.785 109.237 475.785 108.604C475.785 107.901 475.58 107.392 475.17 107.075C474.76 106.753 474.136 106.592 473.298 106.592H470.802V110.661ZM485.945 117.06C485.312 117.804 484.384 118.176 483.159 118.176C482.146 118.176 481.372 117.883 480.839 117.297C480.312 116.705 480.045 115.832 480.039 114.678V108.49H481.665V114.634C481.665 116.075 482.251 116.796 483.423 116.796C484.665 116.796 485.491 116.333 485.901 115.407V108.49H487.527V118H485.98L485.945 117.06ZM491.772 118H490.146V108.49H491.772V118ZM490.015 105.968C490.015 105.704 490.094 105.481 490.252 105.3C490.416 105.118 490.656 105.027 490.973 105.027C491.289 105.027 491.529 105.118 491.693 105.3C491.857 105.481 491.939 105.704 491.939 105.968C491.939 106.231 491.857 106.451 491.693 106.627C491.529 106.803 491.289 106.891 490.973 106.891C490.656 106.891 490.416 106.803 490.252 106.627C490.094 106.451 490.015 106.231 490.015 105.968ZM496.149 118H494.523V104.5H496.149V118ZM498.364 113.166C498.364 111.707 498.71 110.535 499.401 109.65C500.093 108.76 500.998 108.314 502.117 108.314C503.23 108.314 504.112 108.695 504.763 109.457V104.5H506.389V118H504.895L504.815 116.98C504.165 117.777 503.26 118.176 502.1 118.176C500.998 118.176 500.099 117.725 499.401 116.822C498.71 115.92 498.364 114.742 498.364 113.289V113.166ZM499.99 113.351C499.99 114.429 500.213 115.272 500.658 115.882C501.104 116.491 501.719 116.796 502.504 116.796C503.535 116.796 504.288 116.333 504.763 115.407V111.039C504.276 110.143 503.529 109.694 502.521 109.694C501.725 109.694 501.104 110.002 500.658 110.617C500.213 111.232 499.99 112.144 499.99 113.351ZM520.706 114.66H515.345L514.141 118H512.4L517.287 105.203H518.764L523.659 118H521.928L520.706 114.66ZM515.854 113.271H520.205L518.025 107.286L515.854 113.271ZM532.606 113.966L532.853 115.653L533.213 114.133L535.744 105.203H537.168L539.638 114.133L539.989 115.68L540.262 113.957L542.248 105.203H543.944L540.842 118H539.304L536.667 108.675L536.465 107.699L536.263 108.675L533.529 118H531.991L528.897 105.203H530.585L532.606 113.966ZM544.858 113.157C544.858 112.226 545.04 111.388 545.403 110.644C545.772 109.899 546.282 109.325 546.933 108.921C547.589 108.517 548.336 108.314 549.174 108.314C550.469 108.314 551.515 108.763 552.312 109.659C553.114 110.556 553.516 111.748 553.516 113.236V113.351C553.516 114.276 553.337 115.108 552.979 115.847C552.628 116.579 552.121 117.15 551.459 117.561C550.803 117.971 550.047 118.176 549.191 118.176C547.902 118.176 546.856 117.728 546.054 116.831C545.257 115.935 544.858 114.748 544.858 113.271V113.157ZM546.493 113.351C546.493 114.405 546.736 115.252 547.223 115.891C547.715 116.529 548.371 116.849 549.191 116.849C550.018 116.849 550.674 116.526 551.16 115.882C551.646 115.231 551.89 114.323 551.89 113.157C551.89 112.114 551.641 111.271 551.143 110.626C550.65 109.976 549.994 109.65 549.174 109.65C548.371 109.65 547.724 109.97 547.231 110.608C546.739 111.247 546.493 112.161 546.493 113.351ZM560.151 109.949C559.905 109.908 559.639 109.888 559.352 109.888C558.285 109.888 557.562 110.342 557.181 111.25V118H555.555V108.49H557.137L557.163 109.589C557.696 108.739 558.452 108.314 559.431 108.314C559.747 108.314 559.987 108.355 560.151 108.438V109.949ZM563.421 118H561.795V104.5H563.421V118ZM565.636 113.166C565.636 111.707 565.981 110.535 566.673 109.65C567.364 108.76 568.27 108.314 569.389 108.314C570.502 108.314 571.384 108.695 572.034 109.457V104.5H573.66V118H572.166L572.087 116.98C571.437 117.777 570.531 118.176 569.371 118.176C568.27 118.176 567.37 117.725 566.673 116.822C565.981 115.92 565.636 114.742 565.636 113.289V113.166ZM567.262 113.351C567.262 114.429 567.484 115.272 567.93 115.882C568.375 116.491 568.99 116.796 569.775 116.796C570.807 116.796 571.56 116.333 572.034 115.407V111.039C571.548 110.143 570.801 109.694 569.793 109.694C568.996 109.694 568.375 110.002 567.93 110.617C567.484 111.232 567.262 112.144 567.262 113.351ZM583.671 113.966L583.917 115.653L584.277 114.133L586.809 105.203H588.232L590.702 114.133L591.054 115.68L591.326 113.957L593.312 105.203H595.009L591.906 118H590.368L587.731 108.675L587.529 107.699L587.327 108.675L584.594 118H583.056L579.962 105.203H581.649L583.671 113.966ZM598.261 109.642C598.981 108.757 599.919 108.314 601.073 108.314C603.083 108.314 604.097 109.448 604.114 111.716V118H602.488V111.707C602.482 111.021 602.324 110.515 602.014 110.187C601.709 109.858 601.231 109.694 600.581 109.694C600.054 109.694 599.591 109.835 599.192 110.116C598.794 110.397 598.483 110.767 598.261 111.224V118H596.635V104.5H598.261V109.642ZM610.495 118.176C609.206 118.176 608.157 117.754 607.349 116.91C606.54 116.061 606.136 114.927 606.136 113.509V113.21C606.136 112.267 606.314 111.426 606.672 110.688C607.035 109.943 607.539 109.363 608.184 108.947C608.834 108.525 609.537 108.314 610.293 108.314C611.529 108.314 612.49 108.722 613.176 109.536C613.861 110.351 614.204 111.517 614.204 113.034V113.711H607.762C607.785 114.648 608.058 115.407 608.579 115.987C609.106 116.562 609.774 116.849 610.583 116.849C611.157 116.849 611.644 116.731 612.042 116.497C612.44 116.263 612.789 115.952 613.088 115.565L614.081 116.339C613.284 117.563 612.089 118.176 610.495 118.176ZM610.293 109.65C609.637 109.65 609.086 109.891 608.641 110.371C608.195 110.846 607.92 111.514 607.814 112.375H612.578V112.252C612.531 111.426 612.309 110.787 611.91 110.336C611.512 109.879 610.973 109.65 610.293 109.65ZM620.69 109.949C620.444 109.908 620.178 109.888 619.891 109.888C618.824 109.888 618.101 110.342 617.72 111.25V118H616.094V108.49H617.676L617.702 109.589C618.235 108.739 618.991 108.314 619.97 108.314C620.286 108.314 620.526 108.355 620.69 108.438V109.949ZM625.964 118.176C624.675 118.176 623.626 117.754 622.817 116.91C622.009 116.061 621.604 114.927 621.604 113.509V113.21C621.604 112.267 621.783 111.426 622.141 110.688C622.504 109.943 623.008 109.363 623.652 108.947C624.303 108.525 625.006 108.314 625.762 108.314C626.998 108.314 627.959 108.722 628.645 109.536C629.33 110.351 629.673 111.517 629.673 113.034V113.711H623.23C623.254 114.648 623.526 115.407 624.048 115.987C624.575 116.562 625.243 116.849 626.052 116.849C626.626 116.849 627.112 116.731 627.511 116.497C627.909 116.263 628.258 115.952 628.557 115.565L629.55 116.339C628.753 117.563 627.558 118.176 625.964 118.176ZM625.762 109.65C625.105 109.65 624.555 109.891 624.109 110.371C623.664 110.846 623.389 111.514 623.283 112.375H628.047V112.252C628 111.426 627.777 110.787 627.379 110.336C626.98 109.879 626.441 109.65 625.762 109.65ZM636.282 118V105.203H639.895C641.008 105.203 641.992 105.449 642.848 105.941C643.703 106.434 644.362 107.134 644.825 108.042C645.294 108.95 645.531 109.993 645.537 111.171V111.988C645.537 113.195 645.303 114.253 644.834 115.161C644.371 116.069 643.706 116.767 642.839 117.253C641.978 117.739 640.973 117.988 639.824 118H636.282ZM637.97 106.592V116.62H639.745C641.046 116.62 642.057 116.216 642.777 115.407C643.504 114.599 643.867 113.447 643.867 111.953V111.206C643.867 109.753 643.524 108.625 642.839 107.822C642.159 107.014 641.192 106.604 639.938 106.592H637.97ZM653.711 118C653.617 117.812 653.541 117.479 653.482 116.998C652.727 117.783 651.824 118.176 650.775 118.176C649.838 118.176 649.067 117.912 648.464 117.385C647.866 116.852 647.567 116.178 647.567 115.363C647.567 114.373 647.942 113.605 648.692 113.061C649.448 112.51 650.509 112.234 651.874 112.234H653.456V111.487C653.456 110.919 653.286 110.468 652.946 110.134C652.606 109.794 652.105 109.624 651.443 109.624C650.863 109.624 650.377 109.771 649.984 110.063C649.592 110.356 649.396 110.711 649.396 111.127H647.761C647.761 110.652 647.928 110.195 648.262 109.756C648.602 109.311 649.059 108.959 649.633 108.701C650.213 108.443 650.849 108.314 651.54 108.314C652.636 108.314 653.494 108.59 654.115 109.141C654.736 109.686 655.059 110.438 655.082 111.399V115.776C655.082 116.649 655.193 117.344 655.416 117.859V118H653.711ZM651.013 116.761C651.522 116.761 652.006 116.629 652.463 116.365C652.92 116.102 653.251 115.759 653.456 115.337V113.386H652.182C650.189 113.386 649.193 113.969 649.193 115.135C649.193 115.645 649.363 116.043 649.703 116.33C650.043 116.617 650.479 116.761 651.013 116.761ZM659.837 106.188V108.49H661.612V109.747H659.837V115.645C659.837 116.025 659.916 116.312 660.074 116.506C660.232 116.693 660.502 116.787 660.883 116.787C661.07 116.787 661.328 116.752 661.656 116.682V118C661.229 118.117 660.812 118.176 660.408 118.176C659.682 118.176 659.134 117.956 658.765 117.517C658.396 117.077 658.211 116.453 658.211 115.645V109.747H656.479V108.49H658.211V106.188H659.837ZM669.391 118C669.297 117.812 669.221 117.479 669.162 116.998C668.406 117.783 667.504 118.176 666.455 118.176C665.518 118.176 664.747 117.912 664.144 117.385C663.546 116.852 663.247 116.178 663.247 115.363C663.247 114.373 663.622 113.605 664.372 113.061C665.128 112.51 666.188 112.234 667.554 112.234H669.136V111.487C669.136 110.919 668.966 110.468 668.626 110.134C668.286 109.794 667.785 109.624 667.123 109.624C666.543 109.624 666.057 109.771 665.664 110.063C665.271 110.356 665.075 110.711 665.075 111.127H663.44C663.44 110.652 663.607 110.195 663.941 109.756C664.281 109.311 664.738 108.959 665.312 108.701C665.893 108.443 666.528 108.314 667.22 108.314C668.315 108.314 669.174 108.59 669.795 109.141C670.416 109.686 670.738 110.438 670.762 111.399V115.776C670.762 116.649 670.873 117.344 671.096 117.859V118H669.391ZM666.692 116.761C667.202 116.761 667.686 116.629 668.143 116.365C668.6 116.102 668.931 115.759 669.136 115.337V113.386H667.861C665.869 113.386 664.873 113.969 664.873 115.135C664.873 115.645 665.043 116.043 665.383 116.33C665.723 116.617 666.159 116.761 666.692 116.761ZM685.088 112.349H679.718V118H678.03V105.203H685.958V106.592H679.718V110.969H685.088V112.349ZM689.491 118H687.865V104.5H689.491V118ZM691.671 113.157C691.671 112.226 691.853 111.388 692.216 110.644C692.585 109.899 693.095 109.325 693.745 108.921C694.401 108.517 695.148 108.314 695.986 108.314C697.281 108.314 698.327 108.763 699.124 109.659C699.927 110.556 700.328 111.748 700.328 113.236V113.351C700.328 114.276 700.149 115.108 699.792 115.847C699.44 116.579 698.934 117.15 698.271 117.561C697.615 117.971 696.859 118.176 696.004 118.176C694.715 118.176 693.669 117.728 692.866 116.831C692.069 115.935 691.671 114.748 691.671 113.271V113.157ZM693.306 113.351C693.306 114.405 693.549 115.252 694.035 115.891C694.527 116.529 695.184 116.849 696.004 116.849C696.83 116.849 697.486 116.526 697.973 115.882C698.459 115.231 698.702 114.323 698.702 113.157C698.702 112.114 698.453 111.271 697.955 110.626C697.463 109.976 696.807 109.65 695.986 109.65C695.184 109.65 694.536 109.97 694.044 110.608C693.552 111.247 693.306 112.161 693.306 113.351ZM710.787 115.759L712.615 108.49H714.241L711.473 118H710.154L707.843 110.793L705.593 118H704.274L701.515 108.49H703.132L705.004 115.609L707.219 108.49H708.528L710.787 115.759ZM721.439 115.478C721.439 115.038 721.272 114.698 720.938 114.458C720.61 114.212 720.033 114.001 719.207 113.825C718.387 113.649 717.733 113.438 717.247 113.192C716.767 112.946 716.409 112.653 716.175 112.313C715.946 111.974 715.832 111.569 715.832 111.101C715.832 110.321 716.16 109.662 716.816 109.123C717.479 108.584 718.322 108.314 719.348 108.314C720.426 108.314 721.299 108.593 721.967 109.149C722.641 109.706 722.978 110.418 722.978 111.285H721.343C721.343 110.84 721.152 110.456 720.771 110.134C720.396 109.812 719.922 109.65 719.348 109.65C718.756 109.65 718.293 109.779 717.959 110.037C717.625 110.295 717.458 110.632 717.458 111.048C717.458 111.44 717.613 111.736 717.924 111.936C718.234 112.135 718.794 112.325 719.603 112.507C720.417 112.688 721.076 112.905 721.58 113.157C722.084 113.409 722.456 113.714 722.696 114.071C722.942 114.423 723.065 114.854 723.065 115.363C723.065 116.213 722.726 116.896 722.046 117.411C721.366 117.921 720.484 118.176 719.4 118.176C718.639 118.176 717.965 118.041 717.379 117.771C716.793 117.502 716.333 117.127 715.999 116.646C715.671 116.16 715.507 115.636 715.507 115.073H717.133C717.162 115.618 717.379 116.052 717.783 116.374C718.193 116.69 718.732 116.849 719.4 116.849C720.016 116.849 720.508 116.726 720.877 116.479C721.252 116.228 721.439 115.894 721.439 115.478ZM736.961 112.349H731.591V118H729.903V105.203H737.831V106.592H731.591V110.969H736.961V112.349ZM743.966 109.949C743.72 109.908 743.453 109.888 743.166 109.888C742.1 109.888 741.376 110.342 740.995 111.25V118H739.369V108.49H740.951L740.978 109.589C741.511 108.739 742.267 108.314 743.245 108.314C743.562 108.314 743.802 108.355 743.966 108.438V109.949ZM749.239 118.176C747.95 118.176 746.901 117.754 746.093 116.91C745.284 116.061 744.88 114.927 744.88 113.509V113.21C744.88 112.267 745.059 111.426 745.416 110.688C745.779 109.943 746.283 109.363 746.928 108.947C747.578 108.525 748.281 108.314 749.037 108.314C750.273 108.314 751.234 108.722 751.92 109.536C752.605 110.351 752.948 111.517 752.948 113.034V113.711H746.506C746.529 114.648 746.802 115.407 747.323 115.987C747.851 116.562 748.519 116.849 749.327 116.849C749.901 116.849 750.388 116.731 750.786 116.497C751.185 116.263 751.533 115.952 751.832 115.565L752.825 116.339C752.028 117.563 750.833 118.176 749.239 118.176ZM749.037 109.65C748.381 109.65 747.83 109.891 747.385 110.371C746.939 110.846 746.664 111.514 746.559 112.375H751.322V112.252C751.275 111.426 751.053 110.787 750.654 110.336C750.256 109.879 749.717 109.65 749.037 109.65ZM758.784 118.176C757.495 118.176 756.446 117.754 755.638 116.91C754.829 116.061 754.425 114.927 754.425 113.509V113.21C754.425 112.267 754.604 111.426 754.961 110.688C755.324 109.943 755.828 109.363 756.473 108.947C757.123 108.525 757.826 108.314 758.582 108.314C759.818 108.314 760.779 108.722 761.465 109.536C762.15 110.351 762.493 111.517 762.493 113.034V113.711H756.051C756.074 114.648 756.347 115.407 756.868 115.987C757.396 116.562 758.063 116.849 758.872 116.849C759.446 116.849 759.933 116.731 760.331 116.497C760.729 116.263 761.078 115.952 761.377 115.565L762.37 116.339C761.573 117.563 760.378 118.176 758.784 118.176ZM758.582 109.65C757.926 109.65 757.375 109.891 756.93 110.371C756.484 110.846 756.209 111.514 756.104 112.375H760.867V112.252C760.82 111.426 760.598 110.787 760.199 110.336C759.801 109.879 759.262 109.65 758.582 109.65ZM766.149 118H764.523V104.5H766.149V118ZM771.871 115.618L774.086 108.49H775.826L772.003 119.468C771.411 121.05 770.471 121.841 769.182 121.841L768.874 121.814L768.268 121.7V120.382L768.707 120.417C769.258 120.417 769.686 120.306 769.99 120.083C770.301 119.86 770.556 119.453 770.755 118.861L771.115 117.895L767.723 108.49H769.498L771.871 115.618ZM779.104 114.388H777.637L777.522 105.203H779.228L779.104 114.388ZM777.461 117.183C777.461 116.919 777.54 116.699 777.698 116.523C777.862 116.342 778.103 116.251 778.419 116.251C778.735 116.251 778.976 116.342 779.14 116.523C779.304 116.699 779.386 116.919 779.386 117.183C779.386 117.446 779.304 117.666 779.14 117.842C778.976 118.012 778.735 118.097 778.419 118.097C778.103 118.097 777.862 118.012 777.698 117.842C777.54 117.666 777.461 117.446 777.461 117.183Z" fill="white" fill-opacity="0.8"/>
<defs>
<linearGradient id="paint0_linear" x1="-89.4167" y1="72" x2="1121.93" y2="397.218" gradientUnits="userSpaceOnUse">
<stop stop-color="#3856F2"/>
<stop offset="1" stop-color="#6F85F5"/>
</linearGradient>
</defs>
</svg>
