<svg width="240" height="30" viewBox="0 0 240 30" fill="none" xmlns="http://www.w3.org/2000/svg">
<path d="M55.0656 16.9451C55.0656 19.033 54.3828 20.6264 53.0172 21.7253C51.6737 22.8022 49.9336 23.3407 47.7971 23.3407H40.3965C40.2863 23.3407 40.1872 23.3077 40.0991 23.2418C40.033 23.1538 40 23.0549 40 22.9451V0.65934C40 0.54945 40.033 0.461538 40.0991 0.395603C40.1872 0.307691 40.2863 0.263735 40.3965 0.263735H47.3016C49.6583 0.263735 51.4865 0.791208 52.786 1.84615C54.0855 2.87912 54.7353 4.46154 54.7353 6.59341C54.7353 8.76923 53.8873 10.3407 52.1913 11.3077C52.0811 11.3736 52.0701 11.4396 52.1582 11.5055C54.0965 12.6044 55.0656 14.4176 55.0656 16.9451ZM44.8236 4.25275C44.7135 4.25275 44.6585 4.30769 44.6585 4.41758V9.59341C44.6585 9.7033 44.7135 9.75824 44.8236 9.75824H47.3346C48.2156 9.75824 48.9094 9.51648 49.416 9.03297C49.9226 8.54945 50.1759 7.87912 50.1759 7.02198C50.1759 6.14286 49.9226 5.46154 49.416 4.97802C48.9315 4.4945 48.2376 4.25275 47.3346 4.25275H44.8236ZM47.5989 19.3187C48.4799 19.3187 49.1627 19.0659 49.6473 18.5604C50.1539 18.033 50.4072 17.2967 50.4072 16.3516C50.4072 15.4066 50.1539 14.6703 49.6473 14.1429C49.1627 13.5934 48.4799 13.3187 47.5989 13.3187H44.8236C44.7135 13.3187 44.6585 13.3736 44.6585 13.4835V19.1538C44.6585 19.2637 44.7135 19.3187 44.8236 19.3187H47.5989Z" fill="#31383E"/>
<path d="M73.2576 29.9011C73.1915 29.9011 73.1364 29.8571 73.0924 29.7692C73.0483 29.7033 73.0263 29.6154 73.0263 29.5055V26.4725C73.0263 26.2088 73.1474 26.0769 73.3897 26.0769C74.6452 26.0549 75.5372 25.8681 76.0659 25.5165C76.6165 25.1868 76.9689 24.4945 77.1231 23.4396L77.0901 23.2418L72.3325 6.82417L72.2995 6.69231C72.2995 6.47253 72.4206 6.36264 72.6629 6.36264H76.8258C77.068 6.36264 77.2112 6.48352 77.2553 6.72527L79.4028 16.978C79.4248 17.0659 79.4578 17.1099 79.5019 17.1099C79.5459 17.1099 79.579 17.0659 79.601 16.978L81.7485 6.72527C81.7926 6.48352 81.9357 6.36264 82.178 6.36264L86.2748 6.3956C86.407 6.3956 86.4951 6.43956 86.5391 6.52747C86.6052 6.59341 86.6272 6.69231 86.6052 6.82417L81.5503 23.967C81.0657 25.5714 80.5481 26.7692 79.9975 27.5604C79.4688 28.3736 78.709 28.967 77.7178 29.3407C76.7266 29.7143 75.306 29.9011 73.4558 29.9011H73.2576Z" fill="#31383E"/>
<path d="M94.6163 23.6044C92.7001 23.6044 91.1252 23.1319 89.8918 22.1868C88.6804 21.2198 87.9535 19.9011 87.7112 18.2308C87.535 17.2198 87.4469 16.0879 87.4469 14.8352C87.4469 13.5604 87.535 12.4286 87.7112 11.4396C87.9535 9.81319 88.6804 8.52747 89.8918 7.58242C91.1252 6.61539 92.7001 6.13187 94.6163 6.13187C96.5105 6.13187 98.0523 6.61539 99.2417 7.58242C100.453 8.52747 101.191 9.81319 101.455 11.4396C101.632 12.4286 101.72 13.5604 101.72 14.8352C101.72 16.0659 101.632 17.1868 101.455 18.1978C101.213 19.8901 100.486 21.2198 99.2748 22.1868C98.0854 23.1319 96.5326 23.6044 94.6163 23.6044ZM94.6163 19.6154C95.189 19.6154 95.6736 19.4286 96.07 19.0549C96.4885 18.6813 96.7638 18.1758 96.896 17.5385C97.0061 16.6154 97.0612 15.7143 97.0612 14.8352C97.0612 13.9341 97.0061 13.044 96.896 12.1648C96.7859 11.5275 96.5215 11.033 96.1031 10.6813C95.7066 10.3077 95.2 10.1209 94.5833 10.1209C93.9886 10.1209 93.482 10.3077 93.0635 10.6813C92.667 11.033 92.4137 11.5275 92.3036 12.1648C92.1935 12.8242 92.1384 13.7143 92.1384 14.8352C92.1384 15.9341 92.1825 16.8352 92.2706 17.5385C92.4027 18.1758 92.678 18.6813 93.0965 19.0549C93.515 19.4286 94.0216 19.6154 94.6163 19.6154Z" fill="#31383E"/>
<path d="M112.785 6.13187C114.393 6.13187 115.649 6.64835 116.552 7.68132C117.477 8.69231 117.939 10.1099 117.939 11.9341V22.9451C117.939 23.0549 117.895 23.1538 117.807 23.2418C117.741 23.3077 117.653 23.3407 117.543 23.3407H113.677C113.567 23.3407 113.468 23.3077 113.38 23.2418C113.314 23.1538 113.281 23.0549 113.281 22.9451V12.5934C113.281 11.8242 113.094 11.2198 112.719 10.7802C112.345 10.3407 111.838 10.1209 111.199 10.1209C110.539 10.1209 110.01 10.3516 109.614 10.8132C109.239 11.2527 109.052 11.8571 109.052 12.6264V22.9451C109.052 23.0549 109.008 23.1538 108.92 23.2418C108.854 23.3077 108.766 23.3407 108.655 23.3407H104.79C104.68 23.3407 104.581 23.3077 104.493 23.2418C104.426 23.1538 104.393 23.0549 104.393 22.9451V6.79121C104.393 6.68132 104.426 6.59341 104.493 6.52747C104.581 6.43956 104.68 6.3956 104.79 6.3956H108.655C108.766 6.3956 108.854 6.43956 108.92 6.52747C109.008 6.59341 109.052 6.68132 109.052 6.79121V7.71428C109.052 7.78022 109.074 7.82418 109.118 7.84615C109.162 7.84615 109.217 7.8022 109.283 7.71428C110.076 6.65934 111.243 6.13187 112.785 6.13187Z" fill="#31383E"/>
<path d="M129.836 0.65934C129.836 0.54945 129.869 0.461538 129.935 0.395603C130.024 0.307691 130.123 0.263735 130.233 0.263735H134.098C134.208 0.263735 134.297 0.307691 134.363 0.395603C134.451 0.461538 134.495 0.54945 134.495 0.65934V22.9451C134.495 23.0549 134.451 23.1538 134.363 23.2418C134.297 23.3077 134.208 23.3407 134.098 23.3407H130.233C130.123 23.3407 130.024 23.3077 129.935 23.2418C129.869 23.1538 129.836 23.0549 129.836 22.9451V22.2198C129.836 22.1538 129.814 22.1099 129.77 22.0879C129.726 22.0659 129.682 22.0879 129.638 22.1538C128.823 23.1209 127.656 23.6044 126.136 23.6044C123.449 23.6044 121.72 21.8571 120.949 18.3626C120.729 17.2637 120.619 16.044 120.619 14.7033C120.619 13.5165 120.718 12.3626 120.916 11.2418C121.599 7.83516 123.361 6.13187 126.202 6.13187C126.973 6.13187 127.634 6.24176 128.184 6.46154C128.735 6.65934 129.22 7.01099 129.638 7.51648C129.682 7.58242 129.726 7.6044 129.77 7.58242C129.814 7.56044 129.836 7.51648 129.836 7.45055V0.65934ZM129.572 17.7033C129.726 17.0659 129.803 16.1099 129.803 14.8352C129.803 13.6703 129.715 12.7033 129.539 11.9341C129.253 10.7253 128.603 10.1209 127.59 10.1209C127.083 10.1209 126.665 10.2747 126.334 10.5824C126.004 10.8901 125.762 11.3297 125.607 11.9011C125.409 12.5385 125.31 13.5165 125.31 14.8352C125.31 16.0879 125.387 17.033 125.541 17.6703C125.828 18.967 126.51 19.6154 127.59 19.6154C128.581 19.6154 129.242 18.978 129.572 17.7033Z" fill="#31383E"/>
<path d="M144.667 23.6044C143.147 23.6044 141.814 23.3407 140.669 22.8132C139.524 22.2637 138.632 21.5055 137.993 20.5385C137.376 19.5494 137.068 18.4176 137.068 17.1429V16.2857C137.068 16.1758 137.101 16.0879 137.167 16.022C137.255 15.9341 137.354 15.8901 137.464 15.8901H141.264C141.374 15.8901 141.462 15.9341 141.528 16.022C141.616 16.0879 141.66 16.1758 141.66 16.2857V16.9121C141.66 17.6813 141.947 18.3297 142.519 18.8571C143.092 19.3626 143.863 19.6154 144.832 19.6154C145.691 19.6154 146.341 19.3956 146.781 18.956C147.244 18.5165 147.475 17.956 147.475 17.2747C147.475 16.7692 147.332 16.3407 147.046 15.989C146.759 15.6154 146.352 15.2747 145.823 14.967C145.317 14.6374 144.524 14.1978 143.444 13.6484C142.123 12.989 141.044 12.3736 140.207 11.8022C139.37 11.2308 138.654 10.4945 138.059 9.59341C137.464 8.69231 137.167 7.6044 137.167 6.32967C137.167 5.05495 137.464 3.94505 138.059 3C138.676 2.03297 139.535 1.2967 140.636 0.791209C141.737 0.263737 142.993 0 144.403 0C145.878 0 147.189 0.285713 148.334 0.857141C149.479 1.40659 150.372 2.18681 151.01 3.1978C151.649 4.20879 151.968 5.37363 151.968 6.69231V7.35165C151.968 7.46154 151.924 7.56044 151.836 7.64835C151.77 7.71429 151.682 7.74725 151.572 7.74725H147.772C147.662 7.74725 147.563 7.71429 147.475 7.64835C147.409 7.56044 147.376 7.46154 147.376 7.35165V6.75824C147.376 5.96703 147.101 5.30769 146.55 4.78022C145.999 4.25275 145.251 3.98901 144.303 3.98901C143.51 3.98901 142.883 4.1978 142.42 4.61538C141.98 5.01099 141.759 5.57143 141.759 6.2967C141.759 6.8022 141.892 7.24176 142.156 7.61538C142.42 7.98901 142.828 8.35165 143.378 8.70329C143.929 9.03297 144.766 9.47253 145.889 10.022L146.583 10.4176C147.861 11.1209 148.852 11.7363 149.557 12.2637C150.283 12.7692 150.889 13.4176 151.374 14.2088C151.858 15 152.101 15.956 152.101 17.0769C152.101 19.0769 151.418 20.6703 150.052 21.8571C148.709 23.022 146.913 23.6044 144.667 23.6044Z" fill="#31383E"/>
<path d="M163.04 9.4945C163.04 9.60439 162.996 9.7033 162.908 9.79121C162.842 9.85714 162.754 9.89011 162.644 9.89011H160.1C159.99 9.89011 159.935 9.94505 159.935 10.0549V17.4725C159.935 18.1538 160.067 18.6484 160.331 18.956C160.617 19.2418 161.047 19.3736 161.619 19.3516H162.28C162.39 19.3516 162.478 19.3956 162.545 19.4835C162.633 19.5495 162.677 19.6374 162.677 19.7473V22.9451C162.677 23.2088 162.545 23.3407 162.28 23.3407C161.906 23.3626 161.355 23.3736 160.628 23.3736C158.888 23.3736 157.589 23.0879 156.73 22.5165C155.893 21.9451 155.474 20.8681 155.474 19.2857V10.0549C155.474 9.94505 155.635 9.78709 155.463 9.10027L155.854 9.89011C155.744 9.89011 155.724 10.1964 155.635 10.1305C155.463 11.1607 155.474 9.60439 155.474 9.4945L155.458 6.79121C155.458 6.68132 155.463 6.52473 155.463 6.52473C155.463 6.52473 156.496 3.60577 155.854 6.3956L155.463 6.52409C155.463 6.18132 155.474 6.34066 155.474 6.23077V2.43956C155.474 2.32967 155.507 2.24176 155.573 2.17582C155.661 2.08791 155.761 2.04395 155.871 2.04395H159.538C159.648 2.04395 159.736 2.08791 159.802 2.17582C159.89 2.24176 159.935 2.32967 159.935 2.43956V6.23077C159.935 6.34066 159.99 6.3956 160.1 6.3956H162.644C162.754 6.3956 162.842 6.43956 162.908 6.52747C162.996 6.59341 163.04 6.68132 163.04 6.79121V9.4945Z" fill="#31383E"/>
<path d="M172.406 23.6044C170.489 23.6044 168.915 23.1319 167.681 22.1868C166.47 21.2198 165.743 19.9011 165.501 18.2308C165.324 17.2198 165.236 16.0879 165.236 14.8352C165.236 13.5604 165.324 12.4286 165.501 11.4396C165.743 9.81319 166.47 8.52747 167.681 7.58242C168.915 6.61539 170.489 6.13187 172.406 6.13187C174.3 6.13187 175.842 6.61539 177.031 7.58242C178.242 8.52747 178.98 9.81319 179.245 11.4396C179.421 12.4286 179.509 13.5604 179.509 14.8352C179.509 16.0659 179.421 17.1868 179.245 18.1978C179.002 19.8901 178.276 21.2198 177.064 22.1868C175.875 23.1319 174.322 23.6044 172.406 23.6044ZM172.406 19.6154C172.978 19.6154 173.463 19.4286 173.859 19.0549C174.278 18.6813 174.553 18.1758 174.685 17.5385C174.795 16.6154 174.851 15.7143 174.851 14.8352C174.851 13.9341 174.795 13.044 174.685 12.1648C174.575 11.5275 174.311 11.033 173.892 10.6813C173.496 10.3077 172.989 10.1209 172.373 10.1209C171.778 10.1209 171.271 10.3077 170.853 10.6813C170.456 11.033 170.203 11.5275 170.093 12.1648C169.983 12.8242 169.928 13.7143 169.928 14.8352C169.928 15.9341 169.972 16.8352 170.06 17.5385C170.192 18.1758 170.467 18.6813 170.886 19.0549C171.304 19.4286 171.811 19.6154 172.406 19.6154Z" fill="#31383E"/>
<path d="M190.244 6.16483C190.839 6.16483 191.379 6.2967 191.863 6.56044C192.039 6.67033 192.105 6.84615 192.061 7.08791L191.401 10.8791C191.379 11.1429 191.224 11.2198 190.938 11.1099C190.586 11.022 190.266 10.978 189.98 10.978C189.716 10.978 189.429 11.011 189.121 11.0769C188.482 11.1648 187.943 11.4725 187.502 12C187.061 12.5275 186.841 13.1648 186.841 13.9121V22.9451C186.841 23.0549 186.797 23.1538 186.709 23.2418C186.643 23.3077 186.555 23.3407 186.445 23.3407H182.579C182.469 23.3407 182.37 23.3077 182.282 23.2418C182.216 23.1538 182.183 23.0549 182.183 22.9451V6.79121C182.183 6.68132 182.216 6.59341 182.282 6.52747C182.37 6.43956 182.469 6.3956 182.579 6.3956H186.445C186.555 6.3956 186.643 6.43956 186.709 6.52747C186.797 6.59341 186.841 6.68132 186.841 6.79121V8.10989C186.841 8.1978 186.852 8.25275 186.874 8.27473C186.918 8.27473 186.962 8.24176 187.006 8.17582C187.777 6.83516 188.857 6.16483 190.244 6.16483Z" fill="#31383E"/>
<path d="M200.177 6.13187C201.498 6.13187 202.677 6.37363 203.712 6.85714C204.747 7.31868 205.551 7.97802 206.124 8.83516C206.718 9.67033 207.016 10.6264 207.016 11.7033V22.9451C207.016 23.0549 206.972 23.1538 206.884 23.2418C206.818 23.3077 206.729 23.3407 206.619 23.3407H202.754C202.644 23.3407 202.545 23.3077 202.456 23.2418C202.39 23.1538 202.357 23.0549 202.357 22.9451V22.022C202.357 21.956 202.335 21.9121 202.291 21.8901C202.247 21.8681 202.203 21.8901 202.159 21.956C201.322 23.0549 200.023 23.6044 198.261 23.6044C196.763 23.6044 195.507 23.2198 194.494 22.4505C193.503 21.6813 193.007 20.3956 193.007 18.5934C193.007 15.011 195.254 13.2198 199.747 13.2198H202.192C202.302 13.2198 202.357 13.1648 202.357 13.0549V12.2967C202.357 11.6374 202.159 11.1099 201.763 10.7143C201.388 10.3187 200.871 10.1209 200.21 10.1209C199.681 10.1209 199.241 10.2418 198.888 10.4835C198.536 10.7253 198.316 11.0549 198.227 11.4725C198.161 11.6923 198.007 11.8022 197.765 11.8022L193.767 11.5714C193.657 11.5714 193.558 11.5385 193.47 11.4725C193.404 11.4066 193.382 11.3187 193.404 11.2088C193.536 9.69231 194.219 8.47253 195.452 7.54945C196.708 6.60439 198.283 6.13187 200.177 6.13187ZM199.648 20.0769C200.397 20.0769 201.036 19.8681 201.564 19.4505C202.093 19.033 202.357 18.4835 202.357 17.8022V16.4176C202.357 16.3077 202.302 16.2527 202.192 16.2527H200.342C199.527 16.2527 198.888 16.4286 198.426 16.7802C197.963 17.1319 197.732 17.6374 197.732 18.2967C197.732 18.8681 197.908 19.3077 198.261 19.6154C198.613 19.9231 199.075 20.0769 199.648 20.0769Z" fill="#31383E"/>
<path d="M218.755 6.79121C218.755 6.68132 218.788 6.59341 218.854 6.52747C218.942 6.43956 219.041 6.3956 219.151 6.3956H223.017C223.127 6.3956 223.215 6.43956 223.281 6.52747C223.369 6.59341 223.413 6.68132 223.413 6.79121V22.1868C223.413 24.8242 222.675 26.7802 221.199 28.0549C219.746 29.3516 217.653 30 214.922 30C214.327 30 213.7 29.967 213.039 29.9011C212.775 29.8791 212.642 29.7363 212.642 29.4725L212.742 26.1429C212.742 25.9011 212.885 25.7802 213.171 25.7802C213.501 25.8242 213.964 25.8462 214.559 25.8462C216.034 25.8462 217.103 25.5275 217.763 24.8901C218.424 24.2747 218.755 23.2857 218.755 21.9231C218.755 21.8571 218.733 21.8132 218.688 21.7912C218.644 21.7692 218.6 21.7912 218.556 21.8571C217.741 22.8022 216.618 23.2747 215.186 23.2747C213.755 23.2747 212.543 22.8571 211.552 22.022C210.561 21.1868 209.933 19.9451 209.669 18.2967C209.515 17.7253 209.438 16.5604 209.438 14.8022C209.438 13.044 209.537 11.8132 209.735 11.1099C209.977 9.54945 210.561 8.32967 211.486 7.45055C212.411 6.57143 213.612 6.13187 215.087 6.13187C216.541 6.13187 217.697 6.62637 218.556 7.61538C218.6 7.68132 218.644 7.70329 218.688 7.68132C218.733 7.65934 218.755 7.61538 218.755 7.54945V6.79121ZM218.622 17.5055C218.711 16.8022 218.755 15.9011 218.755 14.8022C218.755 13.6813 218.711 12.7692 218.622 12.0659C218.512 11.4725 218.27 11 217.896 10.6483C217.521 10.2967 217.048 10.1209 216.475 10.1209C215.924 10.1209 215.451 10.3077 215.054 10.6813C214.68 11.033 214.438 11.4945 214.327 12.0659C214.195 12.8571 214.129 13.7692 214.129 14.8022C214.129 15.7692 214.184 16.6593 214.294 17.4725C214.404 18.0659 214.647 18.5385 215.021 18.8901C215.418 19.2418 215.913 19.4176 216.508 19.4176C217.081 19.4176 217.554 19.2418 217.929 18.8901C218.303 18.5385 218.534 18.0769 218.622 17.5055Z" fill="#31383E"/>
<path d="M239.901 12.2967C239.967 13.022 240 13.4808 240 14.3599L239.967 14.6154C239.967 14.8791 239.835 15.011 239.57 15.011L230.815 16.3846C230.705 16.3846 230.65 16.4396 230.65 16.5495C230.694 17.0549 230.738 17.4286 230.782 17.6703C230.892 18.2857 231.157 18.7692 231.575 19.1209C232.016 19.4725 232.555 19.6484 233.194 19.6484C234.273 19.6264 235.022 19.1319 235.441 18.1648C235.551 17.9451 235.716 17.8571 235.936 17.9011L239.438 18.5934C239.703 18.6593 239.791 18.8242 239.703 19.0879C239.218 20.5385 238.414 21.6593 237.291 22.4505C236.19 23.2198 234.824 23.6044 233.194 23.6044C231.234 23.6044 229.67 23.1648 228.503 22.2857C227.357 21.3846 226.608 20.0989 226.256 18.4286C226.058 17.5275 225.959 16.1538 225.959 14.3077C225.959 13.2527 226.025 12.3626 226.157 11.6374C226.399 9.96703 227.126 8.63736 228.337 7.64835C229.549 6.63736 231.08 6.13187 232.93 6.13187C234.934 6.13187 236.564 6.7033 237.819 7.84615C239.075 8.96703 239.769 10.4505 239.901 12.2967ZM232.963 10.1209C232.368 10.1209 231.872 10.2967 231.476 10.6483C231.102 11 230.859 11.4835 230.749 12.0989C230.683 12.4945 230.65 12.9121 230.65 13.3516C230.65 13.4615 230.705 13.5165 230.815 13.5165L235.11 12.8297C235.22 12.8297 235.275 12.7747 235.275 12.6648C235.275 12.2253 235.242 12.4945 235.176 12.0989C235.088 11.5055 234.846 11.033 234.449 10.6813C234.053 10.3077 233.557 10.1209 232.963 10.1209Z" fill="#31383E"/>
<path d="M71.2659 12.2967C71.332 13.022 71.365 13.4808 71.365 14.3599L71.332 14.6154C71.332 14.8791 71.1998 15.011 70.9355 15.011L62.1802 16.3846C62.0701 16.3846 62.015 16.4395 62.015 16.5494C62.0591 17.0549 62.1031 17.4286 62.1472 17.6703C62.2573 18.2857 62.5216 18.7692 62.9401 19.1209C63.3806 19.4725 63.9203 19.6483 64.559 19.6483C65.6383 19.6264 66.3872 19.1319 66.8056 18.1648C66.9158 17.945 67.081 17.8571 67.3012 17.9011L70.8033 18.5934C71.0676 18.6593 71.1558 18.8242 71.0676 19.0879C70.5831 20.5384 69.7791 21.6593 68.6558 22.4505C67.5545 23.2198 66.1889 23.6044 64.559 23.6044C62.5987 23.6044 61.0349 23.1648 59.8675 22.2857C58.7222 21.3846 57.9733 20.0989 57.6209 18.4286C57.4227 17.5275 57.3235 16.1538 57.3235 14.3077C57.3235 13.2527 57.3896 12.3626 57.5218 11.6373C57.7641 9.96702 58.4909 8.63735 59.7023 7.64834C60.9138 6.63735 62.4446 6.13185 64.2947 6.13185C66.2991 6.13185 67.929 6.70328 69.1844 7.84614C70.4399 8.96702 71.1337 10.4505 71.2659 12.2967ZM64.3277 10.1209C63.733 10.1209 63.2375 10.2967 62.841 10.6483C62.4666 11 62.2243 11.4835 62.1142 12.0989C62.0481 12.4945 62.015 12.9121 62.015 13.3516C62.015 13.4615 62.0701 13.5165 62.1802 13.5165L66.4753 12.8297C66.5854 12.8297 66.6405 12.7747 66.6405 12.6648C66.6405 12.2253 66.6074 12.4945 66.5413 12.0989C66.4532 11.5055 66.2109 11.033 65.8145 10.6813C65.418 10.3077 64.9224 10.1209 64.3277 10.1209Z" fill="#31383E"/>
<path fill-rule="evenodd" clip-rule="evenodd" d="M15.5925 23.9821L18.4507 23.9976C18.5224 23.9992 18.5944 24 18.6666 24C18.7034 24 18.7402 23.9998 18.7768 23.9994L18.8946 24L18.894 23.9973C23.9436 23.8795 28 19.8479 28 14.8917C28 9.86133 23.8213 5.78341 18.6666 5.78341C18.4538 5.78341 18.2427 5.79036 18.0335 5.80404C16.6779 2.40718 13.2936 0 9.33329 0C4.66171 0 0.791758 3.34939 0.107422 7.72165H13.6491C14.9138 7.72165 16.1283 8.21161 17.0254 9.08635C17.9228 9.96136 18.4289 11.1499 18.4299 12.3913C18.4304 13.0065 18.3067 13.6155 18.066 14.1835C17.8253 14.7515 17.4725 15.2672 17.0282 15.7012C16.9 15.8263 16.765 15.944 16.6239 16.0536C16.7636 16.1623 16.8977 16.279 17.0254 16.4035C17.9228 17.2785 18.4289 18.467 18.4299 19.7084C18.4304 20.3236 18.3067 20.9326 18.066 21.5006C17.8253 22.0686 17.4725 22.5843 17.0282 23.0183C16.6135 23.4232 16.1268 23.7497 15.5925 23.9821Z" fill="#2B99FF"/>
<path fill-rule="evenodd" clip-rule="evenodd" d="M13.8205 9.81175H0V15.1059H13.8205C15.3074 15.1059 16.5128 13.9207 16.5128 12.4588C16.5128 10.9969 15.3074 9.81175 13.8205 9.81175ZM11.8462 13.0588H14V14.1176H11.8462V13.0588Z" fill="#2DD482"/>
<path fill-rule="evenodd" clip-rule="evenodd" d="M13.8205 16.9412H0V22.2353H13.8205C15.3074 22.2353 16.5128 21.0502 16.5128 19.5882C16.5128 18.1263 15.3074 16.9412 13.8205 16.9412ZM11.8462 20.1176H14V21.1765H11.8462V20.1176Z" fill="#2DD482"/>
</svg>
