<svg width="920" height="240" viewBox="0 0 920 240" fill="none" xmlns="http://www.w3.org/2000/svg">
<mask id="mask0" mask-type="alpha" maskUnits="userSpaceOnUse" x="0" y="0" width="920" height="240">
<rect width="920" height="240" fill="white"/>
</mask>
<g mask="url(#mask0)">
<path d="M590.37 118.768C590.499 118.544 590.594 118.3 590.701 118.07" stroke="#263238" stroke-miterlimit="10"/>
<path d="M591.338 116.664C598.757 99.8864 600.554 81.5454 596.393 65.0732C592.232 48.601 582.399 35.1262 568.734 27.1704C555.068 19.2146 538.506 17.3229 522.147 21.8493C505.788 26.3756 490.753 37.0098 479.855 51.7621" stroke="#263238" stroke-miterlimit="10" stroke-dasharray="2.98 2.98"/>
<path d="M479.388 52.3821C479.238 52.5882 479.083 52.8032 478.937 53.0115" stroke="#263238" stroke-miterlimit="10"/>
<path d="M608.958 68.9747L603.511 89.9215L581.761 81.998L588.002 63.3601C588.002 63.3601 600.51 69.3456 608.958 68.9747Z" fill="white" stroke="#263238" stroke-linecap="round" stroke-linejoin="round"/>
<path d="M595.109 45.5331C595.109 45.5331 585.074 41.2861 581.375 32.045C581.375 32.045 568.594 34.8583 565.001 33.7153C565.001 33.7153 566.363 42.8603 570.484 47.6877C570.496 47.6944 587.128 48.3414 595.109 45.5331Z" fill="white" stroke="#263238" stroke-linecap="round" stroke-linejoin="round"/>
<path d="M595.109 45.5331C594.434 43.5267 593.366 41.744 591.97 40.2938C589.883 43.5146 586.932 46.0181 583.594 47.3994C583.594 47.3994 591.481 47.1106 595.109 45.5331Z" fill="#263238" stroke="#263238" stroke-linecap="round" stroke-linejoin="round"/>
<path d="M553.735 31.7902C553.735 31.7902 553.397 33.1413 550.291 33.9215C548.868 34.2944 546.635 33.447 546.635 33.447L545.779 22.5637C545.779 22.5637 553.765 29.0251 553.735 31.7902Z" fill="#263238" stroke="#263238" stroke-linecap="round" stroke-linejoin="round"/>
<path d="M553.734 31.7896C551.47 28.9086 548.682 26.5665 545.505 24.8774C543.972 24.1044 542.268 23.6981 540.494 23.6833C538.721 23.6684 536.917 24.0453 535.19 24.7911L534.228 13.1124C534.228 13.1124 542.299 10.6726 547.753 14.126C553.207 17.5793 554.419 29.7133 553.734 31.7896Z" fill="white" stroke="#263238" stroke-linecap="round" stroke-linejoin="round"/>
<path d="M517.59 16.8626C517.59 16.8626 514.845 29.8999 521.788 35.9687C521.788 35.9687 507.712 42.2548 502.614 40.9598C502.614 40.9598 496.388 31.1851 496.847 24.8646C496.847 24.8646 507.719 24.138 517.59 16.8626Z" fill="white" stroke="#263238" stroke-linecap="round" stroke-linejoin="round"/>
<path d="M570.853 122.093L577.276 102.927L600.651 116.423L591.243 133.865L570.853 122.093Z" fill="#263238" stroke="#263238" stroke-linecap="round" stroke-linejoin="round"/>
<path d="M601.696 108.553L590.393 128.299L571.712 120.266L582.489 98.5571L601.696 108.553Z" fill="white" stroke="#263238" stroke-linecap="round" stroke-linejoin="round"/>
<path d="M605.58 115.161L591.242 133.864L570.852 122.092L582.749 104.547L593.689 110.863L596.021 109.129L605.58 115.161Z" fill="#2B99FF" stroke="#263238" stroke-linecap="round" stroke-linejoin="round"/>
<path d="M483.044 71.3962L496.431 56.2514L473.056 42.7556L462.654 59.624L483.044 71.3962Z" fill="#263238" stroke="#263238" stroke-linecap="round" stroke-linejoin="round"/>
<path d="M479.348 37.9158L467.899 57.5769L484.197 69.7387L497.609 49.5511L479.348 37.9158Z" fill="white" stroke="#263238" stroke-linecap="round" stroke-linejoin="round"/>
<path d="M471.683 37.8556L462.654 59.6243L483.044 71.3965L492.291 52.3207L481.346 46.002L481.687 43.1175L471.683 37.8556Z" fill="#2B99FF" stroke="#263238" stroke-linecap="round" stroke-linejoin="round"/>
<path d="M151.615 229.323C151.615 229.323 151.559 229.043 151.471 228.524" stroke="#2E353A" stroke-miterlimit="10"/>
<path d="M204.933 158.509H204.134" stroke="#2E353A" stroke-miterlimit="10"/>
<path d="M204.134 97.9656H204.933" stroke="#2E353A" stroke-miterlimit="10"/>
<path d="M206.531 97.9656H235.305C235.305 97.9656 243.977 98.7169 243.617 108.724C243.257 118.73 228.831 128.105 229.75 148.087C230.669 168.068 264.765 165.087 269.409 185.092C274.052 205.098 239.94 204.098 236.767 214.425C235.77 216.74 235.279 219.242 235.329 221.762C235.329 225.119 235.329 233.095 235.329 236.508" stroke="#2E353A" stroke-miterlimit="10" stroke-dasharray="2 2"/>
<path d="M235.329 237.315V238.115" stroke="#2E353A" stroke-miterlimit="10"/>
<path d="M98.217 41.3306H97.4177" stroke="#2E353A" stroke-miterlimit="10"/>
<path d="M95.8273 41.3306H81.7365C81.7365 41.3306 43.3723 40.891 43.3723 73.3007C43.3723 88.3027 48.5834 99.5162 64.025 117.947C79.4666 136.378 79.2108 193.988 74.1915 204.322C69.1722 214.657 58.5262 213.114 54.7857 218.709C54.7857 218.709 52.0922 221.53 51.8604 224.975C51.6766 227.684 51.7805 236.564 51.8604 240.209" stroke="#2E353A" stroke-miterlimit="10" stroke-dasharray="1.99 1.99"/>
<path d="M106.841 83.0596C105.114 83.0621 103.419 83.5198 101.925 84.3863C102.063 83.6187 102.133 82.8404 102.133 82.0605C102.136 78.6732 100.873 75.4071 98.5927 72.9025C96.3123 70.3978 93.1786 68.8352 89.806 68.5211C86.4333 68.2069 83.0649 69.1638 80.3612 71.2042C77.6574 73.2446 75.8133 76.2214 75.1903 79.5509C73.5503 78.9523 71.7994 78.7191 70.0599 78.8677C68.3204 79.0162 66.6344 79.5428 65.1196 80.4107C63.6048 81.2787 62.2979 82.467 61.2902 83.8925C60.2824 85.3181 59.5981 86.9466 59.2852 88.6641C58.9723 90.3816 59.0383 92.1468 59.4785 93.8361C59.9187 95.5255 60.7226 97.0984 61.8339 98.4448C62.9453 99.7912 64.3372 100.879 65.9126 101.631C67.4879 102.384 69.2085 102.783 70.9542 102.801H106.849C109.467 102.801 111.977 101.761 113.828 99.91C115.68 98.0589 116.719 95.5482 116.719 92.9304C116.719 90.3125 115.68 87.8018 113.828 85.9507C111.977 84.0995 109.467 83.0596 106.849 83.0596H106.841Z" fill="#FEEE60" stroke="#2E353A" stroke-width="2" stroke-miterlimit="10"/>
<path d="M258.579 123.166C256.738 123.167 254.93 123.652 253.336 124.573C253.477 123.757 253.549 122.931 253.552 122.103C253.553 118.498 252.207 115.022 249.779 112.357C247.351 109.692 244.016 108.029 240.426 107.695C236.836 107.361 233.251 108.38 230.373 110.551C227.495 112.722 225.531 115.89 224.867 119.434C223.115 118.784 221.243 118.525 219.381 118.676C217.519 118.828 215.713 119.385 214.09 120.309C212.467 121.234 211.065 122.502 209.985 124.026C208.905 125.55 208.171 127.292 207.836 129.13C207.501 130.967 207.573 132.856 208.046 134.663C208.52 136.47 209.383 138.151 210.576 139.589C211.769 141.026 213.262 142.185 214.951 142.984C216.64 143.782 218.483 144.201 220.351 144.21H258.579C261.367 144.21 264.04 143.103 266.011 141.132C267.982 139.161 269.089 136.488 269.089 133.7C269.089 130.913 267.982 128.239 266.011 126.268C264.04 124.297 261.367 123.19 258.579 123.19V123.166Z" fill="#FEEE60" stroke="#2E353A" stroke-width="2" stroke-miterlimit="10"/>
<path d="M251.785 146.888H254.982" stroke="#2E353A" stroke-linecap="round" stroke-linejoin="round"/>
<path d="M236.2 146.888H247.389" stroke="#2E353A" stroke-linecap="round" stroke-linejoin="round"/>
<path d="M225.618 108.276C227.254 106.901 229.275 106.063 231.404 105.878" stroke="#2E353A" stroke-linecap="round" stroke-linejoin="round"/>
<path d="M221.813 114.119C222.101 112.855 222.645 111.663 223.412 110.618" stroke="#2E353A" stroke-linecap="round" stroke-linejoin="round"/>
<path d="M100.446 171.825C97.6791 171.827 94.9612 172.557 92.5658 173.943C92.7846 172.716 92.8943 171.472 92.8934 170.226C92.8974 164.807 90.8766 159.582 87.2275 155.576C83.5783 151.57 78.5641 149.072 73.1683 148.571C67.7725 148.071 62.3845 149.605 58.0609 152.872C53.7373 156.138 50.7903 160.903 49.7977 166.23C47.1729 165.267 44.3691 164.889 41.583 165.123C38.7968 165.357 36.0955 166.198 33.6682 167.586C31.241 168.973 29.1464 170.875 27.5314 173.158C25.9163 175.44 24.8197 178.048 24.3184 180.799C23.8171 183.549 23.9232 186.376 24.6292 189.082C25.3353 191.787 26.6243 194.305 28.4058 196.46C30.1874 198.615 32.4186 200.355 34.943 201.557C37.4674 202.759 40.2242 203.394 43.0201 203.419H100.446C104.572 203.326 108.498 201.622 111.384 198.671C114.269 195.72 115.884 191.757 115.884 187.63C115.884 183.503 114.269 179.54 111.384 176.589C108.498 173.638 104.572 171.933 100.446 171.841V171.825Z" fill="#FEEE60" stroke="#2E353A" stroke-width="2" stroke-miterlimit="10"/>
<path d="M28.2739 201.813C29.078 202.346 29.9194 202.822 30.7916 203.235" stroke="#2E353A" stroke-linecap="round" stroke-linejoin="round"/>
<path d="M22 194.443C22.7655 196.264 23.8786 197.917 25.2769 199.311" stroke="#2E353A" stroke-linecap="round" stroke-linejoin="round"/>
<path d="M57.4309 147.288C60.7507 145.003 64.732 143.879 68.7563 144.091" stroke="#2E353A" stroke-linecap="round" stroke-linejoin="round"/>
<path d="M53.9702 150.485C54.5273 149.757 55.1595 149.09 55.8565 148.494" stroke="#2E353A" stroke-linecap="round" stroke-linejoin="round"/>
<path d="M205.604 93.5458H201.808V103.584H205.604V93.5458Z" fill="#3C343D"/>
<path fill-rule="evenodd" clip-rule="evenodd" d="M201.308 93.0458H206.104V104.084H201.308V93.0458ZM202.308 94.0458V103.084H205.104V94.0458H202.308Z" fill="#3C343D"/>
<path d="M205.604 152.762H201.808V162.801H205.604V152.762Z" fill="#3C343D"/>
<path fill-rule="evenodd" clip-rule="evenodd" d="M201.308 152.262H206.104V163.301H201.308V152.262ZM202.308 153.262V162.301H205.104V153.262H202.308Z" fill="#3C343D"/>
<path d="M103.484 35.4641H99.6875V45.5027H103.484V35.4641Z" fill="#3C343D"/>
<path fill-rule="evenodd" clip-rule="evenodd" d="M99.1875 34.9641H103.984V46.0027H99.1875V34.9641ZM100.188 35.9641V45.0027H102.984V35.9641H100.188Z" fill="#3C343D"/>
<path d="M103.484 123.534H99.6875V133.572H103.484V123.534Z" fill="#3C343D"/>
<path fill-rule="evenodd" clip-rule="evenodd" d="M99.1875 123.034H103.984V134.072H99.1875V123.034ZM100.188 124.034V133.072H102.984V124.034H100.188Z" fill="#3C343D"/>
<path d="M203.055 29.9093H103.124V51.5531H203.055V29.9093Z" fill="#3C343D"/>
<path fill-rule="evenodd" clip-rule="evenodd" d="M102.624 29.4093H203.555V52.0531H102.624V29.4093ZM103.624 30.4093V51.0531H202.555V30.4093H103.624Z" fill="#3C343D"/>
<path d="M176.799 35.4321H107.928V46.0302H176.799V35.4321Z" fill="#3C343D"/>
<path fill-rule="evenodd" clip-rule="evenodd" d="M107.428 34.9321H177.299V46.5302H107.428V34.9321ZM108.428 35.9321V45.5302H176.299V35.9321H108.428Z" fill="#3C343D"/>
<path d="M186.127 42.9371C187.601 42.9371 188.796 41.7419 188.796 40.2676C188.796 38.7933 187.601 37.5981 186.127 37.5981C184.652 37.5981 183.457 38.7933 183.457 40.2676C183.457 41.7419 184.652 42.9371 186.127 42.9371Z" fill="#3C343D"/>
<path fill-rule="evenodd" clip-rule="evenodd" d="M186.127 38.0981C184.928 38.0981 183.957 39.0694 183.957 40.2676C183.957 41.4658 184.928 42.4371 186.127 42.4371C187.325 42.4371 188.296 41.4658 188.296 40.2676C188.296 39.0694 187.325 38.0981 186.127 38.0981ZM182.957 40.2676C182.957 38.5171 184.376 37.0981 186.127 37.0981C187.877 37.0981 189.296 38.5171 189.296 40.2676C189.296 42.0181 187.877 43.4371 186.127 43.4371C184.376 43.4371 182.957 42.0181 182.957 40.2676Z" fill="#3C343D"/>
<path d="M199.258 40.2676C199.258 39.7396 199.101 39.2235 198.808 38.7845C198.515 38.3455 198.098 38.0033 197.61 37.8013C197.122 37.5992 196.585 37.5464 196.068 37.6494C195.55 37.7524 195.074 38.0066 194.701 38.38C194.327 38.7533 194.073 39.229 193.97 39.7468C193.867 40.2646 193.92 40.8014 194.122 41.2892C194.324 41.777 194.666 42.1939 195.105 42.4872C195.544 42.7805 196.06 42.9371 196.588 42.9371C197.296 42.9371 197.975 42.6558 198.476 42.1552C198.977 41.6546 199.258 40.9756 199.258 40.2676Z" fill="#3C343D"/>
<path fill-rule="evenodd" clip-rule="evenodd" d="M195.97 37.159C196.585 37.0367 197.222 37.0995 197.801 37.3393C198.381 37.5792 198.876 37.9855 199.224 38.5067C199.572 39.0279 199.758 39.6407 199.758 40.2676C199.758 41.1082 199.424 41.9144 198.83 42.5088C198.235 43.1032 197.429 43.4371 196.588 43.4371C195.962 43.4371 195.349 43.2512 194.828 42.9029C194.306 42.5547 193.9 42.0597 193.66 41.4805C193.42 40.9014 193.358 40.2641 193.48 39.6492C193.602 39.0344 193.904 38.4697 194.347 38.0264C194.791 37.5831 195.355 37.2813 195.97 37.159ZM197.419 38.2632C197.022 38.099 196.586 38.0561 196.165 38.1398C195.744 38.2235 195.358 38.4301 195.054 38.7335C194.751 39.0369 194.544 39.4235 194.461 39.8443C194.377 40.2652 194.42 40.7014 194.584 41.0978C194.748 41.4943 195.026 41.8331 195.383 42.0715C195.74 42.3099 196.159 42.4371 196.588 42.4371C197.164 42.4371 197.716 42.2085 198.123 41.8017C198.529 41.3948 198.758 40.843 198.758 40.2676C198.758 39.8385 198.631 39.419 198.392 39.0623C198.154 38.7055 197.815 38.4274 197.419 38.2632Z" fill="#3C343D"/>
<path d="M170.548 42.9371C172.023 42.9371 173.218 41.7419 173.218 40.2676C173.218 38.7933 172.023 37.5981 170.548 37.5981C169.074 37.5981 167.879 38.7933 167.879 40.2676C167.879 41.7419 169.074 42.9371 170.548 42.9371Z" fill="#3C343D"/>
<path fill-rule="evenodd" clip-rule="evenodd" d="M170.548 38.0981C169.35 38.0981 168.379 39.0694 168.379 40.2676C168.379 41.4658 169.35 42.4371 170.548 42.4371C171.747 42.4371 172.718 41.4658 172.718 40.2676C172.718 39.0694 171.747 38.0981 170.548 38.0981ZM167.379 40.2676C167.379 38.5171 168.798 37.0981 170.548 37.0981C172.299 37.0981 173.718 38.5171 173.718 40.2676C173.718 42.0181 172.299 43.4371 170.548 43.4371C168.798 43.4371 167.379 42.0181 167.379 40.2676Z" fill="#3C343D"/>
<path d="M199.267 51.553H106.921V58.9621H199.267V51.553Z" fill="#3C343D"/>
<path fill-rule="evenodd" clip-rule="evenodd" d="M106.421 51.053H199.767V59.4621H106.421V51.053ZM107.421 52.053V58.4621H198.767V52.053H107.421Z" fill="#3C343D"/>
<path d="M203.055 58.9622H103.124V80.6059H203.055V58.9622Z" fill="#3C343D"/>
<path fill-rule="evenodd" clip-rule="evenodd" d="M102.624 58.4621H203.555V81.1059H102.624V58.4621ZM103.624 59.4621V80.1059H202.555V59.4621H103.624Z" fill="#3C343D"/>
<path d="M176.799 64.485H107.928V75.0831H176.799V64.485Z" fill="#3C343D"/>
<path fill-rule="evenodd" clip-rule="evenodd" d="M107.428 63.985H177.299V75.5831H107.428V63.985ZM108.428 64.985V74.5831H176.299V64.985H108.428Z" fill="#3C343D"/>
<path d="M186.127 71.9979C187.601 71.9979 188.796 70.8028 188.796 69.3284C188.796 67.8541 187.601 66.6589 186.127 66.6589C184.652 66.6589 183.457 67.8541 183.457 69.3284C183.457 70.8028 184.652 71.9979 186.127 71.9979Z" fill="#3C343D"/>
<path fill-rule="evenodd" clip-rule="evenodd" d="M186.127 67.1589C184.928 67.1589 183.957 68.1303 183.957 69.3284C183.957 70.5266 184.928 71.4979 186.127 71.4979C187.325 71.4979 188.296 70.5266 188.296 69.3284C188.296 68.1303 187.325 67.1589 186.127 67.1589ZM182.957 69.3284C182.957 67.578 184.376 66.1589 186.127 66.1589C187.877 66.1589 189.296 67.578 189.296 69.3284C189.296 71.0789 187.877 72.4979 186.127 72.4979C184.376 72.4979 182.957 71.0789 182.957 69.3284Z" fill="#3C343D"/>
<path d="M199.258 69.3284C199.258 68.8005 199.101 68.2843 198.808 67.8453C198.515 67.4063 198.098 67.0642 197.61 66.8621C197.122 66.6601 196.585 66.6072 196.068 66.7102C195.55 66.8132 195.074 67.0675 194.701 67.4408C194.327 67.8142 194.073 68.2898 193.97 68.8076C193.867 69.3255 193.92 69.8622 194.122 70.35C194.324 70.8378 194.666 71.2547 195.105 71.5481C195.544 71.8414 196.06 71.998 196.588 71.998C196.939 71.999 197.287 71.9307 197.611 71.7969C197.936 71.6631 198.23 71.4665 198.478 71.2184C198.727 70.9703 198.923 70.6756 199.057 70.3513C199.191 70.0269 199.259 69.6793 199.258 69.3284Z" fill="#3C343D"/>
<path fill-rule="evenodd" clip-rule="evenodd" d="M195.97 66.2198C196.585 66.0975 197.222 66.1603 197.801 66.4002C198.381 66.6401 198.876 67.0463 199.224 67.5676C199.572 68.0886 199.758 68.7011 199.758 69.3277C199.759 69.7442 199.678 70.1569 199.519 70.5419C199.36 70.9272 199.127 71.2773 198.832 71.572C198.537 71.8667 198.187 72.1002 197.802 72.2591C197.417 72.4179 197.004 72.4991 196.588 72.498C195.961 72.4978 195.349 72.3119 194.828 71.9638C194.306 71.6155 193.9 71.1205 193.66 70.5414C193.42 69.9622 193.358 69.3249 193.48 68.7101C193.602 68.0953 193.904 67.5305 194.347 67.0873C194.791 66.644 195.355 66.3421 195.97 66.2198ZM196.588 72.498C196.587 72.498 196.587 72.498 196.587 72.4979L196.588 71.998V72.498C196.588 72.498 196.588 72.498 196.588 72.498ZM199.258 69.3284H199.758C199.758 69.3282 199.758 69.3279 199.758 69.3277C199.758 69.3274 199.758 69.3272 199.758 69.3269L199.258 69.3284Z" fill="#3C343D"/>
<path d="M170.548 71.9979C172.023 71.9979 173.218 70.8028 173.218 69.3284C173.218 67.8541 172.023 66.6589 170.548 66.6589C169.074 66.6589 167.879 67.8541 167.879 69.3284C167.879 70.8028 169.074 71.9979 170.548 71.9979Z" fill="#3C343D"/>
<path fill-rule="evenodd" clip-rule="evenodd" d="M170.548 67.1589C169.35 67.1589 168.379 68.1303 168.379 69.3284C168.379 70.5266 169.35 71.4979 170.548 71.4979C171.747 71.4979 172.718 70.5266 172.718 69.3284C172.718 68.1303 171.747 67.1589 170.548 67.1589ZM167.379 69.3284C167.379 67.578 168.798 66.1589 170.548 66.1589C172.299 66.1589 173.718 67.578 173.718 69.3284C173.718 71.0789 172.299 72.4979 170.548 72.4979C168.798 72.4979 167.379 71.0789 167.379 69.3284Z" fill="#3C343D"/>
<path d="M199.267 80.6139H106.921V88.023H199.267V80.6139Z" fill="#3C343D"/>
<path fill-rule="evenodd" clip-rule="evenodd" d="M106.421 80.1139H199.767V88.523H106.421V80.1139ZM107.421 81.1139V87.523H198.767V81.1139H107.421Z" fill="#3C343D"/>
<path d="M203.055 88.0229H103.124V109.667H203.055V88.0229Z" fill="#3C343D"/>
<path fill-rule="evenodd" clip-rule="evenodd" d="M102.624 87.5229H203.555V110.167H102.624V87.5229ZM103.624 88.5229V109.167H202.555V88.5229H103.624Z" fill="#3C343D"/>
<path d="M176.799 93.5458H107.928V104.144H176.799V93.5458Z" fill="#3C343D"/>
<path fill-rule="evenodd" clip-rule="evenodd" d="M107.428 93.0458H177.299V104.644H107.428V93.0458ZM108.428 94.0458V103.644H176.299V94.0458H108.428Z" fill="#3C343D"/>
<path d="M186.127 101.051C187.601 101.051 188.796 99.8556 188.796 98.3813C188.796 96.907 187.601 95.7118 186.127 95.7118C184.652 95.7118 183.457 96.907 183.457 98.3813C183.457 99.8556 184.652 101.051 186.127 101.051Z" fill="#3C343D"/>
<path fill-rule="evenodd" clip-rule="evenodd" d="M186.127 96.2118C184.928 96.2118 183.957 97.1831 183.957 98.3813C183.957 99.5795 184.928 100.551 186.127 100.551C187.325 100.551 188.296 99.5795 188.296 98.3813C188.296 97.1831 187.325 96.2118 186.127 96.2118ZM182.957 98.3813C182.957 96.6308 184.376 95.2118 186.127 95.2118C187.877 95.2118 189.296 96.6308 189.296 98.3813C189.296 100.132 187.877 101.551 186.127 101.551C184.376 101.551 182.957 100.132 182.957 98.3813Z" fill="#3C343D"/>
<path d="M199.258 98.3813C199.258 97.8533 199.101 97.3372 198.808 96.8982C198.515 96.4592 198.098 96.117 197.61 95.915C197.122 95.7129 196.585 95.6601 196.068 95.7631C195.55 95.8661 195.074 96.1203 194.701 96.4937C194.327 96.867 194.073 97.3427 193.97 97.8605C193.867 98.3783 193.92 98.9151 194.122 99.4029C194.324 99.8907 194.666 100.308 195.105 100.601C195.544 100.894 196.06 101.051 196.588 101.051C197.296 101.051 197.975 100.77 198.476 100.269C198.977 99.7683 199.258 99.0893 199.258 98.3813Z" fill="#3C343D"/>
<path fill-rule="evenodd" clip-rule="evenodd" d="M195.97 95.2727C196.585 95.1504 197.222 95.2132 197.801 95.4531C198.381 95.693 198.876 96.0992 199.224 96.6204C199.572 97.1416 199.758 97.7544 199.758 98.3813C199.758 99.2219 199.424 100.028 198.83 100.622C198.235 101.217 197.429 101.551 196.588 101.551C195.962 101.551 195.349 101.365 194.828 101.017C194.306 100.668 193.9 100.173 193.66 99.5942C193.42 99.0151 193.358 98.3778 193.48 97.763C193.602 97.1481 193.904 96.5834 194.347 96.1401C194.791 95.6968 195.355 95.395 195.97 95.2727ZM197.419 96.3769C197.022 96.2127 196.586 96.1698 196.165 96.2535C195.744 96.3372 195.358 96.5438 195.054 96.8472C194.751 97.1506 194.544 97.5372 194.461 97.9581C194.377 98.3789 194.42 98.8151 194.584 99.2115C194.748 99.608 195.026 99.9468 195.383 100.185C195.74 100.424 196.159 100.551 196.588 100.551C197.164 100.551 197.716 100.322 198.123 99.9154C198.529 99.5085 198.758 98.9567 198.758 98.3813C198.758 97.9522 198.631 97.5328 198.392 97.176C198.154 96.8192 197.815 96.5411 197.419 96.3769Z" fill="#3C343D"/>
<path d="M170.548 101.051C172.023 101.051 173.218 99.8556 173.218 98.3813C173.218 96.907 172.023 95.7118 170.548 95.7118C169.074 95.7118 167.879 96.907 167.879 98.3813C167.879 99.8556 169.074 101.051 170.548 101.051Z" fill="#3C343D"/>
<path fill-rule="evenodd" clip-rule="evenodd" d="M170.548 96.2118C169.35 96.2118 168.379 97.1831 168.379 98.3813C168.379 99.5795 169.35 100.551 170.548 100.551C171.747 100.551 172.718 99.5795 172.718 98.3813C172.718 97.1831 171.747 96.2118 170.548 96.2118ZM167.379 98.3813C167.379 96.6308 168.798 95.2118 170.548 95.2118C172.299 95.2118 173.718 96.6308 173.718 98.3813C173.718 100.132 172.299 101.551 170.548 101.551C168.798 101.551 167.379 100.132 167.379 98.3813Z" fill="#3C343D"/>
<path d="M199.267 109.667H106.921V117.076H199.267V109.667Z" fill="#3C343D"/>
<path fill-rule="evenodd" clip-rule="evenodd" d="M106.421 109.167H199.767V117.576H106.421V109.167ZM107.421 110.167V116.576H198.767V110.167H107.421Z" fill="#3C343D"/>
<path d="M203.055 117.076H103.124V138.72H203.055V117.076Z" fill="#3C343D"/>
<path fill-rule="evenodd" clip-rule="evenodd" d="M102.624 116.576H203.555V139.22H102.624V116.576ZM103.624 117.576V138.22H202.555V117.576H103.624Z" fill="#3C343D"/>
<path d="M176.799 122.599H107.928V133.197H176.799V122.599Z" fill="#3C343D"/>
<path fill-rule="evenodd" clip-rule="evenodd" d="M107.428 122.099H177.299V133.697H107.428V122.099ZM108.428 123.099V132.697H176.299V123.099H108.428Z" fill="#3C343D"/>
<path d="M186.127 130.112C187.601 130.112 188.796 128.917 188.796 127.442C188.796 125.968 187.601 124.773 186.127 124.773C184.652 124.773 183.457 125.968 183.457 127.442C183.457 128.917 184.652 130.112 186.127 130.112Z" fill="#3C343D"/>
<path fill-rule="evenodd" clip-rule="evenodd" d="M186.127 125.273C184.928 125.273 183.957 126.244 183.957 127.442C183.957 128.64 184.928 129.612 186.127 129.612C187.325 129.612 188.296 128.64 188.296 127.442C188.296 126.244 187.325 125.273 186.127 125.273ZM182.957 127.442C182.957 125.692 184.376 124.273 186.127 124.273C187.877 124.273 189.296 125.692 189.296 127.442C189.296 129.193 187.877 130.612 186.127 130.612C184.376 130.612 182.957 129.193 182.957 127.442Z" fill="#3C343D"/>
<path d="M199.258 127.442C199.258 126.914 199.101 126.398 198.808 125.959C198.515 125.52 198.098 125.178 197.61 124.976C197.122 124.774 196.585 124.721 196.068 124.824C195.55 124.927 195.074 125.181 194.701 125.555C194.327 125.928 194.073 126.404 193.97 126.921C193.867 127.439 193.92 127.976 194.122 128.464C194.324 128.952 194.666 129.368 195.105 129.662C195.544 129.955 196.06 130.112 196.588 130.112C196.939 130.113 197.287 130.044 197.611 129.911C197.936 129.777 198.23 129.58 198.478 129.332C198.727 129.084 198.923 128.789 199.057 128.465C199.191 128.141 199.259 127.793 199.258 127.442Z" fill="#3C343D"/>
<path fill-rule="evenodd" clip-rule="evenodd" d="M195.97 124.334C196.585 124.211 197.222 124.274 197.801 124.514C198.381 124.754 198.876 125.16 199.224 125.681C199.572 126.202 199.758 126.815 199.758 127.441C199.759 127.858 199.678 128.271 199.519 128.656C199.36 129.041 199.127 129.391 198.832 129.686C198.537 129.98 198.187 130.214 197.802 130.373C197.417 130.532 197.004 130.613 196.588 130.612C195.961 130.612 195.349 130.426 194.828 130.078C194.306 129.729 193.9 129.234 193.66 128.655C193.42 128.076 193.358 127.439 193.48 126.824C193.602 126.209 193.904 125.644 194.347 125.201C194.791 124.758 195.355 124.456 195.97 124.334ZM196.588 130.612C196.587 130.612 196.587 130.612 196.587 130.612L196.588 130.112V130.612C196.588 130.612 196.588 130.612 196.588 130.612ZM199.258 127.442H199.758C199.758 127.442 199.758 127.442 199.758 127.441C199.758 127.441 199.758 127.441 199.758 127.441L199.258 127.442Z" fill="#3C343D"/>
<path d="M170.548 130.112C172.023 130.112 173.218 128.917 173.218 127.442C173.218 125.968 172.023 124.773 170.548 124.773C169.074 124.773 167.879 125.968 167.879 127.442C167.879 128.917 169.074 130.112 170.548 130.112Z" fill="#3C343D"/>
<path fill-rule="evenodd" clip-rule="evenodd" d="M170.548 125.273C169.35 125.273 168.379 126.244 168.379 127.442C168.379 128.64 169.35 129.612 170.548 129.612C171.747 129.612 172.718 128.64 172.718 127.442C172.718 126.244 171.747 125.273 170.548 125.273ZM167.379 127.442C167.379 125.692 168.798 124.273 170.548 124.273C172.299 124.273 173.718 125.692 173.718 127.442C173.718 129.193 172.299 130.612 170.548 130.612C168.798 130.612 167.379 129.193 167.379 127.442Z" fill="#3C343D"/>
<path d="M199.267 138.728H106.921V146.137H199.267V138.728Z" fill="#3C343D"/>
<path fill-rule="evenodd" clip-rule="evenodd" d="M106.421 138.228H199.767V146.637H106.421V138.228ZM107.421 139.228V145.637H198.767V139.228H107.421Z" fill="#3C343D"/>
<path d="M203.055 146.137H103.124V167.78H203.055V146.137Z" fill="#3C343D"/>
<path fill-rule="evenodd" clip-rule="evenodd" d="M102.624 145.637H203.555V168.28H102.624V145.637ZM103.624 146.637V167.28H202.555V146.637H103.624Z" fill="#3C343D"/>
<path d="M176.799 151.66H107.928V162.258H176.799V151.66Z" fill="#3C343D"/>
<path fill-rule="evenodd" clip-rule="evenodd" d="M107.428 151.16H177.299V162.758H107.428V151.16ZM108.428 152.16V161.758H176.299V152.16H108.428Z" fill="#3C343D"/>
<path d="M186.127 159.164C187.601 159.164 188.796 157.969 188.796 156.495C188.796 155.021 187.601 153.825 186.127 153.825C184.652 153.825 183.457 155.021 183.457 156.495C183.457 157.969 184.652 159.164 186.127 159.164Z" fill="#3C343D"/>
<path fill-rule="evenodd" clip-rule="evenodd" d="M186.127 154.325C184.928 154.325 183.957 155.297 183.957 156.495C183.957 157.693 184.928 158.664 186.127 158.664C187.325 158.664 188.296 157.693 188.296 156.495C188.296 155.297 187.325 154.325 186.127 154.325ZM182.957 156.495C182.957 154.744 184.376 153.325 186.127 153.325C187.877 153.325 189.296 154.744 189.296 156.495C189.296 158.245 187.877 159.664 186.127 159.664C184.376 159.664 182.957 158.245 182.957 156.495Z" fill="#3C343D"/>
<path d="M199.258 156.495C199.258 155.967 199.101 155.451 198.808 155.012C198.515 154.573 198.098 154.231 197.61 154.029C197.122 153.827 196.585 153.774 196.068 153.877C195.55 153.98 195.074 154.234 194.701 154.607C194.327 154.981 194.073 155.456 193.97 155.974C193.867 156.492 193.92 157.029 194.122 157.517C194.324 158.004 194.666 158.421 195.105 158.715C195.544 159.008 196.06 159.164 196.588 159.164C197.296 159.164 197.975 158.883 198.476 158.383C198.977 157.882 199.258 157.203 199.258 156.495Z" fill="#3C343D"/>
<path fill-rule="evenodd" clip-rule="evenodd" d="M195.97 153.386C196.585 153.264 197.222 153.327 197.801 153.567C198.381 153.807 198.876 154.213 199.224 154.734C199.572 155.255 199.758 155.868 199.758 156.495C199.758 157.336 199.424 158.142 198.83 158.736C198.235 159.331 197.429 159.664 196.588 159.664C195.962 159.664 195.349 159.479 194.828 159.13C194.306 158.782 193.9 158.287 193.66 157.708C193.42 157.129 193.358 156.491 193.48 155.877C193.602 155.262 193.904 154.697 194.347 154.254C194.791 153.811 195.355 153.509 195.97 153.386ZM197.419 154.491C197.022 154.326 196.586 154.283 196.165 154.367C195.744 154.451 195.358 154.657 195.054 154.961C194.751 155.264 194.544 155.651 194.461 156.072C194.377 156.493 194.42 156.929 194.584 157.325C194.748 157.722 195.026 158.06 195.383 158.299C195.74 158.537 196.159 158.664 196.588 158.664C197.164 158.664 197.716 158.436 198.123 158.029C198.529 157.622 198.758 157.07 198.758 156.495C198.758 156.066 198.631 155.646 198.392 155.29C198.154 154.933 197.815 154.655 197.419 154.491Z" fill="#3C343D"/>
<path d="M170.548 159.164C172.023 159.164 173.218 157.969 173.218 156.495C173.218 155.021 172.023 153.825 170.548 153.825C169.074 153.825 167.879 155.021 167.879 156.495C167.879 157.969 169.074 159.164 170.548 159.164Z" fill="#3C343D"/>
<path fill-rule="evenodd" clip-rule="evenodd" d="M170.548 154.325C169.35 154.325 168.379 155.297 168.379 156.495C168.379 157.693 169.35 158.664 170.548 158.664C171.747 158.664 172.718 157.693 172.718 156.495C172.718 155.297 171.747 154.325 170.548 154.325ZM167.379 156.495C167.379 154.744 168.798 153.325 170.548 153.325C172.299 153.325 173.718 154.744 173.718 156.495C173.718 158.245 172.299 159.664 170.548 159.664C168.798 159.664 167.379 158.245 167.379 156.495Z" fill="#3C343D"/>
<path fill-rule="evenodd" clip-rule="evenodd" d="M159.243 27C159.243 26.7239 159.467 26.5 159.743 26.5H165.338C165.614 26.5 165.838 26.7239 165.838 27C165.838 27.2761 165.614 27.5 165.338 27.5H159.743C159.467 27.5 159.243 27.2761 159.243 27Z" fill="#3C343D"/>
<path fill-rule="evenodd" clip-rule="evenodd" d="M120.479 27C120.479 26.7239 120.703 26.5 120.979 26.5H153.349C153.625 26.5 153.849 26.7239 153.849 27C153.849 27.2761 153.625 27.5 153.349 27.5H120.979C120.703 27.5 120.479 27.2761 120.479 27Z" fill="#3C343D"/>
<path d="M204.134 93.5458H200.337V103.584H204.134V93.5458Z" fill="#2E353A" stroke="#2E353A" stroke-miterlimit="10"/>
<path d="M204.134 152.762H200.337V162.801H204.134V152.762Z" fill="#2E353A" stroke="#2E353A" stroke-miterlimit="10"/>
<path d="M102.013 35.4641H98.217V45.5027H102.013V35.4641Z" fill="#2E353A" stroke="#2E353A" stroke-miterlimit="10"/>
<path d="M102.013 123.534H98.217V133.572H102.013V123.534Z" fill="#2E353A" stroke="#2E353A" stroke-miterlimit="10"/>
<path d="M201.584 29.9093H101.654V51.5531H201.584V29.9093Z" fill="#8D67FD" stroke="#2E353A" stroke-miterlimit="10"/>
<path d="M175.329 35.4321H106.457V46.0302H175.329V35.4321Z" fill="#FEEE60" stroke="#2E353A" stroke-miterlimit="10"/>
<path d="M184.656 42.9371C186.13 42.9371 187.325 41.7419 187.325 40.2676C187.325 38.7933 186.13 37.5981 184.656 37.5981C183.182 37.5981 181.986 38.7933 181.986 40.2676C181.986 41.7419 183.182 42.9371 184.656 42.9371Z" fill="#8D67FD" stroke="#2E353A" stroke-miterlimit="10"/>
<path d="M197.787 40.2676C197.787 39.7396 197.631 39.2235 197.338 38.7845C197.044 38.3455 196.627 38.0034 196.14 37.8013C195.652 37.5993 195.115 37.5464 194.597 37.6494C194.079 37.7524 193.604 38.0066 193.23 38.38C192.857 38.7533 192.603 39.229 192.5 39.7468C192.397 40.2646 192.45 40.8014 192.652 41.2892C192.854 41.777 193.196 42.1939 193.635 42.4872C194.074 42.7805 194.59 42.9371 195.118 42.9371C195.826 42.9371 196.505 42.6559 197.006 42.1552C197.506 41.6546 197.787 40.9756 197.787 40.2676Z" fill="#FEEE60" stroke="#2E353A" stroke-miterlimit="10"/>
<path d="M169.078 42.9371C170.553 42.9371 171.748 41.7419 171.748 40.2676C171.748 38.7933 170.553 37.5981 169.078 37.5981C167.604 37.5981 166.409 38.7933 166.409 40.2676C166.409 41.7419 167.604 42.9371 169.078 42.9371Z" fill="white" stroke="#2E353A" stroke-miterlimit="10"/>
<path d="M197.796 51.553H105.45V58.9621H197.796V51.553Z" fill="#2E353A" stroke="#2E353A" stroke-miterlimit="10"/>
<path d="M201.584 58.9621H101.654V80.6059H201.584V58.9621Z" fill="#8D67FD" stroke="#2E353A" stroke-miterlimit="10"/>
<path d="M175.329 64.485H106.457V75.0831H175.329V64.485Z" fill="#FEEE60" stroke="#2E353A" stroke-miterlimit="10"/>
<path d="M184.656 71.9979C186.13 71.9979 187.325 70.8028 187.325 69.3284C187.325 67.8541 186.13 66.6589 184.656 66.6589C183.182 66.6589 181.986 67.8541 181.986 69.3284C181.986 70.8028 183.182 71.9979 184.656 71.9979Z" fill="#FEEE60" stroke="#2E353A" stroke-miterlimit="10"/>
<path d="M197.787 69.3284C197.787 68.8005 197.631 68.2843 197.338 67.8453C197.044 67.4063 196.627 67.0642 196.14 66.8621C195.652 66.6601 195.115 66.6072 194.597 66.7102C194.079 66.8132 193.604 67.0675 193.23 67.4408C192.857 67.8142 192.603 68.2898 192.5 68.8076C192.397 69.3255 192.45 69.8622 192.652 70.35C192.854 70.8378 193.196 71.2547 193.635 71.5481C194.074 71.8414 194.59 71.998 195.118 71.998C195.469 71.999 195.816 71.9307 196.141 71.7969C196.465 71.6631 196.76 71.4665 197.008 71.2184C197.256 70.9703 197.453 70.6756 197.586 70.3513C197.72 70.0269 197.789 69.6793 197.787 69.3284Z" fill="#8D67FD" stroke="#2E353A" stroke-miterlimit="10"/>
<path d="M169.078 71.9979C170.553 71.9979 171.748 70.8028 171.748 69.3284C171.748 67.8541 170.553 66.6589 169.078 66.6589C167.604 66.6589 166.409 67.8541 166.409 69.3284C166.409 70.8028 167.604 71.9979 169.078 71.9979Z" fill="white" stroke="#2E353A" stroke-miterlimit="10"/>
<path d="M197.796 80.6139H105.45V88.023H197.796V80.6139Z" fill="#2E353A" stroke="#2E353A" stroke-miterlimit="10"/>
<path d="M201.584 88.023H101.654V109.667H201.584V88.023Z" fill="#8D67FD" stroke="#2E353A" stroke-miterlimit="10"/>
<path d="M175.329 93.5458H106.457V104.144H175.329V93.5458Z" fill="#FEEE60" stroke="#2E353A" stroke-miterlimit="10"/>
<path d="M184.656 101.051C186.13 101.051 187.325 99.8556 187.325 98.3813C187.325 96.9069 186.13 95.7118 184.656 95.7118C183.182 95.7118 181.986 96.9069 181.986 98.3813C181.986 99.8556 183.182 101.051 184.656 101.051Z" fill="#8D67FD" stroke="#2E353A" stroke-miterlimit="10"/>
<path d="M197.787 98.3813C197.787 97.8533 197.631 97.3372 197.338 96.8982C197.044 96.4592 196.627 96.117 196.14 95.915C195.652 95.7129 195.115 95.6601 194.597 95.7631C194.079 95.8661 193.604 96.1203 193.23 96.4936C192.857 96.867 192.603 97.3426 192.5 97.8605C192.397 98.3783 192.45 98.9151 192.652 99.4028C192.854 99.8906 193.196 100.308 193.635 100.601C194.074 100.894 194.59 101.051 195.118 101.051C195.826 101.051 196.505 100.77 197.006 100.269C197.506 99.7683 197.787 99.0893 197.787 98.3813Z" fill="#FEEE60" stroke="#2E353A" stroke-miterlimit="10"/>
<path d="M169.078 101.051C170.553 101.051 171.748 99.8556 171.748 98.3813C171.748 96.9069 170.553 95.7118 169.078 95.7118C167.604 95.7118 166.409 96.9069 166.409 98.3813C166.409 99.8556 167.604 101.051 169.078 101.051Z" fill="white" stroke="#2E353A" stroke-miterlimit="10"/>
<path d="M197.796 109.667H105.45V117.076H197.796V109.667Z" fill="#2E353A" stroke="#2E353A" stroke-miterlimit="10"/>
<path d="M201.584 117.076H101.654V138.72H201.584V117.076Z" fill="#8D67FD" stroke="#2E353A" stroke-miterlimit="10"/>
<path d="M175.329 122.599H106.457V133.197H175.329V122.599Z" fill="#FEEE60" stroke="#2E353A" stroke-miterlimit="10"/>
<path d="M184.656 130.112C186.13 130.112 187.325 128.916 187.325 127.442C187.325 125.968 186.13 124.773 184.656 124.773C183.182 124.773 181.986 125.968 181.986 127.442C181.986 128.916 183.182 130.112 184.656 130.112Z" fill="#FEEE60" stroke="#2E353A" stroke-miterlimit="10"/>
<path d="M197.787 127.442C197.787 126.914 197.631 126.398 197.338 125.959C197.044 125.52 196.627 125.178 196.14 124.976C195.652 124.774 195.115 124.721 194.597 124.824C194.079 124.927 193.604 125.181 193.23 125.555C192.857 125.928 192.603 126.404 192.5 126.921C192.397 127.439 192.45 127.976 192.652 128.464C192.854 128.952 193.196 129.368 193.635 129.662C194.074 129.955 194.59 130.112 195.118 130.112C195.469 130.113 195.816 130.044 196.141 129.911C196.465 129.777 196.76 129.58 197.008 129.332C197.256 129.084 197.453 128.789 197.586 128.465C197.72 128.141 197.789 127.793 197.787 127.442Z" fill="#8D67FD" stroke="#2E353A" stroke-miterlimit="10"/>
<path d="M169.078 130.112C170.553 130.112 171.748 128.916 171.748 127.442C171.748 125.968 170.553 124.773 169.078 124.773C167.604 124.773 166.409 125.968 166.409 127.442C166.409 128.916 167.604 130.112 169.078 130.112Z" fill="white" stroke="#2E353A" stroke-miterlimit="10"/>
<path d="M197.796 138.728H105.45V146.137H197.796V138.728Z" fill="#2E353A" stroke="#2E353A" stroke-miterlimit="10"/>
<path d="M201.584 146.137H101.654V167.78H201.584V146.137Z" fill="#8D67FD" stroke="#2E353A" stroke-miterlimit="10"/>
<path d="M175.329 151.659H106.457V162.258H175.329V151.659Z" fill="#FEEE60" stroke="#2E353A" stroke-miterlimit="10"/>
<path d="M184.656 159.165C186.13 159.165 187.325 157.969 187.325 156.495C187.325 155.021 186.13 153.826 184.656 153.826C183.182 153.826 181.986 155.021 181.986 156.495C181.986 157.969 183.182 159.165 184.656 159.165Z" fill="#8D67FD" stroke="#2E353A" stroke-miterlimit="10"/>
<path d="M197.787 156.495C197.787 155.967 197.631 155.451 197.338 155.012C197.044 154.573 196.627 154.231 196.14 154.029C195.652 153.827 195.115 153.774 194.597 153.877C194.079 153.98 193.604 154.234 193.23 154.607C192.857 154.981 192.603 155.456 192.5 155.974C192.397 156.492 192.45 157.029 192.652 157.517C192.854 158.004 193.196 158.421 193.635 158.715C194.074 159.008 194.59 159.165 195.118 159.165C195.826 159.165 196.505 158.883 197.006 158.383C197.506 157.882 197.787 157.203 197.787 156.495Z" fill="#FEEE60" stroke="#2E353A" stroke-miterlimit="10"/>
<path d="M169.078 159.165C170.553 159.165 171.748 157.969 171.748 156.495C171.748 155.021 170.553 153.826 169.078 153.826C167.604 153.826 166.409 155.021 166.409 156.495C166.409 157.969 167.604 159.165 169.078 159.165Z" fill="white" stroke="#2E353A" stroke-miterlimit="10"/>
<path d="M158.273 27H163.867" stroke="#2E353A" stroke-linecap="round" stroke-linejoin="round"/>
<path d="M119.509 27H151.879" stroke="#2E353A" stroke-linecap="round" stroke-linejoin="round"/>
<path d="M574.771 239.716C574.047 228.336 570.408 217.333 564.203 207.766C557.998 198.198 549.436 190.388 539.341 185.086C545.962 170.644 547.189 154.307 542.8 139.038C538.411 123.768 528.697 110.577 515.418 101.854C502.139 93.1318 486.174 89.4557 470.417 91.4924C454.661 93.529 440.156 101.144 429.531 112.956C423.094 97.4702 411.041 84.99 395.789 78.0175C380.536 71.0449 363.212 70.0953 347.289 75.3591C331.366 80.6229 318.022 91.7109 309.931 106.4C301.839 121.09 299.6 138.295 303.661 154.566C301.661 154.376 299.551 154.266 297.461 154.266C287.11 154.266 276.901 156.684 267.65 161.327C258.398 165.97 250.359 172.709 244.173 181.009C237.987 189.308 233.825 198.938 232.019 209.13C230.213 219.323 230.813 229.796 233.771 239.716H574.771Z" fill="#3C343D" stroke="#263238" stroke-linecap="round" stroke-linejoin="round"/>
<path d="M569.771 239.716C569.047 228.336 565.408 217.333 559.203 207.766C552.998 198.198 544.436 190.388 534.341 185.086C540.962 170.644 542.189 154.307 537.8 139.038C533.411 123.768 523.697 110.577 510.418 101.854C497.139 93.1318 481.174 89.4557 465.417 91.4924C449.661 93.529 435.156 101.144 424.531 112.956C418.094 97.4702 406.041 84.99 390.789 78.0175C375.536 71.0449 358.212 70.0953 342.289 75.3591C326.366 80.6229 313.022 91.7109 304.931 106.4C296.839 121.09 294.6 138.295 298.661 154.566C296.661 154.376 294.551 154.266 292.461 154.266C282.11 154.266 271.901 156.684 262.65 161.327C253.398 165.97 245.359 172.709 239.173 181.009C232.987 189.308 228.825 198.938 227.019 209.13C225.213 219.323 225.813 229.796 228.771 239.716H569.771Z" fill="#2DD482" stroke="#263238" stroke-linecap="round" stroke-linejoin="round"/>
<path d="M227.641 209.206H280.961L289.561 217.806H564.351" stroke="#263238" stroke-linecap="round" stroke-linejoin="round"/>
<path d="M423.73 233.726V128.796H486.09V92.6661" stroke="#263238" stroke-linecap="round" stroke-linejoin="round"/>
<path d="M349.771 201.326H314.501V231.426" stroke="#263238" stroke-width="0.75" stroke-linecap="round" stroke-linejoin="round"/>
<path d="M898.885 24H703V146.545H898.885V24Z" fill="#3C343D"/>
<path d="M798.942 23.5H895.385V143.045H702.5V83.2726V23.5H798.942Z" fill="#FAFBFF" stroke="#3C343D" stroke-width="3"/>
<path d="M702.5 31.2998V23.5H895.385V31.2998H702.5Z" fill="#8E6AF6" stroke="#3C343D" stroke-width="3"/>
<path d="M711.225 27.4711C711.228 28.0101 711.069 28.5378 710.769 28.9872C710.469 29.4366 710.041 29.7876 709.539 29.9957C709.038 30.2038 708.485 30.2595 707.952 30.1559C707.418 30.0523 706.928 29.7941 706.543 29.4138C706.157 29.0336 705.895 28.5485 705.788 28.02C705.681 27.4915 705.734 26.9434 705.942 26.4451C706.149 25.9469 706.501 25.5209 706.953 25.2211C707.405 24.9214 707.936 24.7614 708.48 24.7614C709.205 24.7614 709.902 25.0464 710.416 25.5542C710.931 26.062 711.222 26.7512 711.225 27.4711Z" fill="#F8DA6C"/>
<path d="M722.416 27.4711C722.419 28.0101 722.26 28.5378 721.96 28.9872C721.66 29.4366 721.232 29.7876 720.73 29.9957C720.229 30.2038 719.676 30.2595 719.143 30.1559C718.609 30.0523 718.119 29.7941 717.734 29.4138C717.348 29.0336 717.086 28.5485 716.979 28.02C716.872 27.4915 716.925 26.9434 717.133 26.4451C717.34 25.9469 717.692 25.5209 718.144 25.2211C718.595 24.9214 719.127 24.7614 719.67 24.7614C720.396 24.7614 721.093 25.0464 721.607 25.5542C722.122 26.062 722.413 26.7512 722.416 27.4711Z" fill="#EBEBEB"/>
<path d="M733.597 27.4711C733.6 28.0107 733.441 28.5389 733.14 28.9886C732.839 29.4383 732.411 29.7893 731.908 29.9969C731.406 30.2046 730.853 30.2596 730.319 30.155C729.785 30.0504 729.295 29.7908 728.91 29.4092C728.525 29.0277 728.264 28.5414 728.158 28.012C728.053 27.4827 728.108 26.9342 728.317 26.4361C728.527 25.9381 728.881 25.513 729.334 25.2149C729.788 24.9167 730.321 24.7589 730.865 24.7614C731.588 24.7648 732.281 25.0514 732.793 25.5588C733.305 26.0663 733.594 26.7535 733.597 27.4711Z" fill="#FAFBFF"/>
<path d="M811.167 152L812 152L812 155.789L811.167 155.789L811.167 152ZM811.167 158.632L812 158.632L812 162.421L811.167 162.421L811.167 158.632ZM811.167 165.263L812 165.263L812 169.053L811.167 169.053L811.167 165.263ZM742 169.053L745.333 169.053L745.333 170L742 170L742 169.053ZM747.833 169.053L751.167 169.053L751.167 170L747.833 170L747.833 169.053ZM753.667 169.053L757 169.053L757 170L753.667 170L753.667 169.053ZM759.5 169.053L762.833 169.053L762.833 170L759.5 170L759.5 169.053ZM765.333 169.053L768.667 169.053L768.667 170L765.333 170L765.333 169.053ZM771.167 169.053L774.5 169.053L774.5 170L771.167 170L771.167 169.053ZM777 169.053L780.333 169.053L780.333 170L777 170L777 169.053ZM782.833 169.053L786.167 169.053L786.167 170L782.833 170L782.833 169.053ZM788.667 169.053L792 169.053L792 170L788.667 170L788.667 169.053ZM794.5 169.053L797.833 169.053L797.833 170L794.5 170L794.5 169.053ZM800.333 169.053L803.667 169.053L803.667 170L800.333 170L800.333 169.053ZM806.167 169.053L809.5 169.053L809.5 170L806.167 170L806.167 169.053Z" fill="#263238"/>
<path d="M726.191 229.85L726.184 229.854C724.278 230.995 722.307 232.023 720.282 232.933L720.281 232.933C706.308 239.215 690.426 239.605 675.628 236.018C644.312 228.429 627.794 200.794 625.701 170.352L625.701 170.351C625.632 169.346 625.552 168.324 625.471 167.289C624.903 160.068 624.286 152.216 627.277 145.193C630.719 137.11 637.656 132.155 645.313 128.763C650.876 126.285 656.866 124.63 662.255 123.289L662.257 123.289C672.215 120.829 682.719 121.912 691.965 126.353C695.245 127.91 698.03 130.029 700.64 132.28C701.746 133.235 702.83 134.222 703.905 135.201C704.096 135.375 704.288 135.549 704.478 135.722C705.746 136.874 707.01 138.01 708.32 139.092C708.882 139.554 709.446 140.014 710.014 140.472C715.354 144.771 720.968 148.718 726.819 152.289L726.191 229.85ZM726.191 229.85C732.293 226.133 737.739 221.432 742.307 215.937M726.191 229.85L742.307 215.937M742.307 215.937C752.346 204.006 760.463 187.589 750.966 172.378C745.5 163.619 736.973 158.448 728.655 153.404C728.042 153.032 727.429 152.661 726.819 152.289L742.307 215.937Z" fill="#2B99FF" stroke="#3C343D" stroke-width="2"/>
<path d="M741.568 215.017C737.07 220.427 731.708 225.056 725.699 228.716C723.826 229.837 721.89 230.847 719.9 231.741C706.171 237.912 690.524 238.313 675.891 234.766C645.124 227.31 628.8 200.152 626.727 170.003C626.171 161.856 624.924 153.056 628.225 145.305C631.525 137.554 638.199 132.741 645.747 129.397C651.227 126.956 657.147 125.318 662.525 123.98C672.259 121.575 682.525 122.634 691.563 126.976C697.888 129.977 702.392 135.191 707.713 139.583C708.276 140.047 708.843 140.509 709.414 140.97C714.788 145.296 720.438 149.269 726.327 152.863C735.272 158.318 744.429 163.465 750.146 172.627C759.264 187.23 751.571 203.129 741.568 215.017Z" fill="#2B99FF"/>
<path opacity="0.4" d="M741.568 215.017C737.07 220.427 731.708 225.056 725.699 228.716C723.826 229.837 721.89 230.847 719.9 231.741C706.171 237.912 690.524 238.313 675.891 234.766C645.124 227.31 628.8 200.152 626.727 170.003C626.171 161.856 624.924 153.056 628.225 145.305C631.525 137.554 638.199 132.741 645.747 129.397C651.227 126.956 657.147 125.318 662.525 123.98C672.259 121.575 682.525 122.634 691.563 126.976C697.888 129.977 702.392 135.191 707.713 139.583C708.276 140.047 708.843 140.509 709.414 140.97C714.788 145.296 720.438 149.269 726.327 152.863C735.272 158.318 744.429 163.465 750.146 172.627C759.264 187.23 751.571 203.129 741.568 215.017Z" fill="white"/>
<path d="M709.394 140.97C708.824 140.513 708.257 140.049 707.693 139.578C702.378 135.176 697.864 129.977 691.543 126.976C682.505 122.637 672.239 121.578 662.506 123.98C649.715 127.154 633.85 132.045 628.196 145.31C624.895 153.041 626.142 161.856 626.703 170.003C628.8 200.152 645.124 227.31 675.891 234.766C692.631 238.826 710.684 237.714 725.699 228.716C731.708 225.056 737.07 220.427 741.568 215.017C751.571 203.129 759.264 187.23 750.155 172.627C744.443 163.446 735.286 158.318 726.337 152.863C720.437 149.27 714.778 145.297 709.394 140.97V140.97Z" stroke="#263238" stroke-width="2" stroke-miterlimit="10"/>
<path d="M662.786 194.73C660.225 195.505 657.739 196.512 655.359 197.736" stroke="#263238" stroke-width="2" stroke-linecap="round" stroke-linejoin="round"/>
<path d="M678.467 191.744C674.726 192.068 671.011 192.657 667.353 193.508" stroke="#263238" stroke-width="2" stroke-linecap="round" stroke-linejoin="round"/>
<path d="M675.205 190.971C675.205 190.971 660.766 182.572 643.34 189.304" stroke="#263238" stroke-width="2" stroke-linecap="round" stroke-linejoin="round"/>
<path opacity="0.1" d="M741.568 215.017C737.07 220.427 731.708 225.056 725.699 228.716C723.826 229.837 721.89 230.847 719.9 231.741C718.329 231.26 716.785 230.694 715.275 230.045C706.258 226.179 698.691 219.641 691.297 213.195C686.837 209.329 682.304 205.366 676.964 202.82C669.743 199.405 661.529 198.729 653.846 200.916C657.82 196.431 663.221 193.459 669.136 192.503C665.318 189.028 660.008 187.569 654.847 187.477C649.686 187.385 646.844 188.018 641.799 189.149C643.486 186.046 647.96 183.239 651.493 183.321C648.135 183.277 644.782 183.039 641.451 182.611C636.894 181.876 634.855 176.512 634.174 171.95C632.289 159.386 634.198 146.006 641.055 135.326C642.413 133.196 643.983 131.209 645.742 129.397C651.222 126.956 657.142 125.318 662.52 123.98C672.254 121.575 682.521 122.634 691.558 126.976C697.884 129.977 702.387 135.191 707.708 139.583C708.272 140.047 708.839 140.509 709.409 140.97C714.783 145.296 720.433 149.269 726.322 152.863C735.267 158.318 744.424 163.465 750.141 172.627C759.264 187.23 751.571 203.129 741.568 215.017Z" fill="black"/>
<path d="M746.604 214.649C749.313 216.902 752.148 218.999 755.094 220.931C760.84 221.318 758.264 228.262 758.264 228.262L753.345 231.427C753.345 231.427 744.922 224.734 740.322 222.565C735.721 220.395 746.604 214.649 746.604 214.649Z" fill="white"/>
<path opacity="0.3" d="M705.775 141.536C705.775 141.536 704.987 133.741 703.731 131.552L684.653 127.667V126.188C684.653 126.188 685.092 123.617 680.84 122.008C676.588 120.399 667.725 122.491 665.439 124.221C663.154 125.951 663.99 128.928 663.99 128.928C663.99 128.928 656.306 132.808 652.856 134.287C650.031 135.59 647.278 137.042 644.607 138.636C644.607 138.636 643.041 156.555 643.351 160.715C643.66 164.876 643.099 168.79 643.457 171.095C643.814 173.4 644.095 174.71 646.511 176.672C648.927 178.634 651.126 181.504 657.461 178.658L656.577 177.957L698.28 163.909L705.775 141.536Z" fill="black"/>
<path d="M705.775 141.536C705.775 141.536 704.987 133.741 703.731 131.552L684.653 127.667V126.188C684.653 126.188 685.092 123.617 680.84 122.008C676.588 120.399 667.725 122.491 665.439 124.221C663.154 125.951 663.99 128.928 663.99 128.928C663.99 128.928 656.306 132.808 652.856 134.287C650.031 135.59 647.278 137.042 644.607 138.636C644.607 138.636 643.041 156.555 643.351 160.715C643.66 164.876 643.099 168.79 643.457 171.095C643.814 173.4 644.095 174.71 646.511 176.672C648.927 178.634 651.126 181.504 657.461 178.658L656.577 177.957L698.28 163.909L705.775 141.536Z" fill="#2B99FF"/>
<path opacity="0.05" d="M705.775 141.536C705.775 141.536 704.987 133.741 703.731 131.552L684.653 127.667V126.188C684.653 126.188 685.092 123.617 680.84 122.008C676.588 120.399 667.725 122.491 665.439 124.221C663.154 125.951 663.99 128.928 663.99 128.928C663.99 128.928 656.306 132.808 652.856 134.287C650.031 135.59 647.278 137.042 644.607 138.636C644.607 138.636 643.041 156.555 643.351 160.715C643.66 164.876 643.099 168.79 643.457 171.095C643.814 173.4 644.095 174.71 646.511 176.672C648.927 178.634 651.126 181.504 657.461 178.658L656.577 177.957L698.28 163.909L705.775 141.536Z" fill="black"/>
<path opacity="0.1" d="M703.982 132.499H695.999C695.249 132.5 694.523 132.767 693.95 133.253C693.378 133.739 692.996 134.412 692.873 135.152L688.939 158.831C688.939 158.831 683.522 159.28 679.685 162.078C675.848 164.876 666.411 144.913 651.498 144.904C651.498 144.904 655.789 154.713 656.741 162.542C656.741 162.542 647.419 161.527 645.873 165.175C644.327 168.824 646.574 175.662 650.517 173.014C654.46 170.365 658.171 165.949 660.805 168.742C663.439 171.535 675.206 173.038 675.206 173.038L693.312 163.909L700.334 160.609L703.982 132.499Z" fill="black"/>
<path opacity="0.4" d="M678.637 120.761C678.637 120.761 683.169 122.018 683.904 123.54C684.638 125.062 684.561 128.913 684.561 128.913C683.461 131.488 681.794 133.78 679.685 135.621L676.302 128.913L676.607 136.52C676.607 136.52 670.19 135.452 667.464 133.403L664.743 131.349C664.743 131.349 663.569 127.483 663.738 126.173C663.907 124.864 668.803 122.206 668.803 122.206L678.637 120.761Z" fill="white"/>
<path d="M754.137 238.048C754.012 237.772 755.998 234.264 754.442 230.693C752.886 227.122 750.407 228.499 750.407 228.499C750.407 228.499 743.347 224.005 740.38 222.584C738.242 221.51 736.183 220.286 734.218 218.921L731.082 223.145L733.981 232.113L754.137 238.048Z" fill="#2B99FF"/>
<path d="M750.15 228.281L759.216 233.819C759.216 233.819 765.59 229.731 768.629 226.909C771.669 224.087 778.497 218.075 778.497 218.075L782.846 212.223C782.846 212.223 779.831 208.493 774.805 211.489C768.31 215.355 760.39 220.97 755.108 220.917C755.108 220.917 756.147 227.407 750.184 228.281" fill="#2B99FF"/>
<path d="M677.099 97.3339C677.099 97.3339 681.212 103.558 681.961 105.573C682.71 107.588 683.314 110.57 683.164 112.005C683.014 113.44 681.506 121.128 680.748 121.351L680.018 122.177L680.501 125.434C680.501 125.434 677.283 130.996 667.821 126.918C667.821 126.918 667.454 120.423 666.304 118.384C665.154 116.344 663.433 118.77 661.708 112.88C659.983 106.989 665.478 100.799 665.478 100.799L677.099 97.3339Z" fill="white"/>
<path opacity="0.5" d="M778.898 210.406C778.898 210.406 774.235 211.218 772.723 213.978C771.21 216.737 768.306 221.864 767.315 224.343C766.325 226.822 758.134 232.809 758.134 232.809L759.221 233.819C759.221 233.819 765.89 229.697 769.915 225.778C773.94 221.859 782.818 212.001 782.818 212.001C782.818 212.001 782.18 211.368 778.898 210.406Z" fill="white"/>
<path opacity="0.5" d="M732.237 221.593L731.082 223.145L734.629 230.499L754.137 237.511L755.041 234.655C755.041 234.655 755.341 231.756 748.493 229.552C741.646 227.349 737.47 225.894 735.523 224.382C733.576 222.869 732.237 221.593 732.237 221.593Z" fill="white"/>
<path d="M667.836 166.968C667.836 166.968 661.863 166.069 659.075 170.955C656.287 175.841 656.572 177.957 656.572 177.957C656.572 177.957 660.52 181.543 665.946 181.34C671.373 181.137 679.274 174.922 681.85 172.898C684.425 170.873 690.92 165.079 695.351 166.277L695.835 162.088C695.835 162.088 695.4 160.208 691.611 160.715C687.823 161.223 686.334 163.383 685.112 163.383C683.889 163.383 682.734 162.208 680.279 166.403C680.274 166.403 671.658 167.93 667.836 166.968Z" fill="white"/>
<path d="M675.597 106.283C675.724 107.066 675.905 107.84 676.138 108.598C676.225 108.968 676.39 109.316 676.621 109.618C677.075 110.101 677.81 110.227 678.482 110.328C678.593 110.336 678.698 110.38 678.781 110.454C678.835 110.54 678.861 110.642 678.854 110.744C678.85 111.505 678.621 112.248 678.196 112.88" stroke="#263238" stroke-linecap="round" stroke-linejoin="round"/>
<path opacity="0.1" d="M736.243 216.582L732.237 221.574C732.237 221.574 736.634 225.638 741.186 227.146C745.738 228.653 753.707 231.495 755.041 233.684L754.529 231.079C754.529 231.079 742.066 223.435 739.205 221.608C738.359 221.053 737.652 220.311 737.139 219.44C736.625 218.569 736.319 217.591 736.243 216.582Z" fill="black"/>
<path opacity="0.1" d="M750.15 228.281L758.129 232.809C758.129 232.809 762.067 230.113 764 228.127C765.933 226.141 768.315 223.937 769.799 219.486C771.824 213.335 777.622 210.406 777.622 210.406C777.622 210.406 769.557 214.205 765.358 217.172C761.159 220.139 757.066 221.395 754.688 221.192C754.664 221.207 756.573 227.247 750.15 228.281Z" fill="black"/>
<path d="M672.784 113.977C672.784 113.977 675.92 116.436 679.177 115.513C679.177 115.513 676.104 121.602 672.784 113.977Z" fill="white" stroke="#263238" stroke-linecap="round" stroke-linejoin="round"/>
<path d="M672.668 108.661C672.76 109.337 672.552 109.922 672.214 109.971C671.876 110.019 671.523 109.487 671.431 108.825C671.339 108.163 671.542 107.564 671.885 107.516C672.229 107.467 672.596 107.984 672.668 108.661Z" fill="#263238"/>
<path d="M679.496 107.429C679.583 108.11 679.38 108.695 679.042 108.738C678.704 108.782 678.346 108.255 678.259 107.598C678.172 106.941 678.37 106.332 678.713 106.288C679.057 106.245 679.404 106.752 679.496 107.429Z" fill="#263238"/>
<path d="M672.185 105.791C672.185 105.791 670.359 104.848 669.059 106.868" stroke="#263238" stroke-width="2" stroke-linecap="round" stroke-linejoin="round"/>
<path d="M676.868 104.534C676.868 104.534 678.801 102.877 679.917 104.534" stroke="#263238" stroke-width="2" stroke-linecap="round" stroke-linejoin="round"/>
<path d="M665.98 112.01C665.98 112.01 664.806 110.275 663.564 110.328C662.322 110.381 661.829 112.121 662.274 113.803C662.719 115.484 664.569 117.833 665.971 117.611C666.761 117.509 667.483 117.107 667.986 116.489" stroke="#263238" stroke-width="2" stroke-linecap="round" stroke-linejoin="round"/>
<path d="M677.24 98.7353C678.559 99.8322 679.955 101.026 680.622 102.64C681.212 104.012 681.342 105.539 681.884 106.926C682.459 108.41 683.087 109.961 683.135 111.58C683.11 113.077 682.913 114.567 682.55 116.021C682.35 117.281 682.051 118.523 681.656 119.737C681.004 121.472 679.801 122.54 678.187 123.361C677.013 123.96 675.055 124.811 673.785 124.009C673.045 123.525 671.934 122.143 671.011 120.872" stroke="#263238" stroke-width="2" stroke-linecap="round" stroke-linejoin="round"/>
<path d="M665.98 117.611C665.98 117.611 668.058 122.704 667.556 126.285" stroke="#263238" stroke-width="2" stroke-linecap="round" stroke-linejoin="round"/>
<path d="M665.449 111.154C665.725 110.95 665.944 110.677 666.085 110.363C666.225 110.049 666.283 109.704 666.251 109.362C666.173 108.579 665.632 107.854 665.739 107.071C665.827 106.696 665.967 106.335 666.154 105.998C666.436 105.348 666.559 104.641 666.516 103.934C666.472 103.227 666.262 102.54 665.903 101.929C665.903 101.929 672.504 102.239 675.597 100.272C678.689 98.3052 681.047 93.2747 679.177 90.873C677.307 88.4713 673.664 91.7477 670.962 92.1101C668.261 92.4725 658.654 94.0044 657.122 97.706C655.591 101.408 657.925 102.736 657.997 106.269C658.07 109.801 658.07 116.494 663.351 115.881C663.351 115.881 661.375 113.324 662.747 110.691C663.68 109.584 665.449 111.154 665.449 111.154Z" fill="#263238"/>
<path d="M678.395 95.0482C679.291 95.7463 680.034 96.6214 680.578 97.619C681.121 98.6166 681.454 99.7154 681.555 100.847C681.85 103.495 686.547 108.642 683.159 111.575C683.159 111.575 682.372 108.458 681.908 106.921C681.444 105.385 680.849 102.572 680.071 101.606C679.293 100.639 675.167 97.2566 675.167 97.2566L678.395 95.0482Z" fill="#263238"/>
<path d="M666.589 126.173C666.589 126.173 669.846 128.319 675.897 128.406L676.607 136.52C676.607 136.52 669.803 136.002 664.744 131.349C664.744 131.349 663.376 127.729 663.738 126.173C664.101 124.617 667.353 123.076 667.353 123.076" stroke="#263238" stroke-width="2" stroke-linecap="round" stroke-linejoin="round"/>
<path d="M680.274 122.544L680.467 125.444C679.192 126.772 677.628 127.789 675.896 128.416L679.685 135.63C679.685 135.63 684.203 132.112 684.652 128.416C684.652 128.416 684.691 124.632 683.903 123.549C683.116 122.467 680.245 121.96 680.245 121.96" stroke="#263238" stroke-width="2" stroke-linecap="round" stroke-linejoin="round"/>
<path opacity="0.8" d="M661.94 100.122C662.424 98.9093 663.748 98.1892 665.038 97.9959C666.328 97.8026 667.652 97.9379 668.957 97.9041C670.764 97.8896 672.533 97.3888 674.079 96.4544C674.848 95.9865 675.516 95.3719 676.047 94.6455C676.578 93.9192 676.96 93.0954 677.172 92.2213" stroke="white" stroke-linecap="round" stroke-linejoin="round"/>
<path opacity="0.8" d="M658.824 99.8854C659.64 97.4064 662.289 95.8745 664.893 95.6571C666.183 95.5459 667.488 95.6957 668.759 95.5459C670.03 95.3961 671.383 94.8646 672.055 93.7579" stroke="white" stroke-linecap="round" stroke-linejoin="round"/>
<path d="M657.451 178.658C651.169 181.915 648.936 178.561 645.438 175.787C641.939 173.014 644.235 168.056 643.505 160.106C642.775 152.157 644.592 138.636 644.592 138.636C644.592 138.636 646.158 138.279 650.502 135.621C654.846 132.963 663.989 128.913 663.989 128.913" stroke="#263238" stroke-width="2" stroke-linecap="round" stroke-linejoin="round"/>
<path d="M663.675 166.625C663.675 166.625 662.68 163.47 659.867 163.388C657.055 163.305 652.619 164.571 649.458 170.549" stroke="#263238" stroke-width="2" stroke-linecap="round" stroke-linejoin="round"/>
<path d="M659.225 163.199C659.05 163.188 658.878 163.147 658.717 163.078C656.399 162.244 653.882 162.129 651.498 162.75" stroke="#263238" stroke-width="2" stroke-linecap="round" stroke-linejoin="round"/>
<path d="M649.879 142.951C654.996 148.605 657.49 156.086 659.853 163.334" stroke="#263238" stroke-width="2" stroke-linecap="round" stroke-linejoin="round"/>
<path d="M684.653 127.667C684.653 127.667 693.931 129.88 698.464 130.407C702.996 130.933 703.731 131.566 703.731 131.566L704.577 134.727" stroke="#263238" stroke-width="2" stroke-linecap="round" stroke-linejoin="round"/>
<path d="M727.888 133.166L696.289 134.379L693.708 166.876H699.121L726.559 160.735L730.009 133.944L727.888 133.166Z" fill="white"/>
<path d="M695.352 167.838L729.913 134.712L726.559 160.735L695.352 167.838Z" fill="#2B99FF"/>
<path opacity="0.7" d="M695.352 167.838L729.913 134.712L726.559 160.735L695.352 167.838Z" fill="white"/>
<path d="M695.352 166.968L698.116 135.621L730.009 133.944L726.559 160.735L695.352 166.968Z" stroke="#263238" stroke-width="2" stroke-linecap="round" stroke-linejoin="round"/>
<path d="M716.565 149.132C716.352 151.041 715.333 152.491 714.289 152.375C713.245 152.259 712.578 150.611 712.791 148.702C713.004 146.793 714.028 145.343 715.072 145.459C716.116 145.575 716.782 147.223 716.565 149.132Z" fill="#263238"/>
<path d="M726.559 160.735C726.559 160.735 741.162 160.319 745.729 163.334C750.295 166.35 752.977 181.47 752.344 189.502C751.711 197.533 746.202 215.964 746.202 215.964L735.648 204.018C735.648 204.018 730.449 185.114 733.285 177.711C733.285 177.711 719.272 178.498 713.753 176.768C713.753 176.768 708.809 168.674 700.333 165.997L726.559 160.735Z" fill="#263238"/>
<path d="M748.43 216.278C744.682 212.778 741.316 208.891 738.388 204.68C733.281 196.789 726.221 189.217 718.958 183.307C713.106 178.561 711.781 170.829 704.562 166.949C692.602 160.536 682.261 173.279 678.395 175.86C674.529 178.44 667.836 181.364 667.836 181.364C667.836 181.364 670.281 190.545 677.462 191.633C684.643 192.72 691.906 187.767 695.342 190.159C698.778 192.551 701.319 203.23 712.666 209.488C721.939 214.601 734.576 219.588 741.095 222.951C742.544 223.705 743.627 224.498 744.448 224.947C746.7 226.174 749.107 227.619 751.378 229.05L759.201 233.814C759.201 233.814 767.054 229.171 770.069 224.889C770.471 224.314 771.307 222.782 772.089 221.303C773.795 218.071 775.955 215.171 778.947 213.572C781.015 212.455 782.856 212.122 782.812 212.006C782.614 211.639 778.864 209.72 776.318 210.769C770.925 212.997 760.144 221.555 755.055 220.917C752.689 219.61 750.468 218.055 748.43 216.278V216.278Z" stroke="#263238" stroke-width="2" stroke-miterlimit="10"/>
<path d="M748.43 216.278C743.728 218.177 741.834 221.11 741.109 222.956C734.59 219.573 721.954 214.606 712.68 209.493C701.334 203.211 698.811 192.551 695.356 190.164C691.901 187.776 684.633 192.744 677.477 191.638C670.32 190.531 667.836 181.359 667.836 181.359C667.836 181.359 674.534 178.46 678.399 175.879C682.265 173.299 691.181 160.551 704.562 166.968C711.951 170.51 713.106 178.566 718.958 183.326C726.206 189.216 733.281 196.808 738.388 204.699C741.308 208.91 744.675 212.792 748.43 216.278Z" fill="#263238"/>
<path d="M713.096 175.309C713.096 175.309 709.477 167.954 703.673 166.529" stroke="white" stroke-width="2" stroke-linecap="round" stroke-linejoin="round"/>
<path d="M694.124 160.667C690.133 159.797 685.75 164.209 683.904 163.383C682.531 162.769 680.274 166.403 680.274 166.403C676.56 166.939 672.803 167.129 669.054 166.968C663.675 166.625 661.129 167.674 659.225 170.549L656.567 177.59C656.567 177.59 663.579 183.872 671.064 180.214C678.549 176.556 688.494 165.519 695.347 165.557" stroke="#263238" stroke-width="2" stroke-linecap="round" stroke-linejoin="round"/>
<path d="M749.846 228.093C749.846 228.093 756.398 228.629 754.862 220.801" stroke="#263238" stroke-width="2" stroke-miterlimit="10"/>
<path d="M780.725 215.964C780.242 216.93 774.235 222.043 769.06 226.513C769.06 226.445 770.509 223.715 771.108 222.55C772.486 219.979 776.042 212.929 782.812 212.001C783.774 212.581 780.725 215.964 780.725 215.964Z" fill="#263238"/>
<path d="M778.149 210.46C771.302 211.822 769.746 220.608 767.315 224.343C764.885 228.078 758.134 233.157 758.134 233.157" stroke="#263238" stroke-width="2" stroke-miterlimit="10"/>
<path d="M754.442 230.915C755.558 232.954 755.031 235.322 754.442 236.806C754.153 237.542 753.794 238.25 753.369 238.917C743.675 237.323 733.981 232.113 733.981 232.113L731.483 224.382L731.082 223.145L734.846 218.075" stroke="#263238" stroke-width="2" stroke-miterlimit="10"/>
<path d="M754.441 236.806C754.153 237.542 753.793 238.25 753.369 238.917C743.675 237.323 733.981 232.113 733.981 232.113L731.483 224.382C732.734 226.015 735.054 228.407 738.533 229.388C743.255 230.727 751.967 232.292 754.441 236.806Z" fill="#263238"/>
<path d="M693.708 165.746L696.289 134.379L727.888 133.166L730.009 133.944" stroke="#263238" stroke-width="2" stroke-linecap="round" stroke-linejoin="round"/>
<path d="M754.819 224.343C754.819 224.343 759.139 225.116 762.459 222.41C765.779 219.704 771.128 213.581 771.128 213.581" stroke="#263238" stroke-width="2" stroke-miterlimit="10"/>
<path d="M759.216 220.448C759.216 220.448 758.173 222.019 759.216 225.169" stroke="#263238" stroke-width="2" stroke-linecap="round" stroke-linejoin="round"/>
<path d="M762.279 218.945C761.804 220.511 761.944 222.2 762.671 223.666" stroke="#263238" stroke-width="2" stroke-linecap="round" stroke-linejoin="round"/>
<path d="M765.933 216.829C765.933 216.829 765.059 219.453 765.933 221.767" stroke="#263238" stroke-width="2" stroke-linecap="round" stroke-linejoin="round"/>
<path d="M735.702 217.423L732.237 221.593C732.237 221.593 735.726 225.406 740.65 226.991C745.574 228.576 754.369 231.268 755.099 234.133" stroke="#263238" stroke-width="2" stroke-miterlimit="10"/>
<path d="M736.375 50.875C735.034 51.7312 733.864 52.6829 732.791 53.8611C732.758 53.8979 731.924 54.8693 732.027 54.9722C733.512 56.4564 735.69 57.4735 736.875 59.25" stroke="#3C343D" stroke-width="2" stroke-linecap="round" stroke-linejoin="round"/>
<path d="M746.5 48C745.851 48.7031 745.446 49.5158 744.986 50.3472C744.138 51.8793 743.231 53.3705 742.486 54.9583C741.919 56.1682 741.303 57.385 740.806 58.625C740.516 59.346 740.41 60.1671 740.062 60.8611C739.753 61.4804 739.483 62.1526 739.125 62.75" stroke="#3C343D" stroke-width="2" stroke-linecap="round" stroke-linejoin="round"/>
<path d="M748.5 51.875C749.835 52.7013 751.564 54.31 751.757 55.9514C751.777 56.1184 751.936 56.3898 751.889 56.5486C751.799 56.8534 750.82 56.9795 750.569 57.0833C749.641 57.4687 748.923 58.055 748.125 58.625" stroke="#3C343D" stroke-width="2" stroke-linecap="round" stroke-linejoin="round"/>
<path d="M819.25 72C821.375 72.3826 823.566 72.2439 825.708 72.0972C829.655 71.8271 833.556 71.1531 837.514 71.0278C841.227 70.9103 844.92 70.5 848.639 70.5C849.721 70.5 850.794 70.3235 851.875 70.375C852.519 70.4057 852.687 70.5621 852.875 71.125" stroke="#2B99FF" stroke-width="1.5" stroke-linecap="round" stroke-linejoin="round"/>
<path d="M731.75 86.3751C734.903 86.8421 738.29 86.4644 741.444 86.2501C744.977 86.01 748.557 85.8226 752.097 86.0278C754.99 86.1955 757.852 86.5001 760.75 86.5001" stroke="#2B99FF" stroke-width="1.5" stroke-linecap="round" stroke-linejoin="round"/>
<path d="M840 86.625C843.414 86.6724 846.825 87.0048 850.243 86.8681C850.917 86.8411 851.575 86.75 852.25 86.75" stroke="#2B99FF" stroke-width="1.5" stroke-linecap="round" stroke-linejoin="round"/>
<path d="M731 118C738.338 117.867 745.65 117 753 117" stroke="#2B99FF" stroke-width="1.5" stroke-linecap="round" stroke-linejoin="round"/>
<path d="M731.75 72.625C743.515 72.625 755.339 73.1754 767.083 72.4028C773.986 71.9486 780.947 72.1303 787.861 71.9722C792.055 71.8764 796.25 71.8388 800.444 71.875C802.27 71.8907 804.268 72.25 806 72.25" stroke="#4F5B60" stroke-width="1.5" stroke-linecap="round" stroke-linejoin="round"/>
<path d="M771.25 86.75C773.2 87.0125 775.307 86.5867 777.25 86.4444C781.305 86.1472 785.37 86.2477 789.431 86.4027C797.74 86.7199 806.031 87.2402 814.333 87.6805C818.307 87.8913 822.167 87.25 826.125 87.25" stroke="#4F5B60" stroke-width="1.5" stroke-linecap="round" stroke-linejoin="round"/>
<path d="M731.25 102C734.238 104.197 738.746 104.25 742.333 104.25C746.013 104.25 749.506 103.69 753.139 103.25C755.817 102.925 758.361 102.403 761.083 102.264C765.226 102.051 769.552 102.319 773.667 102.806C778.946 103.43 784.051 104 789.361 104C790.634 104 792.141 103.74 793.375 104.014C794.086 104.172 794.552 104.25 795.361 104.25C797.162 104.25 799.607 104.657 801.25 104" stroke="#4F5B60" stroke-width="1.5" stroke-linecap="round" stroke-linejoin="round"/>
<path d="M810 104.5C817.508 104.5 824.993 104.648 832.472 103.889C834.842 103.649 837.257 103.961 839.611 103.625C841.543 103.349 843.347 103.682 845.25 103.944C847.816 104.298 850.65 104 853.25 104" stroke="#4F5B60" stroke-width="1.5" stroke-linecap="round" stroke-linejoin="round"/>
<path d="M763.5 118.25C768.27 118.886 773.265 118.51 778.056 118.5C782.939 118.49 787.794 118.04 792.667 118C795.141 117.98 797.544 118.271 800.028 118.25C806.596 118.193 813.172 118 819.75 118" stroke="#4F5B60" stroke-width="1.5" stroke-linecap="round" stroke-linejoin="round"/>
<path d="M834 119C842.519 119 868.069 119.044 859.556 118.75C857.625 118.683 855.682 118.75 853.75 118.75" stroke="#4F5B60" stroke-width="1.5" stroke-linecap="round" stroke-linejoin="round"/>
</g>
</svg>
