<svg width="64" height="64" viewBox="0 0 64 64" fill="none" xmlns="http://www.w3.org/2000/svg">
<mask id="mask0" mask-type="alpha" maskUnits="userSpaceOnUse" x="6" y="13" width="27" height="46">
<rect x="6" y="13" width="26.5098" height="46" fill="#C4C4C4"/>
</mask>
<g mask="url(#mask0)">
<path fill-rule="evenodd" clip-rule="evenodd" d="M23.8908 55.5678H40.75C42.1039 55.5678 43.1677 56.2869 43.1677 57.1368V57.431C43.1677 58.2809 42.0717 59 40.75 59H23.8908C22.5369 59 21.4731 58.3136 21.4731 57.431V57.1368C21.4731 56.2869 22.5691 55.5678 23.8908 55.5678ZM34.2384 50.8852H37.7199C38.5903 50.8852 39.2994 51.5717 39.2672 52.4543V52.7484C39.2672 53.5983 38.5903 54.3175 37.7199 54.3175H26.792C25.9539 54.3175 25.2447 53.631 25.2447 52.7484V52.4543C25.2447 51.6044 25.9216 50.8852 26.792 50.8852H30.5636V17.4864H17.8799L27.7913 35.1623C27.6624 41.0135 22.827 45.6878 16.8957 45.6878C10.9643 45.6878 6.12894 41.0135 6 35.1623L16.8191 15.5946L16.8207 15.5975C16.8987 15.4787 16.9843 15.4189 17.1535 15.4189H29.532C29.2741 15.1574 29.113 14.7978 29.113 14.4056C29.113 13.6211 29.7254 13 30.4991 13H34.174C34.9476 13 35.5601 13.6211 35.5601 14.4056C35.5601 14.7978 35.3989 15.1574 35.141 15.4189H47.1029C47.3931 15.4189 48.124 15.625 48.3137 16L48.5511 16.4649V16.4929L59.0196 35.1623C58.8907 41.0135 54.0553 45.6878 48.124 45.6878C42.1926 45.6878 37.3572 41.0135 37.2283 35.1623L46.9833 17.5191H34.2384V50.8852ZM25.5319 34.7374L16.8957 18.5L8.25649 34.7374H25.5319ZM57.1137 34.7374L48.124 18.0012L39.4848 34.7374H57.1137Z" fill="white"/>
</g>
<mask id="mask1" mask-type="alpha" maskUnits="userSpaceOnUse" x="31" y="13" width="27" height="46">
<rect width="26.5098" height="46" transform="matrix(-1 0 0 1 58 13)" fill="#C4C4C4"/>
</mask>
<g mask="url(#mask1)">
<path fill-rule="evenodd" clip-rule="evenodd" d="M40.1092 55.5678H23.25C21.8961 55.5678 20.8323 56.2869 20.8323 57.1368V57.431C20.8323 58.2809 21.9283 59 23.25 59H40.1092C41.4631 59 42.5269 58.3136 42.5269 57.431V57.1368C42.5269 56.2869 41.4309 55.5678 40.1092 55.5678ZM29.7616 50.8852H26.2801C25.4097 50.8852 24.7006 51.5717 24.7328 52.4543V52.7484C24.7328 53.5983 25.4097 54.3175 26.2801 54.3175H37.208C38.0461 54.3175 38.7553 53.631 38.7553 52.7484V52.4543C38.7553 51.6044 38.0784 50.8852 37.208 50.8852H33.4364V17.4864H46.1201L36.2087 35.1623C36.3376 41.0135 41.173 45.6878 47.1043 45.6878C53.0357 45.6878 57.8711 41.0135 58 35.1623L47.1809 15.5946L47.1793 15.5975C47.1013 15.4787 47.0157 15.4189 46.8465 15.4189H34.468C34.7259 15.1574 34.887 14.7978 34.887 14.4056C34.887 13.6211 34.2746 13 33.5009 13H29.826C29.0524 13 28.4399 13.6211 28.4399 14.4056C28.4399 14.7978 28.6011 15.1574 28.859 15.4189H16.8971C16.6069 15.4189 15.876 15.625 15.6863 16L15.4489 16.4649V16.4929L4.9804 35.1623C5.10934 41.0135 9.94468 45.6878 15.876 45.6878C21.8074 45.6878 26.6428 41.0135 26.7717 35.1623L17.0167 17.5191H29.7616V50.8852ZM38.4681 34.7374L47.1043 18.5L55.7435 34.7374H38.4681ZM6.88634 34.7374L15.876 18.0012L24.5152 34.7374H6.88634Z" fill="white"/>
</g>
<path d="M32 11C33.6588 11 35 9.93194 35 8.64398C35 7.32461 33.6588 5 32 5C30.3412 5 29 7.35602 29 8.64398C29 9.93194 30.3412 11 32 11Z" fill="white"/>
</svg>
