<svg width="64" height="64" viewBox="0 0 64 64" fill="none" xmlns="http://www.w3.org/2000/svg">
<path d="M34.4134 60.0934C34.1877 60.0863 33.9675 60.0221 33.7734 59.9067L33.5601 59.7734C33.373 59.6653 33.2177 59.5098 33.11 59.3225C33.0023 59.1352 32.946 58.9227 32.9468 58.7067V34.96C32.9463 34.7422 33.0027 34.5281 33.1102 34.3387C33.2178 34.1493 33.3728 33.9912 33.5601 33.88L33.7734 33.7467L54.8134 21.6134C55.0035 21.502 55.2198 21.4434 55.4401 21.4434C55.6604 21.4434 55.8767 21.502 56.0668 21.6134C56.2568 21.7214 56.4141 21.8788 56.5221 22.0689C56.63 22.259 56.6846 22.4748 56.6801 22.6934V46.6667C56.6746 46.8818 56.6172 47.0923 56.5127 47.2804C56.4082 47.4684 56.2598 47.6284 56.0801 47.7467L55.8534 47.88L55.6934 47.96L35.0401 59.96C34.8451 60.0547 34.63 60.1005 34.4134 60.0934ZM29.0134 60.0934C28.7975 60.0894 28.5862 60.0297 28.4001 59.92L7.62675 47.92C7.4282 47.8151 7.26227 47.6576 7.14707 47.4648C7.03186 47.272 6.97179 47.0513 6.97342 46.8267V22.8267C6.97567 22.6091 7.03454 22.3958 7.14424 22.2079C7.25393 22.0199 7.41067 21.8638 7.59903 21.7548C7.78739 21.6458 8.00087 21.5878 8.21848 21.5864C8.43609 21.5849 8.65032 21.6402 8.84009 21.7467L29.6401 33.7467C29.8298 33.8562 29.9875 34.0136 30.0975 34.2031C30.2074 34.3926 30.2658 34.6076 30.2668 34.8267V58.8267C30.2672 59.0461 30.2094 59.2616 30.0993 59.4513C29.9892 59.6411 29.8307 59.7982 29.6401 59.9067C29.4499 60.02 29.2346 60.0841 29.0134 60.0934Z" fill="white"/>
<path d="M25.9068 10.2133C25.7537 10.0772 25.5746 9.97337 25.3804 9.90815C25.1861 9.84294 24.9807 9.81767 24.7765 9.83386C24.5722 9.85005 24.3734 9.90737 24.1918 10.0024C24.0103 10.0974 23.8498 10.2281 23.7201 10.3867L18.7334 16.28C18.4878 16.5578 18.3523 16.9159 18.3523 17.2867C18.3523 17.6575 18.4878 18.0155 18.7334 18.2933L23.7201 24.2267C23.8704 24.3936 24.0531 24.5282 24.2571 24.6222C24.4612 24.7162 24.6822 24.7676 24.9068 24.7733C25.2724 24.7639 25.6244 24.6325 25.9068 24.4C26.2068 24.1244 26.3904 23.7447 26.4202 23.3384C26.4499 22.9321 26.3235 22.5297 26.0668 22.2133L21.9068 17.3333L26.0668 12.4C26.202 12.2469 26.3052 12.0684 26.3705 11.8749C26.4358 11.6813 26.4617 11.4767 26.4468 11.273C26.4319 11.0693 26.3764 10.8707 26.2837 10.6887C26.191 10.5067 26.0628 10.3451 25.9068 10.2133ZM45.4001 16.28L40.4134 10.3867C40.2834 10.2257 40.1223 10.0924 39.9398 9.99483C39.7573 9.89722 39.5571 9.83723 39.351 9.8184C39.1449 9.79958 38.9371 9.82231 38.74 9.88525C38.5428 9.94818 38.3603 10.0501 38.2032 10.1848C38.0462 10.3196 37.9177 10.4845 37.8255 10.6698C37.7334 10.8551 37.6793 11.057 37.6666 11.2636C37.6539 11.4701 37.6827 11.6771 37.7515 11.8724C37.8202 12.0676 37.9274 12.247 38.0668 12.4L42.2268 17.3333L38.1068 22.24C37.9136 22.4627 37.7881 22.7358 37.745 23.0274C37.702 23.319 37.7431 23.6168 37.8636 23.8858C37.984 24.1547 38.1789 24.3837 38.4251 24.5457C38.6713 24.7076 38.9587 24.7959 39.2534 24.8C39.4808 24.8093 39.7067 24.7603 39.9098 24.6576C40.1128 24.5549 40.2862 24.402 40.4134 24.2133L45.4001 18.32C45.645 18.0366 45.7797 17.6746 45.7797 17.3C45.7797 16.9255 45.645 16.5634 45.4001 16.28ZM34.8001 9.84001C34.6084 9.77247 34.4052 9.74338 34.2022 9.75442C33.9993 9.76545 33.8005 9.81638 33.6172 9.9043C33.4339 9.99222 33.2698 10.1154 33.1341 10.2668C32.9985 10.4182 32.8941 10.5949 32.8268 10.7867L28.4534 23.16C28.3821 23.3515 28.3502 23.5553 28.3595 23.7594C28.3687 23.9635 28.4191 24.1636 28.5074 24.3478C28.5958 24.532 28.7204 24.6965 28.8738 24.8315C29.0271 24.9665 29.2061 25.0691 29.4001 25.1333C29.559 25.1888 29.7253 25.2203 29.8934 25.2267C30.2168 25.2184 30.5306 25.1155 30.7961 24.9306C31.0615 24.7458 31.2669 24.4871 31.3868 24.1867L35.7468 11.8267C35.8182 11.6343 35.8503 11.4295 35.8412 11.2245C35.8321 11.0195 35.7819 10.8184 35.6936 10.6331C35.6053 10.4479 35.4808 10.2822 35.3273 10.146C35.1738 10.0097 34.9945 9.90569 34.8001 9.84001Z" fill="white"/>
</svg>
