<svg width="64" height="64" viewBox="0 0 64 64" fill="none" xmlns="http://www.w3.org/2000/svg">
<path d="M53.6364 27.6436C53.8405 26.3756 53.9679 24.9854 54 23.4265C53.9877 16.742 50.7271 14.3767 50.0997 13.2678C51.0237 8.20309 49.9467 5.89929 49.4458 5.11064C47.5982 4.46708 43.0179 6.77166 40.5153 8.39399C36.435 7.22184 27.812 7.33624 24.5783 8.69738C18.6119 4.50476 15.4563 5.14403 15.4563 5.14403C15.4563 5.14403 13.4162 8.73416 14.917 13.9863C12.9539 16.4413 11.4907 18.177 11.4907 22.781C11.4907 23.8837 11.5605 24.9256 11.6789 25.9281C13.3695 34.6516 20.413 38.415 27.3318 39.064C26.2906 39.8403 25.0407 41.3095 24.8678 43.012C23.5596 43.842 20.9281 44.1164 18.8818 43.485C16.0146 42.596 14.917 37.0239 10.6233 37.8188C9.6942 37.9894 9.87884 38.5908 10.6834 39.1034C11.9915 39.9361 13.2235 40.9712 14.1731 43.1861C14.9025 44.8866 16.4365 47.9227 21.2865 47.9227C23.2119 47.9227 24.5605 47.6994 24.5605 47.6994C24.5605 47.6994 24.5972 52.0326 24.5972 53.7227C24.5972 55.6676 21.9225 56.2136 21.9225 57.1467C21.9225 57.5178 22.8078 57.553 23.5192 57.553C24.9252 57.553 27.8504 56.4037 27.8504 54.3822C27.8504 52.7759 27.8765 47.3779 27.8765 46.4325C27.8765 44.367 29.0045 43.7093 29.0045 43.7093C29.0045 43.7093 29.1425 54.7355 28.733 56.2137C28.2528 57.9522 27.3828 57.7052 27.3828 58.4788C27.3828 59.6334 30.8996 58.7611 32.0661 56.2339C32.9684 54.2601 32.5643 43.4472 32.5643 43.4472L33.5051 43.4272C33.5051 43.4272 33.5159 48.3793 33.4835 50.6417C33.4496 52.985 33.2032 55.9474 34.6215 57.3455C35.5523 58.265 38.4042 59.8786 38.4042 58.404C38.4042 57.5495 36.4071 56.8433 36.4071 54.5281V43.8629C37.6204 43.8629 37.8711 47.3686 37.8711 47.3686L38.3085 53.8817C38.3085 53.8817 38.0181 56.2584 40.9247 57.2503C41.9508 57.603 44.1459 57.6989 44.2488 57.1069C44.3519 56.5134 41.6056 55.6359 41.5795 53.7963C41.5654 52.676 41.6307 52.0202 41.6307 47.147C41.6307 42.2766 40.964 40.4748 38.6407 39.039C45.378 38.3605 52.3757 35.4077 53.6364 27.6436Z" fill="white"/>
<path fill-rule="evenodd" clip-rule="evenodd" d="M45.3887 30.0241C44.2709 30.9808 42.9041 31.4338 41.505 31.7648C38.7597 32.414 35.9645 32.5757 33.1602 32.4545C30.3882 32.5734 27.6481 32.4024 24.9511 31.7741C22.9616 31.3109 21.1453 30.5321 19.8794 28.8417C17.8649 26.1515 17.35 21.0319 20.6787 18.2377C21.5276 17.5254 22.4743 17.0733 23.5929 17.0029C24.8275 16.9249 26.0625 16.7726 27.2961 16.7871C30.4081 16.8238 33.5187 16.9769 36.6303 16.9999C38.0514 17.0101 39.4825 16.6821 40.8932 16.7666C42.1751 16.8434 43.523 17.0771 44.6865 17.5877C46.6259 18.439 47.67 20.1652 47.9854 22.187C48.455 25.1931 47.8354 27.9294 45.3887 30.0241Z" fill="black" fill-opacity="0.1"/>
<path d="M43.4232 24.392C43.4232 26.6638 42.0828 28.5055 40.4293 28.5055C38.7757 28.5055 37.4353 26.6638 37.4353 24.392C37.4353 22.1202 38.7757 20.2786 40.4293 20.2786C42.0828 20.2786 43.4232 22.1202 43.4232 24.392Z" fill="#242E42"/>
<path d="M30.2499 24.392C30.2499 26.6638 28.9094 28.5055 27.2559 28.5055C25.6024 28.5055 24.262 26.6638 24.262 24.392C24.262 22.1202 25.6024 20.2786 27.2559 20.2786C28.9094 20.2786 30.2499 22.1202 30.2499 24.392Z" fill="#242E42"/>
</svg>
