<svg width="16" height="16" viewBox="0 0 16 16" fill="none" xmlns="http://www.w3.org/2000/svg">
<rect opacity="0.01" width="16" height="16" fill="#31383E"/>
<path d="M16 3.53901C15.405 3.80001 14.771 3.97301 14.11 4.05701C14.79 3.65101 15.309 3.01301 15.553 2.24401C14.919 2.62201 14.219 2.88901 13.473 3.03801C12.871 2.39701 12.013 2.00001 11.077 2.00001C9.261 2.00001 7.799 3.47401 7.799 5.28101C7.799 5.54101 7.821 5.79101 7.875 6.02901C5.148 5.89601 2.735 4.58901 1.114 2.59801C0.831 3.08901 0.665 3.65101 0.665 4.25601C0.665 5.39201 1.25 6.39901 2.122 6.98201C1.595 6.97201 1.078 6.81901 0.64 6.57801C0.64 6.58801 0.64 6.60101 0.64 6.61401C0.64 8.20801 1.777 9.53201 3.268 9.83701C3.001 9.91001 2.71 9.94501 2.408 9.94501C2.198 9.94501 1.986 9.93301 1.787 9.88901C2.212 11.188 3.418 12.143 4.852 12.174C3.736 13.047 2.319 13.573 0.785 13.573C0.516 13.573 0.258 13.561 0 13.528C1.453 14.465 3.175 15 5.032 15C11.068 15 14.368 10 14.368 5.66601C14.368 5.52101 14.363 5.38101 14.356 5.24201C15.007 4.78001 15.554 4.20301 16 3.53901Z" fill="#31383E"/>
</svg>
