<svg width="64" height="64" viewBox="0 0 64 64" fill="none" xmlns="http://www.w3.org/2000/svg">
<path d="M52.0888 21.1661C51.9902 7.25186 36.9777 5.05228 32.0248 16.5383C26.8317 4.57653 12.0779 7.36925 11.9793 21.2464C11.9547 24.5272 13.2545 26.9183 15.1149 28.8275C16.6981 30.4525 28.5566 39.1458 32.0556 42.0497C35.53 39.2014 47.1791 30.4092 48.8115 28.8028C50.7458 26.8998 52.1134 24.5087 52.0888 21.1661Z" fill="white"/>
<path fill-rule="evenodd" clip-rule="evenodd" d="M7.75004 34.299C7.33583 35.0165 7.58164 35.9338 8.29908 36.3481L26.1 46.6254V55H29.1V46C29.1 45.9334 29.0957 45.8677 29.0873 45.8034C29.105 45.2678 28.8344 44.74 28.3378 44.4533L9.79908 33.75C9.08164 33.3358 8.16425 33.5816 7.75004 34.299Z" fill="white"/>
<path fill-rule="evenodd" clip-rule="evenodd" d="M56.2988 34.299C56.713 35.0165 56.4672 35.9338 55.7497 36.3481L37.9488 46.6254V55H34.9488V46C34.9488 45.9334 34.9532 45.8677 34.9616 45.8034C34.9438 45.2678 35.2144 44.74 35.711 44.4533L54.2497 33.75C54.9672 33.3358 55.8846 33.5816 56.2988 34.299Z" fill="white"/>
</svg>
